<svg xmlns="http://www.w3.org/2000/svg" xmlns:xlink="http://www.w3.org/1999/xlink" width="159.445" height="30.88" viewBox="0 0 159.445 30.88">
  <defs>
    <linearGradient id="linear-gradient" y1="0.5" x2="1.001" y2="0.5" gradientUnits="objectBoundingBox">
      <stop offset="0" stop-color="#50d7be"/>
      <stop offset="0.285" stop-color="#4bcfc7"/>
      <stop offset="0.757" stop-color="#3fbbe1"/>
      <stop offset="0.994" stop-color="#37aff0"/>
    </linearGradient>
    <linearGradient id="linear-gradient-2" x1="0.659" y1="0.939" x2="0.309" y2="-0.015" gradientUnits="objectBoundingBox">
      <stop offset="0" stop-color="#5ab1a3"/>
      <stop offset="0.144" stop-color="#57a5b3"/>
      <stop offset="0.501" stop-color="#518bd4"/>
      <stop offset="0.797" stop-color="#4d7be9"/>
      <stop offset="0.994" stop-color="#4c75f0"/>
    </linearGradient>
    <linearGradient id="linear-gradient-3" x1="0.944" y1="-0.021" x2="-0.078" y2="0.971" xlink:href="#linear-gradient"/>
  </defs>
  <g id="profession-logo" transform="translate(-0.396 -0.733)">
    <path id="PROFESSION" d="M98.995,12.921a7.309,7.309,0,0,1-3.5-.839A6.251,6.251,0,0,1,93.05,9.771a6.34,6.34,0,0,1-.882-3.31A6.346,6.346,0,0,1,93.05,3.15,6.251,6.251,0,0,1,95.492.839a7.712,7.712,0,0,1,7,0,6.251,6.251,0,0,1,3.334,5.622,6.251,6.251,0,0,1-3.334,5.621A7.252,7.252,0,0,1,98.995,12.921Zm0-10.458a3.968,3.968,0,0,0-2,.509A3.668,3.668,0,0,0,95.6,4.39a4.2,4.2,0,0,0-.508,2.071,4.2,4.2,0,0,0,.508,2.07A3.665,3.665,0,0,0,97,9.95a4.173,4.173,0,0,0,3.992,0,3.678,3.678,0,0,0,1.4-1.419,4.2,4.2,0,0,0,.508-2.07,4.2,4.2,0,0,0-.508-2.071,3.668,3.668,0,0,0-1.4-1.418A3.968,3.968,0,0,0,98.995,2.463ZM79.834,12.921a10.233,10.233,0,0,1-2.861-.4,6.736,6.736,0,0,1-2.218-1.044l.98-2.177a6.694,6.694,0,0,0,1.907.946,7.169,7.169,0,0,0,2.21.356,3.561,3.561,0,0,0,1.818-.365,1.109,1.109,0,0,0,.588-.973.932.932,0,0,0-.347-.741,2.636,2.636,0,0,0-.891-.472c-.354-.117-.835-.245-1.471-.393a20.435,20.435,0,0,1-2.335-.678,3.807,3.807,0,0,1-1.56-1.089,2.952,2.952,0,0,1-.651-2,3.492,3.492,0,0,1,.589-1.972,3.963,3.963,0,0,1,1.773-1.4A7.244,7.244,0,0,1,80.261,0,9.692,9.692,0,0,1,82.6.285a6.926,6.926,0,0,1,2,.822L83.7,3.3a6.98,6.98,0,0,0-3.458-.982,3.258,3.258,0,0,0-1.792.392,1.2,1.2,0,0,0-.579,1.035,1.016,1.016,0,0,0,.668.955,10.422,10.422,0,0,0,2.041.617A20.433,20.433,0,0,1,82.917,6a3.9,3.9,0,0,1,1.56,1.071,2.883,2.883,0,0,1,.651,1.981,3.435,3.435,0,0,1-.6,1.955,4.031,4.031,0,0,1-1.792,1.4A7.289,7.289,0,0,1,79.834,12.921Zm-11.371,0a10.224,10.224,0,0,1-2.861-.4,6.736,6.736,0,0,1-2.219-1.044l.98-2.177a6.665,6.665,0,0,0,1.907.946,7.152,7.152,0,0,0,2.21.356,3.565,3.565,0,0,0,1.818-.365,1.111,1.111,0,0,0,.588-.973.934.934,0,0,0-.347-.741,2.647,2.647,0,0,0-.891-.472c-.355-.119-.836-.247-1.471-.393a20.472,20.472,0,0,1-2.335-.678,3.807,3.807,0,0,1-1.56-1.089,2.952,2.952,0,0,1-.651-2,3.5,3.5,0,0,1,.588-1.972,3.971,3.971,0,0,1,1.774-1.4A7.238,7.238,0,0,1,68.89,0a9.689,9.689,0,0,1,2.335.285,6.938,6.938,0,0,1,2,.822l-.892,2.2a6.975,6.975,0,0,0-3.458-.982,3.256,3.256,0,0,0-1.791.392,1.205,1.205,0,0,0-.58,1.035,1.016,1.016,0,0,0,.669.955,10.3,10.3,0,0,0,2.041.617A20.47,20.47,0,0,1,71.545,6a3.909,3.909,0,0,1,1.56,1.071,2.883,2.883,0,0,1,.651,1.981,3.408,3.408,0,0,1-.6,1.955,4.017,4.017,0,0,1-1.791,1.4A7.289,7.289,0,0,1,68.462,12.921Zm-36.45,0a7.344,7.344,0,0,1-3.5-.839,6.251,6.251,0,0,1-2.442-2.311,6.34,6.34,0,0,1-.882-3.31,6.346,6.346,0,0,1,.882-3.311A6.251,6.251,0,0,1,28.509.839a7.713,7.713,0,0,1,7,0,6.251,6.251,0,0,1,3.334,5.622,6.251,6.251,0,0,1-3.334,5.621A7.288,7.288,0,0,1,32.012,12.921Zm0-10.458a3.968,3.968,0,0,0-2,.509,3.668,3.668,0,0,0-1.4,1.418,4.2,4.2,0,0,0-.508,2.071,4.2,4.2,0,0,0,.508,2.07,3.669,3.669,0,0,0,1.4,1.419,4.173,4.173,0,0,0,3.992,0,3.661,3.661,0,0,0,1.4-1.419,4.184,4.184,0,0,0,.509-2.07,4.191,4.191,0,0,0-.509-2.071,3.668,3.668,0,0,0-1.4-1.418A3.968,3.968,0,0,0,32.012,2.463Zm78.836,10.245H108V.214h2.389l6.2,7.585V.214h2.851V12.706h-2.371l-6.22-7.585v7.585Zm-95.091,0H12.869V.214h5.4a6.952,6.952,0,0,1,2.878.553,4.3,4.3,0,0,1,1.88,1.571,4.39,4.39,0,0,1,.66,2.409,4.26,4.26,0,0,1-.669,2.4,4.257,4.257,0,0,1-1.9,1.544l2.8,4.013-3.1,0-2.407-3.48H15.756v3.48Zm0-10.138V6.925h2.353a3.01,3.01,0,0,0,1.979-.571,2,2,0,0,0,.677-1.607,1.991,1.991,0,0,0-.677-1.615,3.049,3.049,0,0,0-1.979-.562ZM87.106,12.707V.214h2.888V12.706H87.106Zm-25.043,0H52.4V.214h9.429v2.32H55.273V5.247h5.792V7.5H55.273v2.891h6.79v2.319Zm-21.05,0V.214h9.429v2.32H43.9v3.3h5.775v2.32H43.9v4.55H41.013Zm-38.126,0H0V.214H5.4A6.952,6.952,0,0,1,8.279.768,4.307,4.307,0,0,1,10.16,2.338a4.347,4.347,0,0,1,.659,2.409,4.361,4.361,0,0,1-.659,2.4,4.223,4.223,0,0,1-1.881,1.57A7.111,7.111,0,0,1,5.4,9.263H2.887v3.443Zm0-10.137V6.907H5.241a3.047,3.047,0,0,0,1.978-.562,1.97,1.97,0,0,0,.677-1.6,1.988,1.988,0,0,0-.677-1.615A3.048,3.048,0,0,0,5.241,2.57Z" transform="translate(40.402 9.251)" fill="#323c50"/>
    <g id="Profession-logo-curved-iterations-09" transform="translate(0.306 0.598)">
      <g id="Group" transform="translate(11.869)">
        <path id="Shape" d="M18.924,0a11.533,11.533,0,0,1-2.553,3.905,11.535,11.535,0,0,1-7.01,3.363,3.017,3.017,0,0,1-.649.068H6.091A6.674,6.674,0,0,0,2.083,9.21,6.755,6.755,0,0,0,.448,11.67v.023l-.179.542A6.42,6.42,0,0,0,0,14.108v.113l8.174.09,1.165.023a10.073,10.073,0,0,0,4.121-.88,10.422,10.422,0,0,0,6.2-9.548A9.932,9.932,0,0,0,18.924,0Z" transform="translate(0.157 6.659)" fill="url(#linear-gradient)"/>
        <path id="Shape-2" data-name="Shape" d="M8.6,0H5.173A11.316,11.316,0,0,0,3.18,1.6,11.787,11.787,0,0,0,0,7.539H7.838a3.251,3.251,0,0,1,3.247,3.047,3.216,3.216,0,0,1-.873,2.3,3.3,3.3,0,0,1-1.612.9,11.357,11.357,0,0,0,7.01-3.363,11.533,11.533,0,0,0,2.553-3.905A10.308,10.308,0,0,0,8.6,0Z" transform="translate(0.896 0.135)" fill="url(#linear-gradient-2)"/>
      </g>
      <path id="Shape-3" data-name="Shape" d="M11.4,0h7.48a11.316,11.316,0,0,0-1.993,1.6,11.681,11.681,0,0,0-3.158,5.914L13.1,10.225l-.739,3.3L9.943,24.175l-.358,1.6h0l-.2.858h0a5.928,5.928,0,0,1-5.8,4.244H0L.2,30,3.068,17.336,5.845,5.1l.224-.993A5.867,5.867,0,0,1,9,.632,6.464,6.464,0,0,1,11.4,0Z" transform="translate(0.09 0.135)" fill="url(#linear-gradient-3)"/>
    </g>
  </g>
</svg>
