<?xml version="1.0" encoding="UTF-8"?>
<svg width="24px" height="24px" viewBox="0 0 24 24" version="1.1" xmlns="http://www.w3.org/2000/svg" xmlns:xlink="http://www.w3.org/1999/xlink">
    <!-- Generator: Sketch 63 (92445) - https://sketch.com -->
    <title> copy</title>
    <desc>Created with Sketch.</desc>
    <defs>
        <linearGradient x1="0%" y1="100%" x2="100%" y2="0%" id="linearGradient-1">
            <stop stop-color="#37AFF0" offset="0%"></stop>
            <stop stop-color="#50D7BE" offset="100%"></stop>
        </linearGradient>
    </defs>
    <g id="Profession-vélemények---UI-Desktop---960px" stroke="none" stroke-width="1" fill="none" fill-rule="evenodd">
        <g id="Lépés-4---Értékelő-form---Desktop" transform="translate(-770.000000, -1066.000000)" fill="url(#linearGradient-1)" fill-rule="nonzero">
            <path d="M782,1090 C783.65,1090 785.204167,1089.68333 786.6625,1089.05 C788.120833,1088.41667 789.391667,1087.55833 790.475,1086.475 C791.558333,1085.39167 792.416667,1084.12083 793.05,1082.6625 C793.683333,1081.20417 794,1079.65 794,1078 C794,1076.35 793.683333,1074.79583 793.05,1073.3375 C792.416667,1071.87917 791.558333,1070.60833 790.475,1069.525 C789.391667,1068.44167 788.120833,1067.58333 786.6625,1066.95 C785.204167,1066.31667 783.65,1066 782,1066 C780.35,1066 778.795833,1066.31667 777.3375,1066.95 C775.879167,1067.58333 774.608333,1068.44167 773.525,1069.525 C772.441667,1070.60833 771.583333,1071.87917 770.95,1073.3375 C770.316667,1074.79583 770,1076.35 770,1078 C770,1079.65 770.316667,1081.20417 770.95,1082.6625 C771.583333,1084.12083 772.441667,1085.39167 773.525,1086.475 C774.608333,1087.55833 775.879167,1088.41667 777.3375,1089.05 C778.795833,1089.68333 780.35,1090 782,1090 Z M782,1088.4 C780.566667,1088.4 779.216667,1088.12917 777.95,1087.5875 C776.683333,1087.04583 775.579167,1086.30417 774.6375,1085.3625 C773.695833,1084.42083 772.954167,1083.31667 772.4125,1082.05 C771.870833,1080.78333 771.6,1079.43333 771.6,1078 C771.6,1076.56667 771.870833,1075.21667 772.4125,1073.95 C772.954167,1072.68333 773.695833,1071.57917 774.6375,1070.6375 C775.579167,1069.69583 776.683333,1068.95417 777.95,1068.4125 C779.216667,1067.87083 780.566667,1067.6 782,1067.6 C783.433333,1067.6 784.783333,1067.87083 786.05,1068.4125 C787.316667,1068.95417 788.420833,1069.69583 789.3625,1070.6375 C790.304167,1071.57917 791.045833,1072.68333 791.5875,1073.95 C792.129167,1075.21667 792.4,1076.56667 792.4,1078 C792.4,1079.43333 792.129167,1080.78333 791.5875,1082.05 C791.045833,1083.31667 790.304167,1084.42083 789.3625,1085.3625 C788.420833,1086.30417 787.316667,1087.04583 786.05,1087.5875 C784.783333,1088.12917 783.433333,1088.4 782,1088.4 Z M782,1081.925 C782.216667,1081.925 782.404167,1081.85 782.5625,1081.7 C782.720833,1081.55 782.8,1081.35833 782.8,1081.125 L782.8,1071.525 C782.8,1071.30833 782.720833,1071.12083 782.5625,1070.9625 C782.404167,1070.80417 782.216667,1070.725 782,1070.725 C781.783333,1070.725 781.595833,1070.80417 781.4375,1070.9625 C781.279167,1071.12083 781.2,1071.30833 781.2,1071.525 L781.2,1081.125 C781.2,1081.35833 781.279167,1081.55 781.4375,1081.7 C781.595833,1081.85 781.783333,1081.925 782,1081.925 Z M782,1085.2 C782.216667,1085.2 782.404167,1085.12083 782.5625,1084.9625 C782.720833,1084.80417 782.8,1084.61667 782.8,1084.4 C782.8,1084.18333 782.720833,1083.99583 782.5625,1083.8375 C782.404167,1083.67917 782.216667,1083.6 782,1083.6 C781.783333,1083.6 781.595833,1083.67917 781.4375,1083.8375 C781.279167,1083.99583 781.2,1084.18333 781.2,1084.4 C781.2,1084.61667 781.279167,1084.80417 781.4375,1084.9625 C781.595833,1085.12083 781.783333,1085.2 782,1085.2 Z" id="-copy"></path>
        </g>
    </g>
</svg>