<?xml version="1.0" encoding="UTF-8"?>
<svg width="16px" height="16px" viewBox="0 0 16 16" version="1.1" xmlns="http://www.w3.org/2000/svg" xmlns:xlink="http://www.w3.org/1999/xlink">
    <!-- Generator: Sketch 62 (91390) - https://sketch.com -->
    <title> copy 14</title>
    <desc>Created with Sketch.</desc>
    <defs>
        <linearGradient x1="0%" y1="95.3225%" x2="100%" y2="4.67750003%" id="linearGradient-1">
            <stop stop-color="#37AFF0" offset="0%"></stop>
            <stop stop-color="#50D7BE" offset="100%"></stop>
        </linearGradient>
    </defs>
    <g id="Profession-vélemények---UI-Desktop---960px" stroke="none" stroke-width="1" fill="none" fill-rule="evenodd">
        <g id="Lépés-2---Értékelő-form---Desktop" transform="translate(-755.000000, -922.000000)" fill="url(#linearGradient-1)" fill-rule="nonzero">
            <g id="Group-2-Copy-7" transform="translate(650.000000, 846.000000)">
                <path d="M117.600639,91.2332268 C117.657437,91.2332268 117.714235,91.2247071 117.771033,91.2076677 C117.827831,91.1906283 117.878949,91.1650692 117.924388,91.1309904 C118.026624,91.0628328 118.094782,90.971956 118.12886,90.85836 C118.162939,90.7447639 118.162939,90.6311679 118.12886,90.5175719 L116.493078,85.4909478 L120.769968,82.4068158 C120.872204,82.3386581 120.940362,82.2477813 120.974441,82.1341853 C121.00852,82.0205893 121.00852,81.9069933 120.974441,81.7933972 C120.940362,81.6798012 120.875044,81.5889244 120.778488,81.5207668 C120.681931,81.4526092 120.571175,81.4185304 120.446219,81.4185304 L115.164004,81.4185304 L113.511182,76.3407881 C113.443024,76.113596 113.27263,76 113,76 C112.72737,76 112.556976,76.113596 112.488818,76.3407881 L110.835996,81.4185304 L105.553781,81.4185304 C105.428825,81.4185304 105.318069,81.4526092 105.221512,81.5207668 C105.124956,81.5889244 105.059638,81.6798012 105.025559,81.7933972 C104.99148,81.9069933 104.99148,82.0205893 105.025559,82.1341853 C105.059638,82.2477813 105.127796,82.3386581 105.230032,82.4068158 L109.506922,85.4909478 L107.87114,90.5175719 C107.837061,90.6311679 107.837061,90.7447639 107.87114,90.85836 C107.905218,90.971956 107.973376,91.0628328 108.075612,91.1309904 C108.166489,91.199148 108.271565,91.2332268 108.390841,91.2332268 C108.510117,91.2332268 108.615193,91.199148 108.70607,91.1309904 L113,88.0127796 L117.29393,91.1309904 C117.339368,91.1650692 117.387646,91.1906283 117.438765,91.2076677 C117.489883,91.2247071 117.543841,91.2332268 117.600639,91.2332268 Z" id="-copy-14"></path>
            </g>
        </g>
    </g>
</svg>