<?xml version="1.0" encoding="UTF-8"?>
<svg width="905px" height="90px" viewBox="0 0 905 90" version="1.1" xmlns="http://www.w3.org/2000/svg" xmlns:xlink="http://www.w3.org/1999/xlink">
    <!-- Generator: Sketch 63 (92445) - https://sketch.com -->
    <title>Group 7</title>
    <desc>Created with Sketch.</desc>
    <g id="Profession-vélemények---UI-Desktop---960px" stroke="none" stroke-width="1" fill="none" fill-rule="evenodd">
        <g id="Lépés-1---illustration---Értékelő-form---Desktop--Copy" transform="translate(-183.000000, -232.000000)">
            <g id="Group-7" transform="translate(183.000000, 232.000000)">
                <path d="M1.912,62 L1.912,53.888 L5.96,60.64 L6.696,60.64 L10.744,53.84 L10.76,62 L12.296,62 L12.28,50.8 L10.968,50.8 L6.36,58.672 L1.688,50.8 L0.376,50.8 L0.376,62 L1.912,62 Z M19,62.096 C19.5973333,62.096 20.1493333,61.976 20.656,61.736 C21.1626667,61.496 21.5706667,61.1573333 21.88,60.72 L21.88,60.72 L21.88,62 L23.336,62 L23.336,53.52 L21.8,53.52 L21.8,57.904 C21.8,58.8 21.5653333,59.4933333 21.096,59.984 C20.6266667,60.4746667 19.9866667,60.72 19.176,60.72 C18.44,60.72 17.8746667,60.5093333 17.48,60.088 C17.0853333,59.6666667 16.888,59.0453333 16.888,58.224 L16.888,58.224 L16.888,53.52 L15.352,53.52 L15.352,58.4 C15.352,59.616 15.6773333,60.536 16.328,61.16 C16.9786667,61.784 17.8693333,62.096 19,62.096 Z M27.8,62 L27.8,57.632 C27.8,56.7253333 28.04,56.0293333 28.52,55.544 C29,55.0586667 29.656,54.816 30.488,54.816 C31.224,54.816 31.7893333,55.024 32.184,55.44 C32.5786667,55.856 32.776,56.4746667 32.776,57.296 L32.776,57.296 L32.776,62 L34.312,62 L34.312,57.12 C34.312,55.9146667 33.9946667,55 33.36,54.376 C32.7253333,53.752 31.8693333,53.44 30.792,53.44 C30.12,53.44 29.52,53.5573333 28.992,53.792 C28.464,54.0266667 28.0453333,54.3626667 27.736,54.8 L27.736,54.8 L27.736,53.52 L26.264,53.52 L26.264,62 L27.8,62 Z M38.696,62 L38.696,59.68 L40.456,58.048 L43.64,62 L45.528,62 L41.608,57.024 L45.176,53.52 L43.32,53.52 L38.696,57.744 L38.696,50.128 L37.16,50.128 L37.16,62 L38.696,62 Z M49.336,62.096 C49.9866667,62.096 50.5493333,61.992 51.024,61.784 C51.4986667,61.576 51.864,61.2746667 52.12,60.88 L52.12,60.88 L52.12,62 L53.576,62 L53.576,56.88 C53.576,55.7386667 53.264,54.88 52.64,54.304 C52.016,53.728 51.1173333,53.44 49.944,53.44 C49.2613333,53.44 48.616,53.5333333 48.008,53.72 C47.4,53.9066667 46.8773333,54.176 46.44,54.528 L46.44,54.528 L47.08,55.68 C47.4106667,55.4026667 47.816,55.1813333 48.296,55.016 C48.776,54.8506667 49.2666667,54.768 49.768,54.768 C50.5146667,54.768 51.08,54.944 51.464,55.296 C51.848,55.648 52.04,56.1546667 52.04,56.816 L52.04,56.816 L52.04,57.12 L49.608,57.12 C48.424,57.12 47.56,57.3466667 47.016,57.8 C46.472,58.2533333 46.2,58.8533333 46.2,59.6 C46.2,60.3466667 46.4853333,60.9493333 47.056,61.408 C47.6266667,61.8666667 48.3866667,62.096 49.336,62.096 Z M49.592,60.912 C49.0053333,60.912 48.5466667,60.7893333 48.216,60.544 C47.8853333,60.2986667 47.72,59.9626667 47.72,59.536 C47.72,58.6613333 48.3706667,58.224 49.672,58.224 L49.672,58.224 L52.04,58.224 L52.04,59.408 C51.848,59.888 51.5386667,60.2586667 51.112,60.52 C50.6853333,60.7813333 50.1786667,60.912 49.592,60.912 Z M57.96,62 L57.96,59.68 L59.72,58.048 L62.904,62 L64.792,62 L60.872,57.024 L64.44,53.52 L62.584,53.52 L57.96,57.744 L57.96,50.128 L56.424,50.128 L56.424,62 L57.96,62 Z M68.056,52.016 C68.28,52.016 68.472,51.9386667 68.632,51.784 C68.792,51.6293333 68.872,51.4346667 68.872,51.2 C68.872,50.9653333 68.792,50.768 68.632,50.608 C68.472,50.448 68.28,50.368 68.056,50.368 C67.832,50.368 67.64,50.448 67.48,50.608 C67.32,50.768 67.24,50.9653333 67.24,51.2 C67.24,51.4346667 67.32,51.6293333 67.48,51.784 C67.64,51.9386667 67.832,52.016 68.056,52.016 Z M71.032,52.016 C71.256,52.016 71.448,51.9386667 71.608,51.784 C71.768,51.6293333 71.848,51.4346667 71.848,51.2 C71.848,50.9653333 71.768,50.768 71.608,50.608 C71.448,50.448 71.256,50.368 71.032,50.368 C70.808,50.368 70.616,50.448 70.456,50.608 C70.296,50.768 70.216,50.9653333 70.216,51.2 C70.216,51.4346667 70.296,51.6293333 70.456,51.784 C70.616,51.9386667 70.808,52.016 71.032,52.016 Z M69.56,62.096 C70.4026667,62.096 71.1573333,61.9093333 71.824,61.536 C72.4906667,61.1626667 73.0133333,60.648 73.392,59.992 C73.7706667,59.336 73.96,58.592 73.96,57.76 C73.96,56.928 73.7706667,56.184 73.392,55.528 C73.0133333,54.872 72.4906667,54.36 71.824,53.992 C71.1573333,53.624 70.4026667,53.44 69.56,53.44 C68.7173333,53.44 67.96,53.624 67.288,53.992 C66.616,54.36 66.0906667,54.872 65.712,55.528 C65.3333333,56.184 65.144,56.928 65.144,57.76 C65.144,58.592 65.3333333,59.336 65.712,59.992 C66.0906667,60.648 66.616,61.1626667 67.288,61.536 C67.96,61.9093333 68.7173333,62.096 69.56,62.096 Z M69.56,60.752 C69.016,60.752 68.528,60.6266667 68.096,60.376 C67.664,60.1253333 67.3226667,59.7733333 67.072,59.32 C66.8213333,58.8666667 66.696,58.3466667 66.696,57.76 C66.696,57.1733333 66.8213333,56.6533333 67.072,56.2 C67.3226667,55.7466667 67.664,55.3973333 68.096,55.152 C68.528,54.9066667 69.016,54.784 69.56,54.784 C70.104,54.784 70.592,54.9066667 71.024,55.152 C71.456,55.3973333 71.7946667,55.7466667 72.04,56.2 C72.2853333,56.6533333 72.408,57.1733333 72.408,57.76 C72.408,58.3466667 72.2853333,58.8666667 72.04,59.32 C71.7946667,59.7733333 71.456,60.1253333 71.024,60.376 C70.592,60.6266667 70.104,60.752 69.56,60.752 Z M77.624,62 L77.624,57.776 C77.624,56.8586667 77.8613333,56.152 78.336,55.656 C78.8106667,55.16 79.464,54.912 80.296,54.912 C80.4453333,54.912 80.5626667,54.9173333 80.648,54.928 L80.648,54.928 L80.648,53.44 C79.9013333,53.44 79.2666667,53.568 78.744,53.824 C78.2213333,54.08 77.8266667,54.4533333 77.56,54.944 L77.56,54.944 L77.56,53.52 L76.088,53.52 L76.088,62 L77.624,62 Z M90.648,52.288 L93.336,50.208 L91.384,50.208 L89.208,52.288 L90.648,52.288 Z M90.728,62.096 C91.432,62.096 92.0693333,61.9786667 92.64,61.744 C93.2106667,61.5093333 93.688,61.168 94.072,60.72 L94.072,60.72 L93.224,59.728 C92.6053333,60.4106667 91.7893333,60.752 90.776,60.752 C89.944,60.752 89.248,60.5253333 88.688,60.072 C88.128,59.6186667 87.8,59.0186667 87.704,58.272 L87.704,58.272 L94.584,58.272 C94.6053333,58.08 94.616,57.9253333 94.616,57.808 C94.616,56.9546667 94.4373333,56.1973333 94.08,55.536 C93.7226667,54.8746667 93.2266667,54.36 92.592,53.992 C91.9573333,53.624 91.2346667,53.44 90.424,53.44 C89.6133333,53.44 88.8853333,53.624 88.24,53.992 C87.5946667,54.36 87.088,54.8746667 86.72,55.536 C86.352,56.1973333 86.168,56.9386667 86.168,57.76 C86.168,58.592 86.3573333,59.3386667 86.736,60 C87.1146667,60.6613333 87.6506667,61.176 88.344,61.544 C89.0373333,61.912 89.832,62.096 90.728,62.096 Z M93.144,57.168 L87.704,57.168 C87.7893333,56.4426667 88.08,55.856 88.576,55.408 C89.072,54.96 89.688,54.736 90.424,54.736 C91.16,54.736 91.776,54.9626667 92.272,55.416 C92.768,55.8693333 93.0586667,56.4533333 93.144,57.168 L93.144,57.168 Z M99.176,62.096 C100.306667,62.096 101.2,61.8693333 101.856,61.416 C102.512,60.9626667 102.84,60.352 102.84,59.584 C102.84,59.008 102.690667,58.56 102.392,58.24 C102.093333,57.92 101.733333,57.6933333 101.312,57.56 C100.890667,57.4266667 100.338667,57.3013333 99.656,57.184 C99.144,57.088 98.7466667,57.0026667 98.464,56.928 C98.1813333,56.8533333 97.944,56.736 97.752,56.576 C97.56,56.416 97.464,56.1973333 97.464,55.92 C97.464,55.568 97.6346667,55.2853333 97.976,55.072 C98.3173333,54.8586667 98.8133333,54.752 99.464,54.752 C100.402667,54.752 101.218667,54.976 101.912,55.424 L101.912,55.424 L102.568,54.208 C102.205333,53.9733333 101.741333,53.7866667 101.176,53.648 C100.610667,53.5093333 100.045333,53.44 99.48,53.44 C98.4026667,53.44 97.544,53.672 96.904,54.136 C96.264,54.6 95.944,55.216 95.944,55.984 C95.944,56.5813333 96.0986667,57.0453333 96.408,57.376 C96.7173333,57.7066667 97.088,57.9413333 97.52,58.08 C97.952,58.2186667 98.5093333,58.3413333 99.192,58.448 C99.6933333,58.5333333 100.08,58.6106667 100.352,58.68 C100.624,58.7493333 100.850667,58.8586667 101.032,59.008 C101.213333,59.1573333 101.304,59.36 101.304,59.616 C101.304,60.384 100.632,60.768 99.288,60.768 C98.744,60.768 98.2053333,60.688 97.672,60.528 C97.1386667,60.368 96.6853333,60.1546667 96.312,59.888 L96.312,59.888 L95.672,61.104 C96.0346667,61.392 96.536,61.6293333 97.176,61.816 C97.816,62.0026667 98.4826667,62.096 99.176,62.096 Z M7.968,86 L7.968,81.632 C7.968,80.7253333 8.19733333,80.0293333 8.656,79.544 C9.11466667,79.0586667 9.73333333,78.816 10.512,78.816 C11.216,78.816 11.7573333,79.024 12.136,79.44 C12.5146667,79.856 12.704,80.4746667 12.704,81.296 L12.704,81.296 L12.704,86 L14.24,86 L14.24,81.632 C14.24,80.7253333 14.4693333,80.0293333 14.928,79.544 C15.3866667,79.0586667 16.0053333,78.816 16.784,78.816 C17.488,78.816 18.0293333,79.024 18.408,79.44 C18.7866667,79.856 18.976,80.4746667 18.976,81.296 L18.976,81.296 L18.976,86 L20.512,86 L20.512,81.12 C20.512,79.904 20.2,78.9866667 19.576,78.368 C18.952,77.7493333 18.1066667,77.44 17.04,77.44 C16.3253333,77.44 15.6826667,77.5786667 15.112,77.856 C14.5413333,78.1333333 14.096,78.5173333 13.776,79.008 C13.4986667,78.496 13.104,78.1066667 12.592,77.84 C12.08,77.5733333 11.4933333,77.44 10.832,77.44 C10.192,77.44 9.62133333,77.5546667 9.12,77.784 C8.61866667,78.0133333 8.21333333,78.3466667 7.904,78.784 L7.904,78.784 L7.904,77.52 L6.432,77.52 L6.432,86 L7.968,86 Z M26.912,86.096 C27.5093333,86.096 28.0613333,85.976 28.568,85.736 C29.0746667,85.496 29.4826667,85.1573333 29.792,84.72 L29.792,84.72 L29.792,86 L31.248,86 L31.248,77.52 L29.712,77.52 L29.712,81.904 C29.712,82.8 29.4773333,83.4933333 29.008,83.984 C28.5386667,84.4746667 27.8986667,84.72 27.088,84.72 C26.352,84.72 25.7866667,84.5093333 25.392,84.088 C24.9973333,83.6666667 24.8,83.0453333 24.8,82.224 L24.8,82.224 L24.8,77.52 L23.264,77.52 L23.264,82.4 C23.264,83.616 23.5893333,84.536 24.24,85.16 C24.8906667,85.784 25.7813333,86.096 26.912,86.096 Z M35.712,86 L35.712,81.632 C35.712,80.7253333 35.952,80.0293333 36.432,79.544 C36.912,79.0586667 37.568,78.816 38.4,78.816 C39.136,78.816 39.7013333,79.024 40.096,79.44 C40.4906667,79.856 40.688,80.4746667 40.688,81.296 L40.688,81.296 L40.688,86 L42.224,86 L42.224,81.12 C42.224,79.9146667 41.9066667,79 41.272,78.376 C40.6373333,77.752 39.7813333,77.44 38.704,77.44 C38.032,77.44 37.432,77.5573333 36.904,77.792 C36.376,78.0266667 35.9573333,78.3626667 35.648,78.8 L35.648,78.8 L35.648,77.52 L34.176,77.52 L34.176,86 L35.712,86 Z M46.608,86 L46.608,83.68 L48.368,82.048 L51.552,86 L53.44,86 L49.52,81.024 L53.088,77.52 L51.232,77.52 L46.608,81.744 L46.608,74.128 L45.072,74.128 L45.072,86 L46.608,86 Z M57.248,86.096 C57.8986667,86.096 58.4613333,85.992 58.936,85.784 C59.4106667,85.576 59.776,85.2746667 60.032,84.88 L60.032,84.88 L60.032,86 L61.488,86 L61.488,80.88 C61.488,79.7386667 61.176,78.88 60.552,78.304 C59.928,77.728 59.0293333,77.44 57.856,77.44 C57.1733333,77.44 56.528,77.5333333 55.92,77.72 C55.312,77.9066667 54.7893333,78.176 54.352,78.528 L54.352,78.528 L54.992,79.68 C55.3226667,79.4026667 55.728,79.1813333 56.208,79.016 C56.688,78.8506667 57.1786667,78.768 57.68,78.768 C58.4266667,78.768 58.992,78.944 59.376,79.296 C59.76,79.648 59.952,80.1546667 59.952,80.816 L59.952,80.816 L59.952,81.12 L57.52,81.12 C56.336,81.12 55.472,81.3466667 54.928,81.8 C54.384,82.2533333 54.112,82.8533333 54.112,83.6 C54.112,84.3466667 54.3973333,84.9493333 54.968,85.408 C55.5386667,85.8666667 56.2986667,86.096 57.248,86.096 Z M57.504,84.912 C56.9173333,84.912 56.4586667,84.7893333 56.128,84.544 C55.7973333,84.2986667 55.632,83.9626667 55.632,83.536 C55.632,82.6613333 56.2826667,82.224 57.584,82.224 L57.584,82.224 L59.952,82.224 L59.952,83.408 C59.76,83.888 59.4506667,84.2586667 59.024,84.52 C58.5973333,84.7813333 58.0906667,84.912 57.504,84.912 Z M65.872,86 L65.872,81.632 C65.872,80.7253333 66.112,80.0293333 66.592,79.544 C67.072,79.0586667 67.728,78.816 68.56,78.816 C69.296,78.816 69.8613333,79.024 70.256,79.44 C70.6506667,79.856 70.848,80.4746667 70.848,81.296 L70.848,81.296 L70.848,86 L72.384,86 L72.384,81.12 C72.384,79.9146667 72.0666667,79 71.432,78.376 C70.7973333,77.752 69.9413333,77.44 68.864,77.44 C68.224,77.44 67.6453333,77.552 67.128,77.776 C66.6106667,78 66.192,78.3146667 65.872,78.72 L65.872,78.72 L65.872,74.128 L64.336,74.128 L64.336,86 L65.872,86 Z M79.056,86.096 C79.76,86.096 80.3973333,85.9786667 80.968,85.744 C81.5386667,85.5093333 82.016,85.168 82.4,84.72 L82.4,84.72 L81.552,83.728 C80.9333333,84.4106667 80.1173333,84.752 79.104,84.752 C78.272,84.752 77.576,84.5253333 77.016,84.072 C76.456,83.6186667 76.128,83.0186667 76.032,82.272 L76.032,82.272 L82.912,82.272 C82.9333333,82.08 82.944,81.9253333 82.944,81.808 C82.944,80.9546667 82.7653333,80.1973333 82.408,79.536 C82.0506667,78.8746667 81.5546667,78.36 80.92,77.992 C80.2853333,77.624 79.5626667,77.44 78.752,77.44 C77.9413333,77.44 77.2133333,77.624 76.568,77.992 C75.9226667,78.36 75.416,78.8746667 75.048,79.536 C74.68,80.1973333 74.496,80.9386667 74.496,81.76 C74.496,82.592 74.6853333,83.3386667 75.064,84 C75.4426667,84.6613333 75.9786667,85.176 76.672,85.544 C77.3653333,85.912 78.16,86.096 79.056,86.096 Z M81.472,81.168 L76.032,81.168 C76.1173333,80.4426667 76.408,79.856 76.904,79.408 C77.4,78.96 78.016,78.736 78.752,78.736 C79.488,78.736 80.104,78.9626667 80.6,79.416 C81.096,79.8693333 81.3866667,80.4533333 81.472,81.168 L81.472,81.168 Z M86.608,86 L86.608,74.128 L85.072,74.128 L85.072,86 L86.608,86 Z M89.904,89.2 C90.5866667,89.2 91.1706667,89.024 91.656,88.672 C92.1413333,88.32 92.5653333,87.712 92.928,86.848 L92.928,86.848 L97.04,77.52 L95.536,77.52 L92.608,84.304 L89.648,77.52 L88.048,77.52 L91.792,85.984 L91.52,86.576 C91.3173333,87.056 91.0906667,87.3946667 90.84,87.592 C90.5893333,87.7893333 90.2773333,87.888 89.904,87.888 C89.328,87.888 88.8213333,87.68 88.384,87.264 L88.384,87.264 L87.728,88.416 C87.984,88.672 88.3066667,88.8666667 88.696,89 C89.0853333,89.1333333 89.488,89.2 89.904,89.2 Z" id="Munkakörésmunkahely" fill="#323C50" fill-rule="nonzero"></path>
                <circle id="Oval" stroke="#4A589F" stroke-width="1.5" cx="49" cy="18" r="17.25"></circle>
                <circle id="Oval-Copy" fill="#50D7BE" cx="49" cy="18" r="14"></circle>
                <circle id="Oval-Copy-3" fill="#50D7BE" cx="321" cy="18" r="14"></circle>
                <path d="M279.508,62 L279.508,53.888 L283.556,60.64 L284.292,60.64 L288.34,53.84 L288.356,62 L289.892,62 L289.876,50.8 L288.564,50.8 L283.956,58.672 L279.284,50.8 L277.972,50.8 L277.972,62 L279.508,62 Z M296.596,62.096 C297.193333,62.096 297.745333,61.976 298.252,61.736 C298.758667,61.496 299.166667,61.1573333 299.476,60.72 L299.476,60.72 L299.476,62 L300.932,62 L300.932,53.52 L299.396,53.52 L299.396,57.904 C299.396,58.8 299.161333,59.4933333 298.692,59.984 C298.222667,60.4746667 297.582667,60.72 296.772,60.72 C296.036,60.72 295.470667,60.5093333 295.076,60.088 C294.681333,59.6666667 294.484,59.0453333 294.484,58.224 L294.484,58.224 L294.484,53.52 L292.948,53.52 L292.948,58.4 C292.948,59.616 293.273333,60.536 293.924,61.16 C294.574667,61.784 295.465333,62.096 296.596,62.096 Z M305.396,62 L305.396,57.632 C305.396,56.7253333 305.636,56.0293333 306.116,55.544 C306.596,55.0586667 307.252,54.816 308.084,54.816 C308.82,54.816 309.385333,55.024 309.78,55.44 C310.174667,55.856 310.372,56.4746667 310.372,57.296 L310.372,57.296 L310.372,62 L311.908,62 L311.908,57.12 C311.908,55.9146667 311.590667,55 310.956,54.376 C310.321333,53.752 309.465333,53.44 308.388,53.44 C307.716,53.44 307.116,53.5573333 306.588,53.792 C306.06,54.0266667 305.641333,54.3626667 305.332,54.8 L305.332,54.8 L305.332,53.52 L303.86,53.52 L303.86,62 L305.396,62 Z M316.292,62 L316.292,59.68 L318.052,58.048 L321.236,62 L323.124,62 L319.204,57.024 L322.772,53.52 L320.916,53.52 L316.292,57.744 L316.292,50.128 L314.756,50.128 L314.756,62 L316.292,62 Z M326.932,62.096 C327.582667,62.096 328.145333,61.992 328.62,61.784 C329.094667,61.576 329.46,61.2746667 329.716,60.88 L329.716,60.88 L329.716,62 L331.172,62 L331.172,56.88 C331.172,55.7386667 330.86,54.88 330.236,54.304 C329.612,53.728 328.713333,53.44 327.54,53.44 C326.857333,53.44 326.212,53.5333333 325.604,53.72 C324.996,53.9066667 324.473333,54.176 324.036,54.528 L324.036,54.528 L324.676,55.68 C325.006667,55.4026667 325.412,55.1813333 325.892,55.016 C326.372,54.8506667 326.862667,54.768 327.364,54.768 C328.110667,54.768 328.676,54.944 329.06,55.296 C329.444,55.648 329.636,56.1546667 329.636,56.816 L329.636,56.816 L329.636,57.12 L327.204,57.12 C326.02,57.12 325.156,57.3466667 324.612,57.8 C324.068,58.2533333 323.796,58.8533333 323.796,59.6 C323.796,60.3466667 324.081333,60.9493333 324.652,61.408 C325.222667,61.8666667 325.982667,62.096 326.932,62.096 Z M327.188,60.912 C326.601333,60.912 326.142667,60.7893333 325.812,60.544 C325.481333,60.2986667 325.316,59.9626667 325.316,59.536 C325.316,58.6613333 325.966667,58.224 327.268,58.224 L327.268,58.224 L329.636,58.224 L329.636,59.408 C329.444,59.888 329.134667,60.2586667 328.708,60.52 C328.281333,60.7813333 327.774667,60.912 327.188,60.912 Z M335.556,62 L335.556,57.632 C335.556,56.7253333 335.796,56.0293333 336.276,55.544 C336.756,55.0586667 337.412,54.816 338.244,54.816 C338.98,54.816 339.545333,55.024 339.94,55.44 C340.334667,55.856 340.532,56.4746667 340.532,57.296 L340.532,57.296 L340.532,62 L342.068,62 L342.068,57.12 C342.068,55.9146667 341.750667,55 341.116,54.376 C340.481333,53.752 339.625333,53.44 338.548,53.44 C337.908,53.44 337.329333,53.552 336.812,53.776 C336.294667,54 335.876,54.3146667 335.556,54.72 L335.556,54.72 L335.556,50.128 L334.02,50.128 L334.02,62 L335.556,62 Z M348.74,62.096 C349.444,62.096 350.081333,61.9786667 350.652,61.744 C351.222667,61.5093333 351.7,61.168 352.084,60.72 L352.084,60.72 L351.236,59.728 C350.617333,60.4106667 349.801333,60.752 348.788,60.752 C347.956,60.752 347.26,60.5253333 346.7,60.072 C346.14,59.6186667 345.812,59.0186667 345.716,58.272 L345.716,58.272 L352.596,58.272 C352.617333,58.08 352.628,57.9253333 352.628,57.808 C352.628,56.9546667 352.449333,56.1973333 352.092,55.536 C351.734667,54.8746667 351.238667,54.36 350.604,53.992 C349.969333,53.624 349.246667,53.44 348.436,53.44 C347.625333,53.44 346.897333,53.624 346.252,53.992 C345.606667,54.36 345.1,54.8746667 344.732,55.536 C344.364,56.1973333 344.18,56.9386667 344.18,57.76 C344.18,58.592 344.369333,59.3386667 344.748,60 C345.126667,60.6613333 345.662667,61.176 346.356,61.544 C347.049333,61.912 347.844,62.096 348.74,62.096 Z M351.156,57.168 L345.716,57.168 C345.801333,56.4426667 346.092,55.856 346.588,55.408 C347.084,54.96 347.7,54.736 348.436,54.736 C349.172,54.736 349.788,54.9626667 350.284,55.416 C350.78,55.8693333 351.070667,56.4533333 351.156,57.168 L351.156,57.168 Z M356.292,62 L356.292,50.128 L354.756,50.128 L354.756,62 L356.292,62 Z M359.588,65.2 C360.270667,65.2 360.854667,65.024 361.34,64.672 C361.825333,64.32 362.249333,63.712 362.612,62.848 L362.612,62.848 L366.724,53.52 L365.22,53.52 L362.292,60.304 L359.332,53.52 L357.732,53.52 L361.476,61.984 L361.204,62.576 C361.001333,63.056 360.774667,63.3946667 360.524,63.592 C360.273333,63.7893333 359.961333,63.888 359.588,63.888 C359.012,63.888 358.505333,63.68 358.068,63.264 L358.068,63.264 L357.412,64.416 C357.668,64.672 357.990667,64.8666667 358.38,65 C358.769333,65.1333333 359.172,65.2 359.588,65.2 Z M284.612,76.288 L287.3,74.208 L285.348,74.208 L283.172,76.288 L284.612,76.288 Z M284.692,86.096 C285.396,86.096 286.033333,85.9786667 286.604,85.744 C287.174667,85.5093333 287.652,85.168 288.036,84.72 L288.036,84.72 L287.188,83.728 C286.569333,84.4106667 285.753333,84.752 284.74,84.752 C283.908,84.752 283.212,84.5253333 282.652,84.072 C282.092,83.6186667 281.764,83.0186667 281.668,82.272 L281.668,82.272 L288.548,82.272 C288.569333,82.08 288.58,81.9253333 288.58,81.808 C288.58,80.9546667 288.401333,80.1973333 288.044,79.536 C287.686667,78.8746667 287.190667,78.36 286.556,77.992 C285.921333,77.624 285.198667,77.44 284.388,77.44 C283.577333,77.44 282.849333,77.624 282.204,77.992 C281.558667,78.36 281.052,78.8746667 280.684,79.536 C280.316,80.1973333 280.132,80.9386667 280.132,81.76 C280.132,82.592 280.321333,83.3386667 280.7,84 C281.078667,84.6613333 281.614667,85.176 282.308,85.544 C283.001333,85.912 283.796,86.096 284.692,86.096 Z M287.108,81.168 L281.668,81.168 C281.753333,80.4426667 282.044,79.856 282.54,79.408 C283.036,78.96 283.652,78.736 284.388,78.736 C285.124,78.736 285.74,78.9626667 286.236,79.416 C286.732,79.8693333 287.022667,80.4533333 287.108,81.168 L287.108,81.168 Z M292.244,86 L292.244,81.776 C292.244,80.8586667 292.481333,80.152 292.956,79.656 C293.430667,79.16 294.084,78.912 294.916,78.912 C295.065333,78.912 295.182667,78.9173333 295.268,78.928 L295.268,78.928 L295.268,77.44 C294.521333,77.44 293.886667,77.568 293.364,77.824 C292.841333,78.08 292.446667,78.4533333 292.18,78.944 L292.18,78.944 L292.18,77.52 L290.708,77.52 L290.708,86 L292.244,86 Z M300.42,86.096 C300.772,86.096 301.113333,86.0453333 301.444,85.944 C301.774667,85.8426667 302.052,85.696 302.276,85.504 L302.276,85.504 L301.796,84.4 C301.465333,84.6666667 301.065333,84.8 300.596,84.8 C300.169333,84.8 299.841333,84.6773333 299.612,84.432 C299.382667,84.1866667 299.268,83.8346667 299.268,83.376 L299.268,83.376 L299.268,78.784 L301.7,78.784 L301.7,77.52 L299.268,77.52 L299.268,75.664 L297.732,75.664 L297.732,77.52 L296.292,77.52 L296.292,78.784 L297.732,78.784 L297.732,83.44 C297.732,84.2933333 297.966667,84.9493333 298.436,85.408 C298.905333,85.8666667 299.566667,86.096 300.42,86.096 Z M307.54,76.288 L310.228,74.208 L308.276,74.208 L306.1,76.288 L307.54,76.288 Z M307.62,86.096 C308.324,86.096 308.961333,85.9786667 309.532,85.744 C310.102667,85.5093333 310.58,85.168 310.964,84.72 L310.964,84.72 L310.116,83.728 C309.497333,84.4106667 308.681333,84.752 307.668,84.752 C306.836,84.752 306.14,84.5253333 305.58,84.072 C305.02,83.6186667 304.692,83.0186667 304.596,82.272 L304.596,82.272 L311.476,82.272 C311.497333,82.08 311.508,81.9253333 311.508,81.808 C311.508,80.9546667 311.329333,80.1973333 310.972,79.536 C310.614667,78.8746667 310.118667,78.36 309.484,77.992 C308.849333,77.624 308.126667,77.44 307.316,77.44 C306.505333,77.44 305.777333,77.624 305.132,77.992 C304.486667,78.36 303.98,78.8746667 303.612,79.536 C303.244,80.1973333 303.06,80.9386667 303.06,81.76 C303.06,82.592 303.249333,83.3386667 303.628,84 C304.006667,84.6613333 304.542667,85.176 305.236,85.544 C305.929333,85.912 306.724,86.096 307.62,86.096 Z M310.036,81.168 L304.596,81.168 C304.681333,80.4426667 304.972,79.856 305.468,79.408 C305.964,78.96 306.58,78.736 307.316,78.736 C308.052,78.736 308.668,78.9626667 309.164,79.416 C309.66,79.8693333 309.950667,80.4533333 310.036,81.168 L310.036,81.168 Z M315.172,86 L315.172,83.68 L316.932,82.048 L320.116,86 L322.004,86 L318.084,81.024 L321.652,77.52 L319.796,77.52 L315.172,81.744 L315.172,74.128 L313.636,74.128 L313.636,86 L315.172,86 Z M326.916,86.096 C327.62,86.096 328.257333,85.9786667 328.828,85.744 C329.398667,85.5093333 329.876,85.168 330.26,84.72 L330.26,84.72 L329.412,83.728 C328.793333,84.4106667 327.977333,84.752 326.964,84.752 C326.132,84.752 325.436,84.5253333 324.876,84.072 C324.316,83.6186667 323.988,83.0186667 323.892,82.272 L323.892,82.272 L330.772,82.272 C330.793333,82.08 330.804,81.9253333 330.804,81.808 C330.804,80.9546667 330.625333,80.1973333 330.268,79.536 C329.910667,78.8746667 329.414667,78.36 328.78,77.992 C328.145333,77.624 327.422667,77.44 326.612,77.44 C325.801333,77.44 325.073333,77.624 324.428,77.992 C323.782667,78.36 323.276,78.8746667 322.908,79.536 C322.54,80.1973333 322.356,80.9386667 322.356,81.76 C322.356,82.592 322.545333,83.3386667 322.924,84 C323.302667,84.6613333 323.838667,85.176 324.532,85.544 C325.225333,85.912 326.02,86.096 326.916,86.096 Z M329.332,81.168 L323.892,81.168 C323.977333,80.4426667 324.268,79.856 324.764,79.408 C325.26,78.96 325.876,78.736 326.612,78.736 C327.348,78.736 327.964,78.9626667 328.46,79.416 C328.956,79.8693333 329.246667,80.4533333 329.332,81.168 L329.332,81.168 Z M334.468,86 L334.468,74.128 L332.932,74.128 L332.932,86 L334.468,86 Z M341.092,76.288 L343.78,74.208 L341.828,74.208 L339.652,76.288 L341.092,76.288 Z M341.172,86.096 C341.876,86.096 342.513333,85.9786667 343.084,85.744 C343.654667,85.5093333 344.132,85.168 344.516,84.72 L344.516,84.72 L343.668,83.728 C343.049333,84.4106667 342.233333,84.752 341.22,84.752 C340.388,84.752 339.692,84.5253333 339.132,84.072 C338.572,83.6186667 338.244,83.0186667 338.148,82.272 L338.148,82.272 L345.028,82.272 C345.049333,82.08 345.06,81.9253333 345.06,81.808 C345.06,80.9546667 344.881333,80.1973333 344.524,79.536 C344.166667,78.8746667 343.670667,78.36 343.036,77.992 C342.401333,77.624 341.678667,77.44 340.868,77.44 C340.057333,77.44 339.329333,77.624 338.684,77.992 C338.038667,78.36 337.532,78.8746667 337.164,79.536 C336.796,80.1973333 336.612,80.9386667 336.612,81.76 C336.612,82.592 336.801333,83.3386667 337.18,84 C337.558667,84.6613333 338.094667,85.176 338.788,85.544 C339.481333,85.912 340.276,86.096 341.172,86.096 Z M343.588,81.168 L338.148,81.168 C338.233333,80.4426667 338.524,79.856 339.02,79.408 C339.516,78.96 340.132,78.736 340.868,78.736 C341.604,78.736 342.22,78.9626667 342.716,79.416 C343.212,79.8693333 343.502667,80.4533333 343.588,81.168 L343.588,81.168 Z M349.62,86.096 C350.750667,86.096 351.644,85.8693333 352.3,85.416 C352.956,84.9626667 353.284,84.352 353.284,83.584 C353.284,83.008 353.134667,82.56 352.836,82.24 C352.537333,81.92 352.177333,81.6933333 351.756,81.56 C351.334667,81.4266667 350.782667,81.3013333 350.1,81.184 C349.588,81.088 349.190667,81.0026667 348.908,80.928 C348.625333,80.8533333 348.388,80.736 348.196,80.576 C348.004,80.416 347.908,80.1973333 347.908,79.92 C347.908,79.568 348.078667,79.2853333 348.42,79.072 C348.761333,78.8586667 349.257333,78.752 349.908,78.752 C350.846667,78.752 351.662667,78.976 352.356,79.424 L352.356,79.424 L353.012,78.208 C352.649333,77.9733333 352.185333,77.7866667 351.62,77.648 C351.054667,77.5093333 350.489333,77.44 349.924,77.44 C348.846667,77.44 347.988,77.672 347.348,78.136 C346.708,78.6 346.388,79.216 346.388,79.984 C346.388,80.5813333 346.542667,81.0453333 346.852,81.376 C347.161333,81.7066667 347.532,81.9413333 347.964,82.08 C348.396,82.2186667 348.953333,82.3413333 349.636,82.448 C350.137333,82.5333333 350.524,82.6106667 350.796,82.68 C351.068,82.7493333 351.294667,82.8586667 351.476,83.008 C351.657333,83.1573333 351.748,83.36 351.748,83.616 C351.748,84.384 351.076,84.768 349.732,84.768 C349.188,84.768 348.649333,84.688 348.116,84.528 C347.582667,84.368 347.129333,84.1546667 346.756,83.888 L346.756,83.888 L346.116,85.104 C346.478667,85.392 346.98,85.6293333 347.62,85.816 C348.26,86.0026667 348.926667,86.096 349.62,86.096 Z M358.98,86.096 C359.684,86.096 360.321333,85.9786667 360.892,85.744 C361.462667,85.5093333 361.94,85.168 362.324,84.72 L362.324,84.72 L361.476,83.728 C360.857333,84.4106667 360.041333,84.752 359.028,84.752 C358.196,84.752 357.5,84.5253333 356.94,84.072 C356.38,83.6186667 356.052,83.0186667 355.956,82.272 L355.956,82.272 L362.836,82.272 C362.857333,82.08 362.868,81.9253333 362.868,81.808 C362.868,80.9546667 362.689333,80.1973333 362.332,79.536 C361.974667,78.8746667 361.478667,78.36 360.844,77.992 C360.209333,77.624 359.486667,77.44 358.676,77.44 C357.865333,77.44 357.137333,77.624 356.492,77.992 C355.846667,78.36 355.34,78.8746667 354.972,79.536 C354.604,80.1973333 354.42,80.9386667 354.42,81.76 C354.42,82.592 354.609333,83.3386667 354.988,84 C355.366667,84.6613333 355.902667,85.176 356.596,85.544 C357.289333,85.912 358.084,86.096 358.98,86.096 Z M361.396,81.168 L355.956,81.168 C356.041333,80.4426667 356.332,79.856 356.828,79.408 C357.324,78.96 357.94,78.736 358.676,78.736 C359.412,78.736 360.028,78.9626667 360.524,79.416 C361.02,79.8693333 361.310667,80.4533333 361.396,81.168 L361.396,81.168 Z" id="Munkahelyértékelése" fill="#323C50" fill-rule="nonzero"></path>
                <path d="M536.24,62 L536.24,55.424 L539.52,60.816 L540.688,60.816 L543.984,55.28 L544,62 L546.432,62 L546.4,50.8 L544.272,50.8 L540.144,57.76 L535.952,50.8 L533.808,50.8 L533.808,62 L536.24,62 Z M552.544,62.128 C553.077333,62.128 553.573333,62.0293333 554.032,61.832 C554.490667,61.6346667 554.885333,61.3493333 555.216,60.976 L555.216,60.976 L555.216,62 L557.584,62 L557.584,53.392 L555.088,53.392 L555.088,57.648 C555.088,58.416 554.906667,58.9946667 554.544,59.384 C554.181333,59.7733333 553.701333,59.968 553.104,59.968 C551.941333,59.968 551.36,59.2746667 551.36,57.888 L551.36,57.888 L551.36,53.392 L548.864,53.392 L548.864,58.256 C548.864,59.536 549.194667,60.5013333 549.856,61.152 C550.517333,61.8026667 551.413333,62.128 552.544,62.128 Z M562.4,62 L562.4,57.744 C562.4,56.976 562.586667,56.3973333 562.96,56.008 C563.333333,55.6186667 563.834667,55.424 564.464,55.424 C565.029333,55.424 565.461333,55.592 565.76,55.928 C566.058667,56.264 566.208,56.7733333 566.208,57.456 L566.208,57.456 L566.208,62 L568.704,62 L568.704,57.072 C568.704,55.8133333 568.376,54.864 567.72,54.224 C567.064,53.584 566.202667,53.264 565.136,53.264 C564.549333,53.264 564.010667,53.3626667 563.52,53.56 C563.029333,53.7573333 562.618667,54.0373333 562.288,54.4 L562.288,54.4 L562.288,53.392 L559.904,53.392 L559.904,62 L562.4,62 Z M573.456,62 L573.456,59.808 L574.656,58.624 L577.376,62 L580.4,62 L576.496,57.04 L580.08,53.392 L577.104,53.392 L573.456,56.848 L573.456,50.128 L570.96,50.128 L570.96,62 L573.456,62 Z M584.016,62.128 C585.296,62.128 586.170667,61.728 586.64,60.928 L586.64,60.928 L586.64,62 L588.976,62 L588.976,57.088 C588.976,55.808 588.618667,54.8506667 587.904,54.216 C587.189333,53.5813333 586.165333,53.264 584.832,53.264 C584.138667,53.264 583.464,53.3546667 582.808,53.536 C582.152,53.7173333 581.589333,53.9733333 581.12,54.304 L581.12,54.304 L582.016,56.048 C582.325333,55.8026667 582.701333,55.608 583.144,55.464 C583.586667,55.32 584.037333,55.248 584.496,55.248 C585.157333,55.248 585.653333,55.3946667 585.984,55.688 C586.314667,55.9813333 586.48,56.4 586.48,56.944 L586.48,56.944 L584.496,56.944 C583.237333,56.944 582.306667,57.1733333 581.704,57.632 C581.101333,58.0906667 580.8,58.72 580.8,59.52 C580.8,60.0213333 580.928,60.4693333 581.184,60.864 C581.44,61.2586667 581.810667,61.568 582.296,61.792 C582.781333,62.016 583.354667,62.128 584.016,62.128 Z M584.64,60.448 C584.202667,60.448 583.858667,60.3546667 583.608,60.168 C583.357333,59.9813333 583.232,59.728 583.232,59.408 C583.232,58.736 583.744,58.4 584.768,58.4 L584.768,58.4 L586.48,58.4 L586.48,59.28 C586.341333,59.664 586.106667,59.9546667 585.776,60.152 C585.445333,60.3493333 585.066667,60.448 584.64,60.448 Z M593.728,62 L593.728,59.808 L594.928,58.624 L597.648,62 L600.672,62 L596.768,57.04 L600.352,53.392 L597.376,53.392 L593.728,56.848 L593.728,50.128 L591.232,50.128 L591.232,62 L593.728,62 Z M605.264,62.128 C605.797333,62.128 606.293333,62.0293333 606.752,61.832 C607.210667,61.6346667 607.605333,61.3493333 607.936,60.976 L607.936,60.976 L607.936,62 L610.304,62 L610.304,53.392 L607.808,53.392 L607.808,57.648 C607.808,58.416 607.626667,58.9946667 607.264,59.384 C606.901333,59.7733333 606.421333,59.968 605.824,59.968 C604.661333,59.968 604.08,59.2746667 604.08,57.888 L604.08,57.888 L604.08,53.392 L601.584,53.392 L601.584,58.256 C601.584,59.536 601.914667,60.5013333 602.576,61.152 C603.237333,61.8026667 604.133333,62.128 605.264,62.128 Z M615.12,62 L615.12,50.128 L612.624,50.128 L612.624,62 L615.12,62 Z M621.584,62.128 C621.978667,62.128 622.354667,62.0826667 622.712,61.992 C623.069333,61.9013333 623.370667,61.7653333 623.616,61.584 L623.616,61.584 L622.944,59.824 C622.666667,60.0373333 622.330667,60.144 621.936,60.144 C621.594667,60.144 621.330667,60.0453333 621.144,59.848 C620.957333,59.6506667 620.864,59.3706667 620.864,59.008 L620.864,59.008 L620.864,55.504 L623.008,55.504 L623.008,53.584 L620.864,53.584 L620.864,51.488 L618.368,51.488 L618.368,53.584 L617.04,53.584 L617.04,55.504 L618.368,55.504 L618.368,59.04 C618.368,60.0533333 618.648,60.8213333 619.208,61.344 C619.768,61.8666667 620.56,62.128 621.584,62.128 Z M629.824,52.288 L632.72,49.984 L630.032,49.984 L627.872,52.288 L629.824,52.288 Z M628.656,62.128 C629.189333,62.128 629.685333,62.0293333 630.144,61.832 C630.602667,61.6346667 630.997333,61.3493333 631.328,60.976 L631.328,60.976 L631.328,62 L633.696,62 L633.696,53.392 L631.2,53.392 L631.2,57.648 C631.2,58.416 631.018667,58.9946667 630.656,59.384 C630.293333,59.7733333 629.813333,59.968 629.216,59.968 C628.053333,59.968 627.472,59.2746667 627.472,57.888 L627.472,57.888 L627.472,53.392 L624.976,53.392 L624.976,58.256 C624.976,59.536 625.306667,60.5013333 625.968,61.152 C626.629333,61.8026667 627.525333,62.128 628.656,62.128 Z M638.512,62 L638.512,57.936 C638.512,57.136 638.714667,56.536 639.12,56.136 C639.525333,55.736 640.085333,55.536 640.8,55.536 C640.896,55.536 641.082667,55.5466667 641.36,55.568 L641.36,55.568 L641.36,53.264 C640.698667,53.264 640.114667,53.3706667 639.608,53.584 C639.101333,53.7973333 638.698667,54.112 638.4,54.528 L638.4,54.528 L638.4,53.392 L636.016,53.392 L636.016,62 L638.512,62 Z M645.456,62.128 C646.736,62.128 647.610667,61.728 648.08,60.928 L648.08,60.928 L648.08,62 L650.416,62 L650.416,57.088 C650.416,55.808 650.058667,54.8506667 649.344,54.216 C648.629333,53.5813333 647.605333,53.264 646.272,53.264 C645.578667,53.264 644.904,53.3546667 644.248,53.536 C643.592,53.7173333 643.029333,53.9733333 642.56,54.304 L642.56,54.304 L643.456,56.048 C643.765333,55.8026667 644.141333,55.608 644.584,55.464 C645.026667,55.32 645.477333,55.248 645.936,55.248 C646.597333,55.248 647.093333,55.3946667 647.424,55.688 C647.754667,55.9813333 647.92,56.4 647.92,56.944 L647.92,56.944 L645.936,56.944 C644.677333,56.944 643.746667,57.1733333 643.144,57.632 C642.541333,58.0906667 642.24,58.72 642.24,59.52 C642.24,60.0213333 642.368,60.4693333 642.624,60.864 C642.88,61.2586667 643.250667,61.568 643.736,61.792 C644.221333,62.016 644.794667,62.128 645.456,62.128 Z M646.08,60.448 C645.642667,60.448 645.298667,60.3546667 645.048,60.168 C644.797333,59.9813333 644.672,59.728 644.672,59.408 C644.672,58.736 645.184,58.4 646.208,58.4 L646.208,58.4 L647.92,58.4 L647.92,59.28 C647.781333,59.664 647.546667,59.9546667 647.216,60.152 C646.885333,60.3493333 646.506667,60.448 646.08,60.448 Z M552.664,76.288 L555.56,73.984 L552.872,73.984 L550.712,76.288 L552.664,76.288 Z M552.536,86.128 C554.093333,86.128 555.277333,85.664 556.088,84.736 L556.088,84.736 L554.76,83.296 C554.461333,83.584 554.138667,83.7946667 553.792,83.928 C553.445333,84.0613333 553.048,84.128 552.6,84.128 C551.949333,84.128 551.405333,83.9733333 550.968,83.664 C550.530667,83.3546667 550.253333,82.9333333 550.136,82.4 L550.136,82.4 L556.648,82.4 C556.68,81.984 556.696,81.76 556.696,81.728 C556.696,80.832 556.501333,80.0453333 556.112,79.368 C555.722667,78.6906667 555.186667,78.1706667 554.504,77.808 C553.821333,77.4453333 553.058667,77.264 552.216,77.264 C551.352,77.264 550.570667,77.4533333 549.872,77.832 C549.173333,78.2106667 548.624,78.7386667 548.224,79.416 C547.824,80.0933333 547.624,80.8533333 547.624,81.696 C547.624,82.5493333 547.826667,83.312 548.232,83.984 C548.637333,84.656 549.213333,85.1813333 549.96,85.56 C550.706667,85.9386667 551.565333,86.128 552.536,86.128 Z M554.344,80.944 L550.104,80.944 C550.189333,80.3893333 550.424,79.952 550.808,79.632 C551.192,79.312 551.666667,79.152 552.232,79.152 C552.786667,79.152 553.256,79.3146667 553.64,79.64 C554.024,79.9653333 554.258667,80.4 554.344,80.944 L554.344,80.944 Z M561.256,86.128 C562.098667,86.128 562.826667,86.0133333 563.44,85.784 C564.053333,85.5546667 564.52,85.232 564.84,84.816 C565.16,84.4 565.32,83.9253333 565.32,83.392 C565.32,82.7626667 565.154667,82.272 564.824,81.92 C564.493333,81.568 564.104,81.3253333 563.656,81.192 C563.208,81.0586667 562.632,80.9333333 561.928,80.816 C561.298667,80.72 560.84,80.6186667 560.552,80.512 C560.264,80.4053333 560.12,80.2186667 560.12,79.952 C560.12,79.7173333 560.253333,79.5253333 560.52,79.376 C560.786667,79.2266667 561.186667,79.152 561.72,79.152 C562.616,79.152 563.442667,79.3653333 564.2,79.792 L564.2,79.792 L565.032,78.016 C564.637333,77.7813333 564.138667,77.5973333 563.536,77.464 C562.933333,77.3306667 562.328,77.264 561.72,77.264 C560.898667,77.264 560.186667,77.3813333 559.584,77.616 C558.981333,77.8506667 558.522667,78.1786667 558.208,78.6 C557.893333,79.0213333 557.736,79.504 557.736,80.048 C557.736,80.6986667 557.904,81.2 558.24,81.552 C558.576,81.904 558.973333,82.1493333 559.432,82.288 C559.890667,82.4266667 560.472,82.5493333 561.176,82.656 C561.773333,82.7306667 562.216,82.8213333 562.504,82.928 C562.792,83.0346667 562.936,83.2106667 562.936,83.456 C562.936,83.9786667 562.408,84.24 561.352,84.24 C560.829333,84.24 560.296,84.1626667 559.752,84.008 C559.208,83.8533333 558.744,83.6533333 558.36,83.408 L558.36,83.408 L557.528,85.2 C557.933333,85.4666667 558.477333,85.688 559.16,85.864 C559.842667,86.04 560.541333,86.128 561.256,86.128 Z M575.656,86.128 C577.213333,86.128 578.397333,85.664 579.208,84.736 L579.208,84.736 L577.88,83.296 C577.581333,83.584 577.258667,83.7946667 576.912,83.928 C576.565333,84.0613333 576.168,84.128 575.72,84.128 C575.069333,84.128 574.525333,83.9733333 574.088,83.664 C573.650667,83.3546667 573.373333,82.9333333 573.256,82.4 L573.256,82.4 L579.768,82.4 C579.8,81.984 579.816,81.76 579.816,81.728 C579.816,80.832 579.621333,80.0453333 579.232,79.368 C578.842667,78.6906667 578.306667,78.1706667 577.624,77.808 C576.941333,77.4453333 576.178667,77.264 575.336,77.264 C574.472,77.264 573.690667,77.4533333 572.992,77.832 C572.293333,78.2106667 571.744,78.7386667 571.344,79.416 C570.944,80.0933333 570.744,80.8533333 570.744,81.696 C570.744,82.5493333 570.946667,83.312 571.352,83.984 C571.757333,84.656 572.333333,85.1813333 573.08,85.56 C573.826667,85.9386667 574.685333,86.128 575.656,86.128 Z M577.464,80.944 L573.224,80.944 C573.309333,80.3893333 573.544,79.952 573.928,79.632 C574.312,79.312 574.786667,79.152 575.352,79.152 C575.906667,79.152 576.376,79.3146667 576.76,79.64 C577.144,79.9653333 577.378667,80.4 577.464,80.944 L577.464,80.944 Z M583.976,86 L583.976,74.128 L581.48,74.128 L581.48,86 L583.976,86 Z M589.656,76.288 L591.32,73.984 L588.984,73.984 L587.832,76.288 L589.656,76.288 Z M592.888,76.288 L594.552,73.984 L592.216,73.984 L591.064,76.288 L592.888,76.288 Z M590.392,86.128 C591.298667,86.128 592.109333,85.9386667 592.824,85.56 C593.538667,85.1813333 594.098667,84.656 594.504,83.984 C594.909333,83.312 595.112,82.5493333 595.112,81.696 C595.112,80.8426667 594.909333,80.08 594.504,79.408 C594.098667,78.736 593.538667,78.2106667 592.824,77.832 C592.109333,77.4533333 591.298667,77.264 590.392,77.264 C589.485333,77.264 588.672,77.4533333 587.952,77.832 C587.232,78.2106667 586.669333,78.736 586.264,79.408 C585.858667,80.08 585.656,80.8426667 585.656,81.696 C585.656,82.5493333 585.858667,83.312 586.264,83.984 C586.669333,84.656 587.232,85.1813333 587.952,85.56 C588.672,85.9386667 589.485333,86.128 590.392,86.128 Z M590.392,84.08 C589.752,84.08 589.224,83.864 588.808,83.432 C588.392,83 588.184,82.4213333 588.184,81.696 C588.184,80.9706667 588.392,80.392 588.808,79.96 C589.224,79.528 589.752,79.312 590.392,79.312 C591.032,79.312 591.557333,79.528 591.968,79.96 C592.378667,80.392 592.584,80.9706667 592.584,81.696 C592.584,82.4213333 592.378667,83 591.968,83.432 C591.557333,83.864 591.032,84.08 590.392,84.08 Z M599.272,86 L599.272,81.744 C599.272,80.976 599.458667,80.3973333 599.832,80.008 C600.205333,79.6186667 600.706667,79.424 601.336,79.424 C601.901333,79.424 602.333333,79.592 602.632,79.928 C602.930667,80.264 603.08,80.7733333 603.08,81.456 L603.08,81.456 L603.08,86 L605.576,86 L605.576,81.072 C605.576,79.8133333 605.248,78.864 604.592,78.224 C603.936,77.584 603.074667,77.264 602.008,77.264 C601.421333,77.264 600.882667,77.3626667 600.392,77.56 C599.901333,77.7573333 599.490667,78.0373333 599.16,78.4 L599.16,78.4 L599.16,77.392 L596.776,77.392 L596.776,86 L599.272,86 Z M608.76,89.232 C609.581333,89.232 610.282667,89.0293333 610.864,88.624 C611.445333,88.2186667 611.933333,87.52 612.328,86.528 L612.328,86.528 L616.216,77.392 L613.816,77.392 L611.384,83.232 L608.968,77.392 L606.392,77.392 L610.12,86.064 L610.088,86.144 C609.917333,86.528 609.725333,86.8026667 609.512,86.968 C609.298667,87.1333333 609.021333,87.216 608.68,87.216 C608.434667,87.216 608.186667,87.168 607.936,87.072 C607.685333,86.976 607.464,86.8426667 607.272,86.672 L607.272,86.672 L606.36,88.448 C606.637333,88.6933333 606.994667,88.8853333 607.432,89.024 C607.869333,89.1626667 608.312,89.232 608.76,89.232 Z M619.448,76.208 C619.768,76.208 620.032,76.104 620.24,75.896 C620.448,75.688 620.552,75.424 620.552,75.104 C620.552,74.784 620.448,74.52 620.24,74.312 C620.032,74.104 619.768,74 619.448,74 C619.128,74 618.861333,74.104 618.648,74.312 C618.434667,74.52 618.328,74.784 618.328,75.104 C618.328,75.424 618.434667,75.688 618.648,75.896 C618.861333,76.104 619.128,76.208 619.448,76.208 Z M622.68,76.208 C623,76.208 623.266667,76.104 623.48,75.896 C623.693333,75.688 623.8,75.424 623.8,75.104 C623.8,74.784 623.693333,74.52 623.48,74.312 C623.266667,74.104 623,74 622.68,74 C622.36,74 622.096,74.104 621.888,74.312 C621.68,74.52 621.576,74.784 621.576,75.104 C621.576,75.424 621.68,75.688 621.888,75.896 C622.096,76.104 622.36,76.208 622.68,76.208 Z M621.096,86.128 C622.002667,86.128 622.813333,85.9386667 623.528,85.56 C624.242667,85.1813333 624.802667,84.656 625.208,83.984 C625.613333,83.312 625.816,82.5493333 625.816,81.696 C625.816,80.8426667 625.613333,80.08 625.208,79.408 C624.802667,78.736 624.242667,78.2106667 623.528,77.832 C622.813333,77.4533333 622.002667,77.264 621.096,77.264 C620.189333,77.264 619.376,77.4533333 618.656,77.832 C617.936,78.2106667 617.373333,78.736 616.968,79.408 C616.562667,80.08 616.36,80.8426667 616.36,81.696 C616.36,82.5493333 616.562667,83.312 616.968,83.984 C617.373333,84.656 617.936,85.1813333 618.656,85.56 C619.376,85.9386667 620.189333,86.128 621.096,86.128 Z M621.096,84.08 C620.456,84.08 619.928,83.864 619.512,83.432 C619.096,83 618.888,82.4213333 618.888,81.696 C618.888,80.9706667 619.096,80.392 619.512,79.96 C619.928,79.528 620.456,79.312 621.096,79.312 C621.736,79.312 622.261333,79.528 622.672,79.96 C623.082667,80.392 623.288,80.9706667 623.288,81.696 C623.288,82.4213333 623.082667,83 622.672,83.432 C622.261333,83.864 621.736,84.08 621.096,84.08 Z M629.976,86 L629.976,83.808 L631.176,82.624 L633.896,86 L636.92,86 L633.016,81.04 L636.6,77.392 L633.624,77.392 L629.976,80.848 L629.976,74.128 L627.48,74.128 L627.48,86 L629.976,86 Z" id="Munkakultúraéselőnyök" fill="#323C50" fill-rule="nonzero"></path>
                <circle id="Oval-Copy-4" stroke="#848A96" stroke-width="1.5" cx="865" cy="18" r="17.25"></circle>
                <path d="M832.24,62.128 C833.189333,62.128 833.989333,61.9866667 834.64,61.704 C835.290667,61.4213333 835.776,61.0373333 836.096,60.552 C836.416,60.0666667 836.576,59.5306667 836.576,58.944 C836.576,58.24 836.392,57.68 836.024,57.264 C835.656,56.848 835.216,56.5386667 834.704,56.336 C834.192,56.1333333 833.514667,55.9306667 832.672,55.728 C832.021333,55.5786667 831.506667,55.4373333 831.128,55.304 C830.749333,55.1706667 830.432,54.984 830.176,54.744 C829.92,54.504 829.792,54.192 829.792,53.808 C829.792,53.2853333 830.018667,52.8586667 830.472,52.528 C830.925333,52.1973333 831.605333,52.032 832.512,52.032 C833.024,52.032 833.546667,52.1093333 834.08,52.264 C834.613333,52.4186667 835.114667,52.6453333 835.584,52.944 L835.584,52.944 L836.112,51.664 C835.653333,51.344 835.104,51.0986667 834.464,50.928 C833.824,50.7573333 833.173333,50.672 832.512,50.672 C831.562667,50.672 830.768,50.816 830.128,51.104 C829.488,51.392 829.010667,51.776 828.696,52.256 C828.381333,52.736 828.224,53.2746667 828.224,53.872 C828.224,54.5866667 828.408,55.1546667 828.776,55.576 C829.144,55.9973333 829.586667,56.3093333 830.104,56.512 C830.621333,56.7146667 831.301333,56.9173333 832.144,57.12 C832.816,57.28 833.336,57.424 833.704,57.552 C834.072,57.68 834.381333,57.864 834.632,58.104 C834.882667,58.344 835.008,58.656 835.008,59.04 C835.008,59.5626667 834.778667,59.9813333 834.32,60.296 C833.861333,60.6106667 833.168,60.768 832.24,60.768 C831.536,60.768 830.850667,60.648 830.184,60.408 C829.517333,60.168 828.970667,59.856 828.544,59.472 L828.544,59.472 L827.952,60.72 C828.4,61.136 829.016,61.4746667 829.8,61.736 C830.584,61.9973333 831.397333,62.128 832.24,62.128 Z M844.976,62 L844.976,60.736 L839.84,60.736 L844.848,54.528 L844.848,53.52 L837.968,53.52 L837.968,54.784 L842.88,54.784 L837.872,61.008 L837.872,62 L844.976,62 Z M849.024,52.016 C849.248,52.016 849.44,51.9386667 849.6,51.784 C849.76,51.6293333 849.84,51.4346667 849.84,51.2 C849.84,50.9653333 849.76,50.768 849.6,50.608 C849.44,50.448 849.248,50.368 849.024,50.368 C848.8,50.368 848.608,50.448 848.448,50.608 C848.288,50.768 848.208,50.9653333 848.208,51.2 C848.208,51.4346667 848.288,51.6293333 848.448,51.784 C848.608,51.9386667 848.8,52.016 849.024,52.016 Z M852,52.016 C852.224,52.016 852.416,51.9386667 852.576,51.784 C852.736,51.6293333 852.816,51.4346667 852.816,51.2 C852.816,50.9653333 852.736,50.768 852.576,50.608 C852.416,50.448 852.224,50.368 852,50.368 C851.776,50.368 851.584,50.448 851.424,50.608 C851.264,50.768 851.184,50.9653333 851.184,51.2 C851.184,51.4346667 851.264,51.6293333 851.424,51.784 C851.584,51.9386667 851.776,52.016 852,52.016 Z M850.528,62.096 C851.370667,62.096 852.125333,61.9093333 852.792,61.536 C853.458667,61.1626667 853.981333,60.648 854.36,59.992 C854.738667,59.336 854.928,58.592 854.928,57.76 C854.928,56.928 854.738667,56.184 854.36,55.528 C853.981333,54.872 853.458667,54.36 852.792,53.992 C852.125333,53.624 851.370667,53.44 850.528,53.44 C849.685333,53.44 848.928,53.624 848.256,53.992 C847.584,54.36 847.058667,54.872 846.68,55.528 C846.301333,56.184 846.112,56.928 846.112,57.76 C846.112,58.592 846.301333,59.336 846.68,59.992 C847.058667,60.648 847.584,61.1626667 848.256,61.536 C848.928,61.9093333 849.685333,62.096 850.528,62.096 Z M850.528,60.752 C849.984,60.752 849.496,60.6266667 849.064,60.376 C848.632,60.1253333 848.290667,59.7733333 848.04,59.32 C847.789333,58.8666667 847.664,58.3466667 847.664,57.76 C847.664,57.1733333 847.789333,56.6533333 848.04,56.2 C848.290667,55.7466667 848.632,55.3973333 849.064,55.152 C849.496,54.9066667 849.984,54.784 850.528,54.784 C851.072,54.784 851.56,54.9066667 851.992,55.152 C852.424,55.3973333 852.762667,55.7466667 853.008,56.2 C853.253333,56.6533333 853.376,57.1733333 853.376,57.76 C853.376,58.3466667 853.253333,58.8666667 853.008,59.32 C852.762667,59.7733333 852.424,60.1253333 851.992,60.376 C851.56,60.6266667 851.072,60.752 850.528,60.752 Z M860.608,62 L864.32,53.52 L862.816,53.52 L859.84,60.32 L856.928,53.52 L855.328,53.52 L859.04,62 L860.608,62 Z M869.296,62.096 C870,62.096 870.637333,61.9786667 871.208,61.744 C871.778667,61.5093333 872.256,61.168 872.64,60.72 L872.64,60.72 L871.792,59.728 C871.173333,60.4106667 870.357333,60.752 869.344,60.752 C868.512,60.752 867.816,60.5253333 867.256,60.072 C866.696,59.6186667 866.368,59.0186667 866.272,58.272 L866.272,58.272 L873.152,58.272 C873.173333,58.08 873.184,57.9253333 873.184,57.808 C873.184,56.9546667 873.005333,56.1973333 872.648,55.536 C872.290667,54.8746667 871.794667,54.36 871.16,53.992 C870.525333,53.624 869.802667,53.44 868.992,53.44 C868.181333,53.44 867.453333,53.624 866.808,53.992 C866.162667,54.36 865.656,54.8746667 865.288,55.536 C864.92,56.1973333 864.736,56.9386667 864.736,57.76 C864.736,58.592 864.925333,59.3386667 865.304,60 C865.682667,60.6613333 866.218667,61.176 866.912,61.544 C867.605333,61.912 868.4,62.096 869.296,62.096 Z M871.712,57.168 L866.272,57.168 C866.357333,56.4426667 866.648,55.856 867.144,55.408 C867.64,54.96 868.256,54.736 868.992,54.736 C869.728,54.736 870.344,54.9626667 870.84,55.416 C871.336,55.8693333 871.626667,56.4533333 871.712,57.168 L871.712,57.168 Z M879.024,65.2 C880.485333,65.2 881.584,64.8453333 882.32,64.136 C883.056,63.4266667 883.424,62.3306667 883.424,60.848 L883.424,60.848 L883.424,53.52 L881.968,53.52 L881.968,54.832 C881.616,54.3733333 881.165333,54.0266667 880.616,53.792 C880.066667,53.5573333 879.472,53.44 878.832,53.44 C878.021333,53.44 877.288,53.6106667 876.632,53.952 C875.976,54.2933333 875.461333,54.776 875.088,55.4 C874.714667,56.024 874.528,56.736 874.528,57.536 C874.528,58.336 874.714667,59.048 875.088,59.672 C875.461333,60.296 875.976,60.7813333 876.632,61.128 C877.288,61.4746667 878.021333,61.648 878.832,61.648 C879.450667,61.648 880.024,61.5386667 880.552,61.32 C881.08,61.1013333 881.525333,60.7733333 881.888,60.336 L881.888,60.336 L881.888,61.008 C881.888,61.968 881.650667,62.6826667 881.176,63.152 C880.701333,63.6213333 879.968,63.856 878.976,63.856 C878.357333,63.856 877.757333,63.7573333 877.176,63.56 C876.594667,63.3626667 876.106667,63.0933333 875.712,62.752 L875.712,62.752 L874.976,63.936 C875.424,64.3413333 876.010667,64.6533333 876.736,64.872 C877.461333,65.0906667 878.224,65.2 879.024,65.2 Z M879.008,60.304 C878.442667,60.304 877.938667,60.1866667 877.496,59.952 C877.053333,59.7173333 876.706667,59.3893333 876.456,58.968 C876.205333,58.5466667 876.08,58.0693333 876.08,57.536 C876.08,56.7146667 876.352,56.0506667 876.896,55.544 C877.44,55.0373333 878.144,54.784 879.008,54.784 C879.861333,54.784 880.56,55.0373333 881.104,55.544 C881.648,56.0506667 881.92,56.7146667 881.92,57.536 C881.92,58.0693333 881.794667,58.5466667 881.544,58.968 C881.293333,59.3893333 880.946667,59.7173333 880.504,59.952 C880.061333,60.1866667 879.562667,60.304 879.008,60.304 Z M890.128,62.096 C890.832,62.096 891.469333,61.9786667 892.04,61.744 C892.610667,61.5093333 893.088,61.168 893.472,60.72 L893.472,60.72 L892.624,59.728 C892.005333,60.4106667 891.189333,60.752 890.176,60.752 C889.344,60.752 888.648,60.5253333 888.088,60.072 C887.528,59.6186667 887.2,59.0186667 887.104,58.272 L887.104,58.272 L893.984,58.272 C894.005333,58.08 894.016,57.9253333 894.016,57.808 C894.016,56.9546667 893.837333,56.1973333 893.48,55.536 C893.122667,54.8746667 892.626667,54.36 891.992,53.992 C891.357333,53.624 890.634667,53.44 889.824,53.44 C889.013333,53.44 888.285333,53.624 887.64,53.992 C886.994667,54.36 886.488,54.8746667 886.12,55.536 C885.752,56.1973333 885.568,56.9386667 885.568,57.76 C885.568,58.592 885.757333,59.3386667 886.136,60 C886.514667,60.6613333 887.050667,61.176 887.744,61.544 C888.437333,61.912 889.232,62.096 890.128,62.096 Z M892.544,57.168 L887.104,57.168 C887.189333,56.4426667 887.48,55.856 887.976,55.408 C888.472,54.96 889.088,54.736 889.824,54.736 C890.56,54.736 891.176,54.9626667 891.672,55.416 C892.168,55.8693333 892.458667,56.4533333 892.544,57.168 L892.544,57.168 Z M898.576,62.096 C899.706667,62.096 900.6,61.8693333 901.256,61.416 C901.912,60.9626667 902.24,60.352 902.24,59.584 C902.24,59.008 902.090667,58.56 901.792,58.24 C901.493333,57.92 901.133333,57.6933333 900.712,57.56 C900.290667,57.4266667 899.738667,57.3013333 899.056,57.184 C898.544,57.088 898.146667,57.0026667 897.864,56.928 C897.581333,56.8533333 897.344,56.736 897.152,56.576 C896.96,56.416 896.864,56.1973333 896.864,55.92 C896.864,55.568 897.034667,55.2853333 897.376,55.072 C897.717333,54.8586667 898.213333,54.752 898.864,54.752 C899.802667,54.752 900.618667,54.976 901.312,55.424 L901.312,55.424 L901.968,54.208 C901.605333,53.9733333 901.141333,53.7866667 900.576,53.648 C900.010667,53.5093333 899.445333,53.44 898.88,53.44 C897.802667,53.44 896.944,53.672 896.304,54.136 C895.664,54.6 895.344,55.216 895.344,55.984 C895.344,56.5813333 895.498667,57.0453333 895.808,57.376 C896.117333,57.7066667 896.488,57.9413333 896.92,58.08 C897.352,58.2186667 897.909333,58.3413333 898.592,58.448 C899.093333,58.5333333 899.48,58.6106667 899.752,58.68 C900.024,58.7493333 900.250667,58.8586667 900.432,59.008 C900.613333,59.1573333 900.704,59.36 900.704,59.616 C900.704,60.384 900.032,60.768 898.688,60.768 C898.144,60.768 897.605333,60.688 897.072,60.528 C896.538667,60.368 896.085333,60.1546667 895.712,59.888 L895.712,59.888 L895.072,61.104 C895.434667,61.392 895.936,61.6293333 896.576,61.816 C897.216,62.0026667 897.882667,62.096 898.576,62.096 Z M830.656,86 L834.368,77.52 L832.864,77.52 L829.888,84.32 L826.976,77.52 L825.376,77.52 L829.088,86 L830.656,86 Z M839.264,76.288 L841.952,74.208 L840,74.208 L837.824,76.288 L839.264,76.288 Z M839.344,86.096 C840.048,86.096 840.685333,85.9786667 841.256,85.744 C841.826667,85.5093333 842.304,85.168 842.688,84.72 L842.688,84.72 L841.84,83.728 C841.221333,84.4106667 840.405333,84.752 839.392,84.752 C838.56,84.752 837.864,84.5253333 837.304,84.072 C836.744,83.6186667 836.416,83.0186667 836.32,82.272 L836.32,82.272 L843.2,82.272 C843.221333,82.08 843.232,81.9253333 843.232,81.808 C843.232,80.9546667 843.053333,80.1973333 842.696,79.536 C842.338667,78.8746667 841.842667,78.36 841.208,77.992 C840.573333,77.624 839.850667,77.44 839.04,77.44 C838.229333,77.44 837.501333,77.624 836.856,77.992 C836.210667,78.36 835.704,78.8746667 835.336,79.536 C834.968,80.1973333 834.784,80.9386667 834.784,81.76 C834.784,82.592 834.973333,83.3386667 835.352,84 C835.730667,84.6613333 836.266667,85.176 836.96,85.544 C837.653333,85.912 838.448,86.096 839.344,86.096 Z M841.76,81.168 L836.32,81.168 C836.405333,80.4426667 836.696,79.856 837.192,79.408 C837.688,78.96 838.304,78.736 839.04,78.736 C839.776,78.736 840.392,78.9626667 840.888,79.416 C841.384,79.8693333 841.674667,80.4533333 841.76,81.168 L841.76,81.168 Z M846.896,86 L846.896,74.128 L845.36,74.128 L845.36,86 L846.896,86 Z M853.6,86.096 C854.304,86.096 854.941333,85.9786667 855.512,85.744 C856.082667,85.5093333 856.56,85.168 856.944,84.72 L856.944,84.72 L856.096,83.728 C855.477333,84.4106667 854.661333,84.752 853.648,84.752 C852.816,84.752 852.12,84.5253333 851.56,84.072 C851,83.6186667 850.672,83.0186667 850.576,82.272 L850.576,82.272 L857.456,82.272 C857.477333,82.08 857.488,81.9253333 857.488,81.808 C857.488,80.9546667 857.309333,80.1973333 856.952,79.536 C856.594667,78.8746667 856.098667,78.36 855.464,77.992 C854.829333,77.624 854.106667,77.44 853.296,77.44 C852.485333,77.44 851.757333,77.624 851.112,77.992 C850.466667,78.36 849.96,78.8746667 849.592,79.536 C849.224,80.1973333 849.04,80.9386667 849.04,81.76 C849.04,82.592 849.229333,83.3386667 849.608,84 C849.986667,84.6613333 850.522667,85.176 851.216,85.544 C851.909333,85.912 852.704,86.096 853.6,86.096 Z M856.016,81.168 L850.576,81.168 C850.661333,80.4426667 850.952,79.856 851.448,79.408 C851.944,78.96 852.56,78.736 853.296,78.736 C854.032,78.736 854.648,78.9626667 855.144,79.416 C855.64,79.8693333 855.930667,80.4533333 856.016,81.168 L856.016,81.168 Z M861.152,86 L861.152,81.632 C861.152,80.7253333 861.381333,80.0293333 861.84,79.544 C862.298667,79.0586667 862.917333,78.816 863.696,78.816 C864.4,78.816 864.941333,79.024 865.32,79.44 C865.698667,79.856 865.888,80.4746667 865.888,81.296 L865.888,81.296 L865.888,86 L867.424,86 L867.424,81.632 C867.424,80.7253333 867.653333,80.0293333 868.112,79.544 C868.570667,79.0586667 869.189333,78.816 869.968,78.816 C870.672,78.816 871.213333,79.024 871.592,79.44 C871.970667,79.856 872.16,80.4746667 872.16,81.296 L872.16,81.296 L872.16,86 L873.696,86 L873.696,81.12 C873.696,79.904 873.384,78.9866667 872.76,78.368 C872.136,77.7493333 871.290667,77.44 870.224,77.44 C869.509333,77.44 868.866667,77.5786667 868.296,77.856 C867.725333,78.1333333 867.28,78.5173333 866.96,79.008 C866.682667,78.496 866.288,78.1066667 865.776,77.84 C865.264,77.5733333 864.677333,77.44 864.016,77.44 C863.376,77.44 862.805333,77.5546667 862.304,77.784 C861.802667,78.0133333 861.397333,78.3466667 861.088,78.784 L861.088,78.784 L861.088,77.52 L859.616,77.52 L859.616,86 L861.152,86 Z M880.272,76.288 L882.96,74.208 L881.008,74.208 L878.832,76.288 L880.272,76.288 Z M880.352,86.096 C881.056,86.096 881.693333,85.9786667 882.264,85.744 C882.834667,85.5093333 883.312,85.168 883.696,84.72 L883.696,84.72 L882.848,83.728 C882.229333,84.4106667 881.413333,84.752 880.4,84.752 C879.568,84.752 878.872,84.5253333 878.312,84.072 C877.752,83.6186667 877.424,83.0186667 877.328,82.272 L877.328,82.272 L884.208,82.272 C884.229333,82.08 884.24,81.9253333 884.24,81.808 C884.24,80.9546667 884.061333,80.1973333 883.704,79.536 C883.346667,78.8746667 882.850667,78.36 882.216,77.992 C881.581333,77.624 880.858667,77.44 880.048,77.44 C879.237333,77.44 878.509333,77.624 877.864,77.992 C877.218667,78.36 876.712,78.8746667 876.344,79.536 C875.976,80.1973333 875.792,80.9386667 875.792,81.76 C875.792,82.592 875.981333,83.3386667 876.36,84 C876.738667,84.6613333 877.274667,85.176 877.968,85.544 C878.661333,85.912 879.456,86.096 880.352,86.096 Z M882.768,81.168 L877.328,81.168 C877.413333,80.4426667 877.704,79.856 878.2,79.408 C878.696,78.96 879.312,78.736 880.048,78.736 C880.784,78.736 881.4,78.9626667 881.896,79.416 C882.392,79.8693333 882.682667,80.4533333 882.768,81.168 L882.768,81.168 Z M887.904,86 L887.904,81.632 C887.904,80.7253333 888.144,80.0293333 888.624,79.544 C889.104,79.0586667 889.76,78.816 890.592,78.816 C891.328,78.816 891.893333,79.024 892.288,79.44 C892.682667,79.856 892.88,80.4746667 892.88,81.296 L892.88,81.296 L892.88,86 L894.416,86 L894.416,81.12 C894.416,79.9146667 894.098667,79 893.464,78.376 C892.829333,77.752 891.973333,77.44 890.896,77.44 C890.224,77.44 889.624,77.5573333 889.096,77.792 C888.568,78.0266667 888.149333,78.3626667 887.84,78.8 L887.84,78.8 L887.84,77.52 L886.368,77.52 L886.368,86 L887.904,86 Z M897.472,89.2 C898.154667,89.2 898.738667,89.024 899.224,88.672 C899.709333,88.32 900.133333,87.712 900.496,86.848 L900.496,86.848 L904.608,77.52 L903.104,77.52 L900.176,84.304 L897.216,77.52 L895.616,77.52 L899.36,85.984 L899.088,86.576 C898.885333,87.056 898.658667,87.3946667 898.408,87.592 C898.157333,87.7893333 897.845333,87.888 897.472,87.888 C896.896,87.888 896.389333,87.68 895.952,87.264 L895.952,87.264 L895.296,88.416 C895.552,88.672 895.874667,88.8666667 896.264,89 C896.653333,89.1333333 897.056,89.2 897.472,89.2 Z" id="Szövegesvélemény" fill-opacity="0.7" fill="#323C50" fill-rule="nonzero"></path>
                <path d="M46.9375,23.875 C47.0234375,23.875 47.109375,23.8570964 47.1953125,23.8212891 C47.28125,23.7854818 47.360026,23.7389323 47.4316406,23.6816406 L57.0566406,14.0566406 C57.1855469,13.9134115 57.25,13.7486979 57.25,13.5625 C57.25,13.3763021 57.1855469,13.2115885 57.0566406,13.0683594 C56.9134115,12.9394531 56.7486979,12.875 56.5625,12.875 C56.3763021,12.875 56.2115885,12.9394531 56.0683594,13.0683594 L46.9375,22.2207031 L43.3066406,18.5683594 C43.1634115,18.4394531 42.9986979,18.375 42.8125,18.375 C42.6263021,18.375 42.4615885,18.4394531 42.3183594,18.5683594 C42.1894531,18.7115885 42.125,18.8763021 42.125,19.0625 C42.125,19.2486979 42.1894531,19.4134115 42.3183594,19.5566406 L46.4433594,23.6816406 C46.514974,23.7389323 46.59375,23.7854818 46.6796875,23.8212891 C46.765625,23.8570964 46.8515625,23.875 46.9375,23.875 Z" id="" fill="#FFFFFF" fill-rule="nonzero"></path>
                <path d="M318.9375,23.875 C319.023438,23.875 319.109375,23.8570964 319.195312,23.8212891 C319.28125,23.7854818 319.360026,23.7389323 319.431641,23.6816406 L329.056641,14.0566406 C329.185547,13.9134115 329.25,13.7486979 329.25,13.5625 C329.25,13.3763021 329.185547,13.2115885 329.056641,13.0683594 C328.913411,12.9394531 328.748698,12.875 328.5625,12.875 C328.376302,12.875 328.211589,12.9394531 328.068359,13.0683594 L318.9375,22.2207031 L315.306641,18.5683594 C315.163411,18.4394531 314.998698,18.375 314.8125,18.375 C314.626302,18.375 314.461589,18.4394531 314.318359,18.5683594 C314.189453,18.7115885 314.125,18.8763021 314.125,19.0625 C314.125,19.2486979 314.189453,19.4134115 314.318359,19.5566406 L318.443359,23.6816406 C318.514974,23.7389323 318.59375,23.7854818 318.679688,23.8212891 C318.765625,23.8570964 318.851562,23.875 318.9375,23.875 Z" id="" fill="#FFFFFF" fill-rule="nonzero"></path>
                <circle id="Oval" stroke="#4A589F" stroke-width="1.5" cx="321" cy="18" r="17.25"></circle>
                <circle id="Oval-Copy-2" stroke="#4A589F" stroke-width="1.5" cx="593" cy="18" r="17.25"></circle>
                <circle id="Oval-Copy-5" fill="#4A589F" cx="593" cy="18" r="8"></circle>
                <line x1="83" y1="17.5" x2="287" y2="17.5" id="Line-Copy-3" stroke="#4A589F" stroke-width="1.5" stroke-linecap="square"></line>
                <line x1="355" y1="17.5" x2="559" y2="17.5" id="Line-Copy-4" stroke="#4A589F" stroke-width="1.5" stroke-linecap="square"></line>
                <line x1="627" y1="17.5" x2="831" y2="17.5" id="Line-Copy-5" stroke="#979797" stroke-width="1.5" stroke-linecap="square" stroke-dasharray="4"></line>
            </g>
        </g>
    </g>
</svg>