<?xml version="1.0" encoding="UTF-8"?>
<svg width="907px" height="90px" viewBox="0 0 907 90" version="1.1" xmlns="http://www.w3.org/2000/svg" xmlns:xlink="http://www.w3.org/1999/xlink">
    <!-- Generator: Sketch 63 (92445) - https://sketch.com -->
    <title>Group 3</title>
    <desc>Created with Sketch.</desc>
    <g id="Profession-vélemények---UI-Desktop---960px" stroke="none" stroke-width="1" fill="none" fill-rule="evenodd">
        <g id="Lépés-1---illustration---Értékelő-form---Desktop--Copy" transform="translate(-181.000000, -232.000000)">
            <g id="Group-3" transform="translate(181.000000, 232.000000)">
                <path d="M1.912,62 L1.912,53.888 L5.96,60.64 L6.696,60.64 L10.744,53.84 L10.76,62 L12.296,62 L12.28,50.8 L10.968,50.8 L6.36,58.672 L1.688,50.8 L0.376,50.8 L0.376,62 L1.912,62 Z M19,62.096 C19.5973333,62.096 20.1493333,61.976 20.656,61.736 C21.1626667,61.496 21.5706667,61.1573333 21.88,60.72 L21.88,60.72 L21.88,62 L23.336,62 L23.336,53.52 L21.8,53.52 L21.8,57.904 C21.8,58.8 21.5653333,59.4933333 21.096,59.984 C20.6266667,60.4746667 19.9866667,60.72 19.176,60.72 C18.44,60.72 17.8746667,60.5093333 17.48,60.088 C17.0853333,59.6666667 16.888,59.0453333 16.888,58.224 L16.888,58.224 L16.888,53.52 L15.352,53.52 L15.352,58.4 C15.352,59.616 15.6773333,60.536 16.328,61.16 C16.9786667,61.784 17.8693333,62.096 19,62.096 Z M27.8,62 L27.8,57.632 C27.8,56.7253333 28.04,56.0293333 28.52,55.544 C29,55.0586667 29.656,54.816 30.488,54.816 C31.224,54.816 31.7893333,55.024 32.184,55.44 C32.5786667,55.856 32.776,56.4746667 32.776,57.296 L32.776,57.296 L32.776,62 L34.312,62 L34.312,57.12 C34.312,55.9146667 33.9946667,55 33.36,54.376 C32.7253333,53.752 31.8693333,53.44 30.792,53.44 C30.12,53.44 29.52,53.5573333 28.992,53.792 C28.464,54.0266667 28.0453333,54.3626667 27.736,54.8 L27.736,54.8 L27.736,53.52 L26.264,53.52 L26.264,62 L27.8,62 Z M38.696,62 L38.696,59.68 L40.456,58.048 L43.64,62 L45.528,62 L41.608,57.024 L45.176,53.52 L43.32,53.52 L38.696,57.744 L38.696,50.128 L37.16,50.128 L37.16,62 L38.696,62 Z M49.336,62.096 C49.9866667,62.096 50.5493333,61.992 51.024,61.784 C51.4986667,61.576 51.864,61.2746667 52.12,60.88 L52.12,60.88 L52.12,62 L53.576,62 L53.576,56.88 C53.576,55.7386667 53.264,54.88 52.64,54.304 C52.016,53.728 51.1173333,53.44 49.944,53.44 C49.2613333,53.44 48.616,53.5333333 48.008,53.72 C47.4,53.9066667 46.8773333,54.176 46.44,54.528 L46.44,54.528 L47.08,55.68 C47.4106667,55.4026667 47.816,55.1813333 48.296,55.016 C48.776,54.8506667 49.2666667,54.768 49.768,54.768 C50.5146667,54.768 51.08,54.944 51.464,55.296 C51.848,55.648 52.04,56.1546667 52.04,56.816 L52.04,56.816 L52.04,57.12 L49.608,57.12 C48.424,57.12 47.56,57.3466667 47.016,57.8 C46.472,58.2533333 46.2,58.8533333 46.2,59.6 C46.2,60.3466667 46.4853333,60.9493333 47.056,61.408 C47.6266667,61.8666667 48.3866667,62.096 49.336,62.096 Z M49.592,60.912 C49.0053333,60.912 48.5466667,60.7893333 48.216,60.544 C47.8853333,60.2986667 47.72,59.9626667 47.72,59.536 C47.72,58.6613333 48.3706667,58.224 49.672,58.224 L49.672,58.224 L52.04,58.224 L52.04,59.408 C51.848,59.888 51.5386667,60.2586667 51.112,60.52 C50.6853333,60.7813333 50.1786667,60.912 49.592,60.912 Z M57.96,62 L57.96,59.68 L59.72,58.048 L62.904,62 L64.792,62 L60.872,57.024 L64.44,53.52 L62.584,53.52 L57.96,57.744 L57.96,50.128 L56.424,50.128 L56.424,62 L57.96,62 Z M68.056,52.016 C68.28,52.016 68.472,51.9386667 68.632,51.784 C68.792,51.6293333 68.872,51.4346667 68.872,51.2 C68.872,50.9653333 68.792,50.768 68.632,50.608 C68.472,50.448 68.28,50.368 68.056,50.368 C67.832,50.368 67.64,50.448 67.48,50.608 C67.32,50.768 67.24,50.9653333 67.24,51.2 C67.24,51.4346667 67.32,51.6293333 67.48,51.784 C67.64,51.9386667 67.832,52.016 68.056,52.016 Z M71.032,52.016 C71.256,52.016 71.448,51.9386667 71.608,51.784 C71.768,51.6293333 71.848,51.4346667 71.848,51.2 C71.848,50.9653333 71.768,50.768 71.608,50.608 C71.448,50.448 71.256,50.368 71.032,50.368 C70.808,50.368 70.616,50.448 70.456,50.608 C70.296,50.768 70.216,50.9653333 70.216,51.2 C70.216,51.4346667 70.296,51.6293333 70.456,51.784 C70.616,51.9386667 70.808,52.016 71.032,52.016 Z M69.56,62.096 C70.4026667,62.096 71.1573333,61.9093333 71.824,61.536 C72.4906667,61.1626667 73.0133333,60.648 73.392,59.992 C73.7706667,59.336 73.96,58.592 73.96,57.76 C73.96,56.928 73.7706667,56.184 73.392,55.528 C73.0133333,54.872 72.4906667,54.36 71.824,53.992 C71.1573333,53.624 70.4026667,53.44 69.56,53.44 C68.7173333,53.44 67.96,53.624 67.288,53.992 C66.616,54.36 66.0906667,54.872 65.712,55.528 C65.3333333,56.184 65.144,56.928 65.144,57.76 C65.144,58.592 65.3333333,59.336 65.712,59.992 C66.0906667,60.648 66.616,61.1626667 67.288,61.536 C67.96,61.9093333 68.7173333,62.096 69.56,62.096 Z M69.56,60.752 C69.016,60.752 68.528,60.6266667 68.096,60.376 C67.664,60.1253333 67.3226667,59.7733333 67.072,59.32 C66.8213333,58.8666667 66.696,58.3466667 66.696,57.76 C66.696,57.1733333 66.8213333,56.6533333 67.072,56.2 C67.3226667,55.7466667 67.664,55.3973333 68.096,55.152 C68.528,54.9066667 69.016,54.784 69.56,54.784 C70.104,54.784 70.592,54.9066667 71.024,55.152 C71.456,55.3973333 71.7946667,55.7466667 72.04,56.2 C72.2853333,56.6533333 72.408,57.1733333 72.408,57.76 C72.408,58.3466667 72.2853333,58.8666667 72.04,59.32 C71.7946667,59.7733333 71.456,60.1253333 71.024,60.376 C70.592,60.6266667 70.104,60.752 69.56,60.752 Z M77.624,62 L77.624,57.776 C77.624,56.8586667 77.8613333,56.152 78.336,55.656 C78.8106667,55.16 79.464,54.912 80.296,54.912 C80.4453333,54.912 80.5626667,54.9173333 80.648,54.928 L80.648,54.928 L80.648,53.44 C79.9013333,53.44 79.2666667,53.568 78.744,53.824 C78.2213333,54.08 77.8266667,54.4533333 77.56,54.944 L77.56,54.944 L77.56,53.52 L76.088,53.52 L76.088,62 L77.624,62 Z M90.648,52.288 L93.336,50.208 L91.384,50.208 L89.208,52.288 L90.648,52.288 Z M90.728,62.096 C91.432,62.096 92.0693333,61.9786667 92.64,61.744 C93.2106667,61.5093333 93.688,61.168 94.072,60.72 L94.072,60.72 L93.224,59.728 C92.6053333,60.4106667 91.7893333,60.752 90.776,60.752 C89.944,60.752 89.248,60.5253333 88.688,60.072 C88.128,59.6186667 87.8,59.0186667 87.704,58.272 L87.704,58.272 L94.584,58.272 C94.6053333,58.08 94.616,57.9253333 94.616,57.808 C94.616,56.9546667 94.4373333,56.1973333 94.08,55.536 C93.7226667,54.8746667 93.2266667,54.36 92.592,53.992 C91.9573333,53.624 91.2346667,53.44 90.424,53.44 C89.6133333,53.44 88.8853333,53.624 88.24,53.992 C87.5946667,54.36 87.088,54.8746667 86.72,55.536 C86.352,56.1973333 86.168,56.9386667 86.168,57.76 C86.168,58.592 86.3573333,59.3386667 86.736,60 C87.1146667,60.6613333 87.6506667,61.176 88.344,61.544 C89.0373333,61.912 89.832,62.096 90.728,62.096 Z M93.144,57.168 L87.704,57.168 C87.7893333,56.4426667 88.08,55.856 88.576,55.408 C89.072,54.96 89.688,54.736 90.424,54.736 C91.16,54.736 91.776,54.9626667 92.272,55.416 C92.768,55.8693333 93.0586667,56.4533333 93.144,57.168 L93.144,57.168 Z M99.176,62.096 C100.306667,62.096 101.2,61.8693333 101.856,61.416 C102.512,60.9626667 102.84,60.352 102.84,59.584 C102.84,59.008 102.690667,58.56 102.392,58.24 C102.093333,57.92 101.733333,57.6933333 101.312,57.56 C100.890667,57.4266667 100.338667,57.3013333 99.656,57.184 C99.144,57.088 98.7466667,57.0026667 98.464,56.928 C98.1813333,56.8533333 97.944,56.736 97.752,56.576 C97.56,56.416 97.464,56.1973333 97.464,55.92 C97.464,55.568 97.6346667,55.2853333 97.976,55.072 C98.3173333,54.8586667 98.8133333,54.752 99.464,54.752 C100.402667,54.752 101.218667,54.976 101.912,55.424 L101.912,55.424 L102.568,54.208 C102.205333,53.9733333 101.741333,53.7866667 101.176,53.648 C100.610667,53.5093333 100.045333,53.44 99.48,53.44 C98.4026667,53.44 97.544,53.672 96.904,54.136 C96.264,54.6 95.944,55.216 95.944,55.984 C95.944,56.5813333 96.0986667,57.0453333 96.408,57.376 C96.7173333,57.7066667 97.088,57.9413333 97.52,58.08 C97.952,58.2186667 98.5093333,58.3413333 99.192,58.448 C99.6933333,58.5333333 100.08,58.6106667 100.352,58.68 C100.624,58.7493333 100.850667,58.8586667 101.032,59.008 C101.213333,59.1573333 101.304,59.36 101.304,59.616 C101.304,60.384 100.632,60.768 99.288,60.768 C98.744,60.768 98.2053333,60.688 97.672,60.528 C97.1386667,60.368 96.6853333,60.1546667 96.312,59.888 L96.312,59.888 L95.672,61.104 C96.0346667,61.392 96.536,61.6293333 97.176,61.816 C97.816,62.0026667 98.4826667,62.096 99.176,62.096 Z M7.968,86 L7.968,81.632 C7.968,80.7253333 8.19733333,80.0293333 8.656,79.544 C9.11466667,79.0586667 9.73333333,78.816 10.512,78.816 C11.216,78.816 11.7573333,79.024 12.136,79.44 C12.5146667,79.856 12.704,80.4746667 12.704,81.296 L12.704,81.296 L12.704,86 L14.24,86 L14.24,81.632 C14.24,80.7253333 14.4693333,80.0293333 14.928,79.544 C15.3866667,79.0586667 16.0053333,78.816 16.784,78.816 C17.488,78.816 18.0293333,79.024 18.408,79.44 C18.7866667,79.856 18.976,80.4746667 18.976,81.296 L18.976,81.296 L18.976,86 L20.512,86 L20.512,81.12 C20.512,79.904 20.2,78.9866667 19.576,78.368 C18.952,77.7493333 18.1066667,77.44 17.04,77.44 C16.3253333,77.44 15.6826667,77.5786667 15.112,77.856 C14.5413333,78.1333333 14.096,78.5173333 13.776,79.008 C13.4986667,78.496 13.104,78.1066667 12.592,77.84 C12.08,77.5733333 11.4933333,77.44 10.832,77.44 C10.192,77.44 9.62133333,77.5546667 9.12,77.784 C8.61866667,78.0133333 8.21333333,78.3466667 7.904,78.784 L7.904,78.784 L7.904,77.52 L6.432,77.52 L6.432,86 L7.968,86 Z M26.912,86.096 C27.5093333,86.096 28.0613333,85.976 28.568,85.736 C29.0746667,85.496 29.4826667,85.1573333 29.792,84.72 L29.792,84.72 L29.792,86 L31.248,86 L31.248,77.52 L29.712,77.52 L29.712,81.904 C29.712,82.8 29.4773333,83.4933333 29.008,83.984 C28.5386667,84.4746667 27.8986667,84.72 27.088,84.72 C26.352,84.72 25.7866667,84.5093333 25.392,84.088 C24.9973333,83.6666667 24.8,83.0453333 24.8,82.224 L24.8,82.224 L24.8,77.52 L23.264,77.52 L23.264,82.4 C23.264,83.616 23.5893333,84.536 24.24,85.16 C24.8906667,85.784 25.7813333,86.096 26.912,86.096 Z M35.712,86 L35.712,81.632 C35.712,80.7253333 35.952,80.0293333 36.432,79.544 C36.912,79.0586667 37.568,78.816 38.4,78.816 C39.136,78.816 39.7013333,79.024 40.096,79.44 C40.4906667,79.856 40.688,80.4746667 40.688,81.296 L40.688,81.296 L40.688,86 L42.224,86 L42.224,81.12 C42.224,79.9146667 41.9066667,79 41.272,78.376 C40.6373333,77.752 39.7813333,77.44 38.704,77.44 C38.032,77.44 37.432,77.5573333 36.904,77.792 C36.376,78.0266667 35.9573333,78.3626667 35.648,78.8 L35.648,78.8 L35.648,77.52 L34.176,77.52 L34.176,86 L35.712,86 Z M46.608,86 L46.608,83.68 L48.368,82.048 L51.552,86 L53.44,86 L49.52,81.024 L53.088,77.52 L51.232,77.52 L46.608,81.744 L46.608,74.128 L45.072,74.128 L45.072,86 L46.608,86 Z M57.248,86.096 C57.8986667,86.096 58.4613333,85.992 58.936,85.784 C59.4106667,85.576 59.776,85.2746667 60.032,84.88 L60.032,84.88 L60.032,86 L61.488,86 L61.488,80.88 C61.488,79.7386667 61.176,78.88 60.552,78.304 C59.928,77.728 59.0293333,77.44 57.856,77.44 C57.1733333,77.44 56.528,77.5333333 55.92,77.72 C55.312,77.9066667 54.7893333,78.176 54.352,78.528 L54.352,78.528 L54.992,79.68 C55.3226667,79.4026667 55.728,79.1813333 56.208,79.016 C56.688,78.8506667 57.1786667,78.768 57.68,78.768 C58.4266667,78.768 58.992,78.944 59.376,79.296 C59.76,79.648 59.952,80.1546667 59.952,80.816 L59.952,80.816 L59.952,81.12 L57.52,81.12 C56.336,81.12 55.472,81.3466667 54.928,81.8 C54.384,82.2533333 54.112,82.8533333 54.112,83.6 C54.112,84.3466667 54.3973333,84.9493333 54.968,85.408 C55.5386667,85.8666667 56.2986667,86.096 57.248,86.096 Z M57.504,84.912 C56.9173333,84.912 56.4586667,84.7893333 56.128,84.544 C55.7973333,84.2986667 55.632,83.9626667 55.632,83.536 C55.632,82.6613333 56.2826667,82.224 57.584,82.224 L57.584,82.224 L59.952,82.224 L59.952,83.408 C59.76,83.888 59.4506667,84.2586667 59.024,84.52 C58.5973333,84.7813333 58.0906667,84.912 57.504,84.912 Z M65.872,86 L65.872,81.632 C65.872,80.7253333 66.112,80.0293333 66.592,79.544 C67.072,79.0586667 67.728,78.816 68.56,78.816 C69.296,78.816 69.8613333,79.024 70.256,79.44 C70.6506667,79.856 70.848,80.4746667 70.848,81.296 L70.848,81.296 L70.848,86 L72.384,86 L72.384,81.12 C72.384,79.9146667 72.0666667,79 71.432,78.376 C70.7973333,77.752 69.9413333,77.44 68.864,77.44 C68.224,77.44 67.6453333,77.552 67.128,77.776 C66.6106667,78 66.192,78.3146667 65.872,78.72 L65.872,78.72 L65.872,74.128 L64.336,74.128 L64.336,86 L65.872,86 Z M79.056,86.096 C79.76,86.096 80.3973333,85.9786667 80.968,85.744 C81.5386667,85.5093333 82.016,85.168 82.4,84.72 L82.4,84.72 L81.552,83.728 C80.9333333,84.4106667 80.1173333,84.752 79.104,84.752 C78.272,84.752 77.576,84.5253333 77.016,84.072 C76.456,83.6186667 76.128,83.0186667 76.032,82.272 L76.032,82.272 L82.912,82.272 C82.9333333,82.08 82.944,81.9253333 82.944,81.808 C82.944,80.9546667 82.7653333,80.1973333 82.408,79.536 C82.0506667,78.8746667 81.5546667,78.36 80.92,77.992 C80.2853333,77.624 79.5626667,77.44 78.752,77.44 C77.9413333,77.44 77.2133333,77.624 76.568,77.992 C75.9226667,78.36 75.416,78.8746667 75.048,79.536 C74.68,80.1973333 74.496,80.9386667 74.496,81.76 C74.496,82.592 74.6853333,83.3386667 75.064,84 C75.4426667,84.6613333 75.9786667,85.176 76.672,85.544 C77.3653333,85.912 78.16,86.096 79.056,86.096 Z M81.472,81.168 L76.032,81.168 C76.1173333,80.4426667 76.408,79.856 76.904,79.408 C77.4,78.96 78.016,78.736 78.752,78.736 C79.488,78.736 80.104,78.9626667 80.6,79.416 C81.096,79.8693333 81.3866667,80.4533333 81.472,81.168 L81.472,81.168 Z M86.608,86 L86.608,74.128 L85.072,74.128 L85.072,86 L86.608,86 Z M89.904,89.2 C90.5866667,89.2 91.1706667,89.024 91.656,88.672 C92.1413333,88.32 92.5653333,87.712 92.928,86.848 L92.928,86.848 L97.04,77.52 L95.536,77.52 L92.608,84.304 L89.648,77.52 L88.048,77.52 L91.792,85.984 L91.52,86.576 C91.3173333,87.056 91.0906667,87.3946667 90.84,87.592 C90.5893333,87.7893333 90.2773333,87.888 89.904,87.888 C89.328,87.888 88.8213333,87.68 88.384,87.264 L88.384,87.264 L87.728,88.416 C87.984,88.672 88.3066667,88.8666667 88.696,89 C89.0853333,89.1333333 89.488,89.2 89.904,89.2 Z" id="Munkakörésmunkahely" fill="#323C50" fill-rule="nonzero"></path>
                <circle id="Oval" stroke="#4A589F" stroke-width="1.5" cx="51" cy="18" r="17.25"></circle>
                <circle id="Oval-Copy" fill="#50D7BE" cx="51" cy="18" r="14"></circle>
                <circle id="Oval-Copy-3" fill="#50D7BE" cx="323" cy="18" r="14"></circle>
                <circle id="Oval-Copy-4" fill="#50D7BE" cx="595" cy="18" r="14"></circle>
                <path d="M280.508,62 L280.508,53.888 L284.556,60.64 L285.292,60.64 L289.34,53.84 L289.356,62 L290.892,62 L290.876,50.8 L289.564,50.8 L284.956,58.672 L280.284,50.8 L278.972,50.8 L278.972,62 L280.508,62 Z M297.596,62.096 C298.193333,62.096 298.745333,61.976 299.252,61.736 C299.758667,61.496 300.166667,61.1573333 300.476,60.72 L300.476,60.72 L300.476,62 L301.932,62 L301.932,53.52 L300.396,53.52 L300.396,57.904 C300.396,58.8 300.161333,59.4933333 299.692,59.984 C299.222667,60.4746667 298.582667,60.72 297.772,60.72 C297.036,60.72 296.470667,60.5093333 296.076,60.088 C295.681333,59.6666667 295.484,59.0453333 295.484,58.224 L295.484,58.224 L295.484,53.52 L293.948,53.52 L293.948,58.4 C293.948,59.616 294.273333,60.536 294.924,61.16 C295.574667,61.784 296.465333,62.096 297.596,62.096 Z M306.396,62 L306.396,57.632 C306.396,56.7253333 306.636,56.0293333 307.116,55.544 C307.596,55.0586667 308.252,54.816 309.084,54.816 C309.82,54.816 310.385333,55.024 310.78,55.44 C311.174667,55.856 311.372,56.4746667 311.372,57.296 L311.372,57.296 L311.372,62 L312.908,62 L312.908,57.12 C312.908,55.9146667 312.590667,55 311.956,54.376 C311.321333,53.752 310.465333,53.44 309.388,53.44 C308.716,53.44 308.116,53.5573333 307.588,53.792 C307.06,54.0266667 306.641333,54.3626667 306.332,54.8 L306.332,54.8 L306.332,53.52 L304.86,53.52 L304.86,62 L306.396,62 Z M317.292,62 L317.292,59.68 L319.052,58.048 L322.236,62 L324.124,62 L320.204,57.024 L323.772,53.52 L321.916,53.52 L317.292,57.744 L317.292,50.128 L315.756,50.128 L315.756,62 L317.292,62 Z M327.932,62.096 C328.582667,62.096 329.145333,61.992 329.62,61.784 C330.094667,61.576 330.46,61.2746667 330.716,60.88 L330.716,60.88 L330.716,62 L332.172,62 L332.172,56.88 C332.172,55.7386667 331.86,54.88 331.236,54.304 C330.612,53.728 329.713333,53.44 328.54,53.44 C327.857333,53.44 327.212,53.5333333 326.604,53.72 C325.996,53.9066667 325.473333,54.176 325.036,54.528 L325.036,54.528 L325.676,55.68 C326.006667,55.4026667 326.412,55.1813333 326.892,55.016 C327.372,54.8506667 327.862667,54.768 328.364,54.768 C329.110667,54.768 329.676,54.944 330.06,55.296 C330.444,55.648 330.636,56.1546667 330.636,56.816 L330.636,56.816 L330.636,57.12 L328.204,57.12 C327.02,57.12 326.156,57.3466667 325.612,57.8 C325.068,58.2533333 324.796,58.8533333 324.796,59.6 C324.796,60.3466667 325.081333,60.9493333 325.652,61.408 C326.222667,61.8666667 326.982667,62.096 327.932,62.096 Z M328.188,60.912 C327.601333,60.912 327.142667,60.7893333 326.812,60.544 C326.481333,60.2986667 326.316,59.9626667 326.316,59.536 C326.316,58.6613333 326.966667,58.224 328.268,58.224 L328.268,58.224 L330.636,58.224 L330.636,59.408 C330.444,59.888 330.134667,60.2586667 329.708,60.52 C329.281333,60.7813333 328.774667,60.912 328.188,60.912 Z M336.556,62 L336.556,57.632 C336.556,56.7253333 336.796,56.0293333 337.276,55.544 C337.756,55.0586667 338.412,54.816 339.244,54.816 C339.98,54.816 340.545333,55.024 340.94,55.44 C341.334667,55.856 341.532,56.4746667 341.532,57.296 L341.532,57.296 L341.532,62 L343.068,62 L343.068,57.12 C343.068,55.9146667 342.750667,55 342.116,54.376 C341.481333,53.752 340.625333,53.44 339.548,53.44 C338.908,53.44 338.329333,53.552 337.812,53.776 C337.294667,54 336.876,54.3146667 336.556,54.72 L336.556,54.72 L336.556,50.128 L335.02,50.128 L335.02,62 L336.556,62 Z M349.74,62.096 C350.444,62.096 351.081333,61.9786667 351.652,61.744 C352.222667,61.5093333 352.7,61.168 353.084,60.72 L353.084,60.72 L352.236,59.728 C351.617333,60.4106667 350.801333,60.752 349.788,60.752 C348.956,60.752 348.26,60.5253333 347.7,60.072 C347.14,59.6186667 346.812,59.0186667 346.716,58.272 L346.716,58.272 L353.596,58.272 C353.617333,58.08 353.628,57.9253333 353.628,57.808 C353.628,56.9546667 353.449333,56.1973333 353.092,55.536 C352.734667,54.8746667 352.238667,54.36 351.604,53.992 C350.969333,53.624 350.246667,53.44 349.436,53.44 C348.625333,53.44 347.897333,53.624 347.252,53.992 C346.606667,54.36 346.1,54.8746667 345.732,55.536 C345.364,56.1973333 345.18,56.9386667 345.18,57.76 C345.18,58.592 345.369333,59.3386667 345.748,60 C346.126667,60.6613333 346.662667,61.176 347.356,61.544 C348.049333,61.912 348.844,62.096 349.74,62.096 Z M352.156,57.168 L346.716,57.168 C346.801333,56.4426667 347.092,55.856 347.588,55.408 C348.084,54.96 348.7,54.736 349.436,54.736 C350.172,54.736 350.788,54.9626667 351.284,55.416 C351.78,55.8693333 352.070667,56.4533333 352.156,57.168 L352.156,57.168 Z M357.292,62 L357.292,50.128 L355.756,50.128 L355.756,62 L357.292,62 Z M360.588,65.2 C361.270667,65.2 361.854667,65.024 362.34,64.672 C362.825333,64.32 363.249333,63.712 363.612,62.848 L363.612,62.848 L367.724,53.52 L366.22,53.52 L363.292,60.304 L360.332,53.52 L358.732,53.52 L362.476,61.984 L362.204,62.576 C362.001333,63.056 361.774667,63.3946667 361.524,63.592 C361.273333,63.7893333 360.961333,63.888 360.588,63.888 C360.012,63.888 359.505333,63.68 359.068,63.264 L359.068,63.264 L358.412,64.416 C358.668,64.672 358.990667,64.8666667 359.38,65 C359.769333,65.1333333 360.172,65.2 360.588,65.2 Z M285.612,76.288 L288.3,74.208 L286.348,74.208 L284.172,76.288 L285.612,76.288 Z M285.692,86.096 C286.396,86.096 287.033333,85.9786667 287.604,85.744 C288.174667,85.5093333 288.652,85.168 289.036,84.72 L289.036,84.72 L288.188,83.728 C287.569333,84.4106667 286.753333,84.752 285.74,84.752 C284.908,84.752 284.212,84.5253333 283.652,84.072 C283.092,83.6186667 282.764,83.0186667 282.668,82.272 L282.668,82.272 L289.548,82.272 C289.569333,82.08 289.58,81.9253333 289.58,81.808 C289.58,80.9546667 289.401333,80.1973333 289.044,79.536 C288.686667,78.8746667 288.190667,78.36 287.556,77.992 C286.921333,77.624 286.198667,77.44 285.388,77.44 C284.577333,77.44 283.849333,77.624 283.204,77.992 C282.558667,78.36 282.052,78.8746667 281.684,79.536 C281.316,80.1973333 281.132,80.9386667 281.132,81.76 C281.132,82.592 281.321333,83.3386667 281.7,84 C282.078667,84.6613333 282.614667,85.176 283.308,85.544 C284.001333,85.912 284.796,86.096 285.692,86.096 Z M288.108,81.168 L282.668,81.168 C282.753333,80.4426667 283.044,79.856 283.54,79.408 C284.036,78.96 284.652,78.736 285.388,78.736 C286.124,78.736 286.74,78.9626667 287.236,79.416 C287.732,79.8693333 288.022667,80.4533333 288.108,81.168 L288.108,81.168 Z M293.244,86 L293.244,81.776 C293.244,80.8586667 293.481333,80.152 293.956,79.656 C294.430667,79.16 295.084,78.912 295.916,78.912 C296.065333,78.912 296.182667,78.9173333 296.268,78.928 L296.268,78.928 L296.268,77.44 C295.521333,77.44 294.886667,77.568 294.364,77.824 C293.841333,78.08 293.446667,78.4533333 293.18,78.944 L293.18,78.944 L293.18,77.52 L291.708,77.52 L291.708,86 L293.244,86 Z M301.42,86.096 C301.772,86.096 302.113333,86.0453333 302.444,85.944 C302.774667,85.8426667 303.052,85.696 303.276,85.504 L303.276,85.504 L302.796,84.4 C302.465333,84.6666667 302.065333,84.8 301.596,84.8 C301.169333,84.8 300.841333,84.6773333 300.612,84.432 C300.382667,84.1866667 300.268,83.8346667 300.268,83.376 L300.268,83.376 L300.268,78.784 L302.7,78.784 L302.7,77.52 L300.268,77.52 L300.268,75.664 L298.732,75.664 L298.732,77.52 L297.292,77.52 L297.292,78.784 L298.732,78.784 L298.732,83.44 C298.732,84.2933333 298.966667,84.9493333 299.436,85.408 C299.905333,85.8666667 300.566667,86.096 301.42,86.096 Z M308.54,76.288 L311.228,74.208 L309.276,74.208 L307.1,76.288 L308.54,76.288 Z M308.62,86.096 C309.324,86.096 309.961333,85.9786667 310.532,85.744 C311.102667,85.5093333 311.58,85.168 311.964,84.72 L311.964,84.72 L311.116,83.728 C310.497333,84.4106667 309.681333,84.752 308.668,84.752 C307.836,84.752 307.14,84.5253333 306.58,84.072 C306.02,83.6186667 305.692,83.0186667 305.596,82.272 L305.596,82.272 L312.476,82.272 C312.497333,82.08 312.508,81.9253333 312.508,81.808 C312.508,80.9546667 312.329333,80.1973333 311.972,79.536 C311.614667,78.8746667 311.118667,78.36 310.484,77.992 C309.849333,77.624 309.126667,77.44 308.316,77.44 C307.505333,77.44 306.777333,77.624 306.132,77.992 C305.486667,78.36 304.98,78.8746667 304.612,79.536 C304.244,80.1973333 304.06,80.9386667 304.06,81.76 C304.06,82.592 304.249333,83.3386667 304.628,84 C305.006667,84.6613333 305.542667,85.176 306.236,85.544 C306.929333,85.912 307.724,86.096 308.62,86.096 Z M311.036,81.168 L305.596,81.168 C305.681333,80.4426667 305.972,79.856 306.468,79.408 C306.964,78.96 307.58,78.736 308.316,78.736 C309.052,78.736 309.668,78.9626667 310.164,79.416 C310.66,79.8693333 310.950667,80.4533333 311.036,81.168 L311.036,81.168 Z M316.172,86 L316.172,83.68 L317.932,82.048 L321.116,86 L323.004,86 L319.084,81.024 L322.652,77.52 L320.796,77.52 L316.172,81.744 L316.172,74.128 L314.636,74.128 L314.636,86 L316.172,86 Z M327.916,86.096 C328.62,86.096 329.257333,85.9786667 329.828,85.744 C330.398667,85.5093333 330.876,85.168 331.26,84.72 L331.26,84.72 L330.412,83.728 C329.793333,84.4106667 328.977333,84.752 327.964,84.752 C327.132,84.752 326.436,84.5253333 325.876,84.072 C325.316,83.6186667 324.988,83.0186667 324.892,82.272 L324.892,82.272 L331.772,82.272 C331.793333,82.08 331.804,81.9253333 331.804,81.808 C331.804,80.9546667 331.625333,80.1973333 331.268,79.536 C330.910667,78.8746667 330.414667,78.36 329.78,77.992 C329.145333,77.624 328.422667,77.44 327.612,77.44 C326.801333,77.44 326.073333,77.624 325.428,77.992 C324.782667,78.36 324.276,78.8746667 323.908,79.536 C323.54,80.1973333 323.356,80.9386667 323.356,81.76 C323.356,82.592 323.545333,83.3386667 323.924,84 C324.302667,84.6613333 324.838667,85.176 325.532,85.544 C326.225333,85.912 327.02,86.096 327.916,86.096 Z M330.332,81.168 L324.892,81.168 C324.977333,80.4426667 325.268,79.856 325.764,79.408 C326.26,78.96 326.876,78.736 327.612,78.736 C328.348,78.736 328.964,78.9626667 329.46,79.416 C329.956,79.8693333 330.246667,80.4533333 330.332,81.168 L330.332,81.168 Z M335.468,86 L335.468,74.128 L333.932,74.128 L333.932,86 L335.468,86 Z M342.092,76.288 L344.78,74.208 L342.828,74.208 L340.652,76.288 L342.092,76.288 Z M342.172,86.096 C342.876,86.096 343.513333,85.9786667 344.084,85.744 C344.654667,85.5093333 345.132,85.168 345.516,84.72 L345.516,84.72 L344.668,83.728 C344.049333,84.4106667 343.233333,84.752 342.22,84.752 C341.388,84.752 340.692,84.5253333 340.132,84.072 C339.572,83.6186667 339.244,83.0186667 339.148,82.272 L339.148,82.272 L346.028,82.272 C346.049333,82.08 346.06,81.9253333 346.06,81.808 C346.06,80.9546667 345.881333,80.1973333 345.524,79.536 C345.166667,78.8746667 344.670667,78.36 344.036,77.992 C343.401333,77.624 342.678667,77.44 341.868,77.44 C341.057333,77.44 340.329333,77.624 339.684,77.992 C339.038667,78.36 338.532,78.8746667 338.164,79.536 C337.796,80.1973333 337.612,80.9386667 337.612,81.76 C337.612,82.592 337.801333,83.3386667 338.18,84 C338.558667,84.6613333 339.094667,85.176 339.788,85.544 C340.481333,85.912 341.276,86.096 342.172,86.096 Z M344.588,81.168 L339.148,81.168 C339.233333,80.4426667 339.524,79.856 340.02,79.408 C340.516,78.96 341.132,78.736 341.868,78.736 C342.604,78.736 343.22,78.9626667 343.716,79.416 C344.212,79.8693333 344.502667,80.4533333 344.588,81.168 L344.588,81.168 Z M350.62,86.096 C351.750667,86.096 352.644,85.8693333 353.3,85.416 C353.956,84.9626667 354.284,84.352 354.284,83.584 C354.284,83.008 354.134667,82.56 353.836,82.24 C353.537333,81.92 353.177333,81.6933333 352.756,81.56 C352.334667,81.4266667 351.782667,81.3013333 351.1,81.184 C350.588,81.088 350.190667,81.0026667 349.908,80.928 C349.625333,80.8533333 349.388,80.736 349.196,80.576 C349.004,80.416 348.908,80.1973333 348.908,79.92 C348.908,79.568 349.078667,79.2853333 349.42,79.072 C349.761333,78.8586667 350.257333,78.752 350.908,78.752 C351.846667,78.752 352.662667,78.976 353.356,79.424 L353.356,79.424 L354.012,78.208 C353.649333,77.9733333 353.185333,77.7866667 352.62,77.648 C352.054667,77.5093333 351.489333,77.44 350.924,77.44 C349.846667,77.44 348.988,77.672 348.348,78.136 C347.708,78.6 347.388,79.216 347.388,79.984 C347.388,80.5813333 347.542667,81.0453333 347.852,81.376 C348.161333,81.7066667 348.532,81.9413333 348.964,82.08 C349.396,82.2186667 349.953333,82.3413333 350.636,82.448 C351.137333,82.5333333 351.524,82.6106667 351.796,82.68 C352.068,82.7493333 352.294667,82.8586667 352.476,83.008 C352.657333,83.1573333 352.748,83.36 352.748,83.616 C352.748,84.384 352.076,84.768 350.732,84.768 C350.188,84.768 349.649333,84.688 349.116,84.528 C348.582667,84.368 348.129333,84.1546667 347.756,83.888 L347.756,83.888 L347.116,85.104 C347.478667,85.392 347.98,85.6293333 348.62,85.816 C349.26,86.0026667 349.926667,86.096 350.62,86.096 Z M359.98,86.096 C360.684,86.096 361.321333,85.9786667 361.892,85.744 C362.462667,85.5093333 362.94,85.168 363.324,84.72 L363.324,84.72 L362.476,83.728 C361.857333,84.4106667 361.041333,84.752 360.028,84.752 C359.196,84.752 358.5,84.5253333 357.94,84.072 C357.38,83.6186667 357.052,83.0186667 356.956,82.272 L356.956,82.272 L363.836,82.272 C363.857333,82.08 363.868,81.9253333 363.868,81.808 C363.868,80.9546667 363.689333,80.1973333 363.332,79.536 C362.974667,78.8746667 362.478667,78.36 361.844,77.992 C361.209333,77.624 360.486667,77.44 359.676,77.44 C358.865333,77.44 358.137333,77.624 357.492,77.992 C356.846667,78.36 356.34,78.8746667 355.972,79.536 C355.604,80.1973333 355.42,80.9386667 355.42,81.76 C355.42,82.592 355.609333,83.3386667 355.988,84 C356.366667,84.6613333 356.902667,85.176 357.596,85.544 C358.289333,85.912 359.084,86.096 359.98,86.096 Z M362.396,81.168 L356.956,81.168 C357.041333,80.4426667 357.332,79.856 357.828,79.408 C358.324,78.96 358.94,78.736 359.676,78.736 C360.412,78.736 361.028,78.9626667 361.524,79.416 C362.02,79.8693333 362.310667,80.4533333 362.396,81.168 L362.396,81.168 Z" id="Munkahelyértékelése" fill="#323C50" fill-rule="nonzero"></path>
                <path d="M540.752,62 L540.752,53.888 L544.8,60.64 L545.536,60.64 L549.584,53.84 L549.6,62 L551.136,62 L551.12,50.8 L549.808,50.8 L545.2,58.672 L540.528,50.8 L539.216,50.8 L539.216,62 L540.752,62 Z M557.84,62.096 C558.437333,62.096 558.989333,61.976 559.496,61.736 C560.002667,61.496 560.410667,61.1573333 560.72,60.72 L560.72,60.72 L560.72,62 L562.176,62 L562.176,53.52 L560.64,53.52 L560.64,57.904 C560.64,58.8 560.405333,59.4933333 559.936,59.984 C559.466667,60.4746667 558.826667,60.72 558.016,60.72 C557.28,60.72 556.714667,60.5093333 556.32,60.088 C555.925333,59.6666667 555.728,59.0453333 555.728,58.224 L555.728,58.224 L555.728,53.52 L554.192,53.52 L554.192,58.4 C554.192,59.616 554.517333,60.536 555.168,61.16 C555.818667,61.784 556.709333,62.096 557.84,62.096 Z M566.64,62 L566.64,57.632 C566.64,56.7253333 566.88,56.0293333 567.36,55.544 C567.84,55.0586667 568.496,54.816 569.328,54.816 C570.064,54.816 570.629333,55.024 571.024,55.44 C571.418667,55.856 571.616,56.4746667 571.616,57.296 L571.616,57.296 L571.616,62 L573.152,62 L573.152,57.12 C573.152,55.9146667 572.834667,55 572.2,54.376 C571.565333,53.752 570.709333,53.44 569.632,53.44 C568.96,53.44 568.36,53.5573333 567.832,53.792 C567.304,54.0266667 566.885333,54.3626667 566.576,54.8 L566.576,54.8 L566.576,53.52 L565.104,53.52 L565.104,62 L566.64,62 Z M577.536,62 L577.536,59.68 L579.296,58.048 L582.48,62 L584.368,62 L580.448,57.024 L584.016,53.52 L582.16,53.52 L577.536,57.744 L577.536,50.128 L576,50.128 L576,62 L577.536,62 Z M588.176,62.096 C588.826667,62.096 589.389333,61.992 589.864,61.784 C590.338667,61.576 590.704,61.2746667 590.96,60.88 L590.96,60.88 L590.96,62 L592.416,62 L592.416,56.88 C592.416,55.7386667 592.104,54.88 591.48,54.304 C590.856,53.728 589.957333,53.44 588.784,53.44 C588.101333,53.44 587.456,53.5333333 586.848,53.72 C586.24,53.9066667 585.717333,54.176 585.28,54.528 L585.28,54.528 L585.92,55.68 C586.250667,55.4026667 586.656,55.1813333 587.136,55.016 C587.616,54.8506667 588.106667,54.768 588.608,54.768 C589.354667,54.768 589.92,54.944 590.304,55.296 C590.688,55.648 590.88,56.1546667 590.88,56.816 L590.88,56.816 L590.88,57.12 L588.448,57.12 C587.264,57.12 586.4,57.3466667 585.856,57.8 C585.312,58.2533333 585.04,58.8533333 585.04,59.6 C585.04,60.3466667 585.325333,60.9493333 585.896,61.408 C586.466667,61.8666667 587.226667,62.096 588.176,62.096 Z M588.432,60.912 C587.845333,60.912 587.386667,60.7893333 587.056,60.544 C586.725333,60.2986667 586.56,59.9626667 586.56,59.536 C586.56,58.6613333 587.210667,58.224 588.512,58.224 L588.512,58.224 L590.88,58.224 L590.88,59.408 C590.688,59.888 590.378667,60.2586667 589.952,60.52 C589.525333,60.7813333 589.018667,60.912 588.432,60.912 Z M596.8,62 L596.8,59.68 L598.56,58.048 L601.744,62 L603.632,62 L599.712,57.024 L603.28,53.52 L601.424,53.52 L596.8,57.744 L596.8,50.128 L595.264,50.128 L595.264,62 L596.8,62 Z M608.528,62.096 C609.125333,62.096 609.677333,61.976 610.184,61.736 C610.690667,61.496 611.098667,61.1573333 611.408,60.72 L611.408,60.72 L611.408,62 L612.864,62 L612.864,53.52 L611.328,53.52 L611.328,57.904 C611.328,58.8 611.093333,59.4933333 610.624,59.984 C610.154667,60.4746667 609.514667,60.72 608.704,60.72 C607.968,60.72 607.402667,60.5093333 607.008,60.088 C606.613333,59.6666667 606.416,59.0453333 606.416,58.224 L606.416,58.224 L606.416,53.52 L604.88,53.52 L604.88,58.4 C604.88,59.616 605.205333,60.536 605.856,61.16 C606.506667,61.784 607.397333,62.096 608.528,62.096 Z M617.328,62 L617.328,50.128 L615.792,50.128 L615.792,62 L617.328,62 Z M623.376,62.096 C623.728,62.096 624.069333,62.0453333 624.4,61.944 C624.730667,61.8426667 625.008,61.696 625.232,61.504 L625.232,61.504 L624.752,60.4 C624.421333,60.6666667 624.021333,60.8 623.552,60.8 C623.125333,60.8 622.797333,60.6773333 622.568,60.432 C622.338667,60.1866667 622.224,59.8346667 622.224,59.376 L622.224,59.376 L622.224,54.784 L624.656,54.784 L624.656,53.52 L622.224,53.52 L622.224,51.664 L620.688,51.664 L620.688,53.52 L619.248,53.52 L619.248,54.784 L620.688,54.784 L620.688,59.44 C620.688,60.2933333 620.922667,60.9493333 621.392,61.408 C621.861333,61.8666667 622.522667,62.096 623.376,62.096 Z M631.248,52.288 L633.936,50.208 L631.984,50.208 L629.808,52.288 L631.248,52.288 Z M630.656,62.096 C631.253333,62.096 631.805333,61.976 632.312,61.736 C632.818667,61.496 633.226667,61.1573333 633.536,60.72 L633.536,60.72 L633.536,62 L634.992,62 L634.992,53.52 L633.456,53.52 L633.456,57.904 C633.456,58.8 633.221333,59.4933333 632.752,59.984 C632.282667,60.4746667 631.642667,60.72 630.832,60.72 C630.096,60.72 629.530667,60.5093333 629.136,60.088 C628.741333,59.6666667 628.544,59.0453333 628.544,58.224 L628.544,58.224 L628.544,53.52 L627.008,53.52 L627.008,58.4 C627.008,59.616 627.333333,60.536 627.984,61.16 C628.634667,61.784 629.525333,62.096 630.656,62.096 Z M639.456,62 L639.456,57.776 C639.456,56.8586667 639.693333,56.152 640.168,55.656 C640.642667,55.16 641.296,54.912 642.128,54.912 C642.277333,54.912 642.394667,54.9173333 642.48,54.928 L642.48,54.928 L642.48,53.44 C641.733333,53.44 641.098667,53.568 640.576,53.824 C640.053333,54.08 639.658667,54.4533333 639.392,54.944 L639.392,54.944 L639.392,53.52 L637.92,53.52 L637.92,62 L639.456,62 Z M646.832,62.096 C647.482667,62.096 648.045333,61.992 648.52,61.784 C648.994667,61.576 649.36,61.2746667 649.616,60.88 L649.616,60.88 L649.616,62 L651.072,62 L651.072,56.88 C651.072,55.7386667 650.76,54.88 650.136,54.304 C649.512,53.728 648.613333,53.44 647.44,53.44 C646.757333,53.44 646.112,53.5333333 645.504,53.72 C644.896,53.9066667 644.373333,54.176 643.936,54.528 L643.936,54.528 L644.576,55.68 C644.906667,55.4026667 645.312,55.1813333 645.792,55.016 C646.272,54.8506667 646.762667,54.768 647.264,54.768 C648.010667,54.768 648.576,54.944 648.96,55.296 C649.344,55.648 649.536,56.1546667 649.536,56.816 L649.536,56.816 L649.536,57.12 L647.104,57.12 C645.92,57.12 645.056,57.3466667 644.512,57.8 C643.968,58.2533333 643.696,58.8533333 643.696,59.6 C643.696,60.3466667 643.981333,60.9493333 644.552,61.408 C645.122667,61.8666667 645.882667,62.096 646.832,62.096 Z M647.088,60.912 C646.501333,60.912 646.042667,60.7893333 645.712,60.544 C645.381333,60.2986667 645.216,59.9626667 645.216,59.536 C645.216,58.6613333 645.866667,58.224 647.168,58.224 L647.168,58.224 L649.536,58.224 L649.536,59.408 C649.344,59.888 649.034667,60.2586667 648.608,60.52 C648.181333,60.7813333 647.674667,60.912 647.088,60.912 Z M557.16,76.288 L559.848,74.208 L557.896,74.208 L555.72,76.288 L557.16,76.288 Z M557.24,86.096 C557.944,86.096 558.581333,85.9786667 559.152,85.744 C559.722667,85.5093333 560.2,85.168 560.584,84.72 L560.584,84.72 L559.736,83.728 C559.117333,84.4106667 558.301333,84.752 557.288,84.752 C556.456,84.752 555.76,84.5253333 555.2,84.072 C554.64,83.6186667 554.312,83.0186667 554.216,82.272 L554.216,82.272 L561.096,82.272 C561.117333,82.08 561.128,81.9253333 561.128,81.808 C561.128,80.9546667 560.949333,80.1973333 560.592,79.536 C560.234667,78.8746667 559.738667,78.36 559.104,77.992 C558.469333,77.624 557.746667,77.44 556.936,77.44 C556.125333,77.44 555.397333,77.624 554.752,77.992 C554.106667,78.36 553.6,78.8746667 553.232,79.536 C552.864,80.1973333 552.68,80.9386667 552.68,81.76 C552.68,82.592 552.869333,83.3386667 553.248,84 C553.626667,84.6613333 554.162667,85.176 554.856,85.544 C555.549333,85.912 556.344,86.096 557.24,86.096 Z M559.656,81.168 L554.216,81.168 C554.301333,80.4426667 554.592,79.856 555.088,79.408 C555.584,78.96 556.2,78.736 556.936,78.736 C557.672,78.736 558.288,78.9626667 558.784,79.416 C559.28,79.8693333 559.570667,80.4533333 559.656,81.168 L559.656,81.168 Z M565.688,86.096 C566.818667,86.096 567.712,85.8693333 568.368,85.416 C569.024,84.9626667 569.352,84.352 569.352,83.584 C569.352,83.008 569.202667,82.56 568.904,82.24 C568.605333,81.92 568.245333,81.6933333 567.824,81.56 C567.402667,81.4266667 566.850667,81.3013333 566.168,81.184 C565.656,81.088 565.258667,81.0026667 564.976,80.928 C564.693333,80.8533333 564.456,80.736 564.264,80.576 C564.072,80.416 563.976,80.1973333 563.976,79.92 C563.976,79.568 564.146667,79.2853333 564.488,79.072 C564.829333,78.8586667 565.325333,78.752 565.976,78.752 C566.914667,78.752 567.730667,78.976 568.424,79.424 L568.424,79.424 L569.08,78.208 C568.717333,77.9733333 568.253333,77.7866667 567.688,77.648 C567.122667,77.5093333 566.557333,77.44 565.992,77.44 C564.914667,77.44 564.056,77.672 563.416,78.136 C562.776,78.6 562.456,79.216 562.456,79.984 C562.456,80.5813333 562.610667,81.0453333 562.92,81.376 C563.229333,81.7066667 563.6,81.9413333 564.032,82.08 C564.464,82.2186667 565.021333,82.3413333 565.704,82.448 C566.205333,82.5333333 566.592,82.6106667 566.864,82.68 C567.136,82.7493333 567.362667,82.8586667 567.544,83.008 C567.725333,83.1573333 567.816,83.36 567.816,83.616 C567.816,84.384 567.144,84.768 565.8,84.768 C565.256,84.768 564.717333,84.688 564.184,84.528 C563.650667,84.368 563.197333,84.1546667 562.824,83.888 L562.824,83.888 L562.184,85.104 C562.546667,85.392 563.048,85.6293333 563.688,85.816 C564.328,86.0026667 564.994667,86.096 565.688,86.096 Z M579.352,86.096 C580.056,86.096 580.693333,85.9786667 581.264,85.744 C581.834667,85.5093333 582.312,85.168 582.696,84.72 L582.696,84.72 L581.848,83.728 C581.229333,84.4106667 580.413333,84.752 579.4,84.752 C578.568,84.752 577.872,84.5253333 577.312,84.072 C576.752,83.6186667 576.424,83.0186667 576.328,82.272 L576.328,82.272 L583.208,82.272 C583.229333,82.08 583.24,81.9253333 583.24,81.808 C583.24,80.9546667 583.061333,80.1973333 582.704,79.536 C582.346667,78.8746667 581.850667,78.36 581.216,77.992 C580.581333,77.624 579.858667,77.44 579.048,77.44 C578.237333,77.44 577.509333,77.624 576.864,77.992 C576.218667,78.36 575.712,78.8746667 575.344,79.536 C574.976,80.1973333 574.792,80.9386667 574.792,81.76 C574.792,82.592 574.981333,83.3386667 575.36,84 C575.738667,84.6613333 576.274667,85.176 576.968,85.544 C577.661333,85.912 578.456,86.096 579.352,86.096 Z M581.768,81.168 L576.328,81.168 C576.413333,80.4426667 576.704,79.856 577.2,79.408 C577.696,78.96 578.312,78.736 579.048,78.736 C579.784,78.736 580.4,78.9626667 580.896,79.416 C581.392,79.8693333 581.682667,80.4533333 581.768,81.168 L581.768,81.168 Z M586.904,86 L586.904,74.128 L585.368,74.128 L585.368,86 L586.904,86 Z M592.696,76.288 L594.472,74.208 L592.84,74.208 L591.4,76.288 L592.696,76.288 Z M595.496,76.288 L597.24,74.208 L595.624,74.208 L594.2,76.288 L595.496,76.288 Z M593.464,86.096 C594.306667,86.096 595.061333,85.9093333 595.728,85.536 C596.394667,85.1626667 596.917333,84.648 597.296,83.992 C597.674667,83.336 597.864,82.592 597.864,81.76 C597.864,80.928 597.674667,80.184 597.296,79.528 C596.917333,78.872 596.394667,78.36 595.728,77.992 C595.061333,77.624 594.306667,77.44 593.464,77.44 C592.621333,77.44 591.864,77.624 591.192,77.992 C590.52,78.36 589.994667,78.872 589.616,79.528 C589.237333,80.184 589.048,80.928 589.048,81.76 C589.048,82.592 589.237333,83.336 589.616,83.992 C589.994667,84.648 590.52,85.1626667 591.192,85.536 C591.864,85.9093333 592.621333,86.096 593.464,86.096 Z M593.464,84.752 C592.92,84.752 592.432,84.6266667 592,84.376 C591.568,84.1253333 591.226667,83.7733333 590.976,83.32 C590.725333,82.8666667 590.6,82.3466667 590.6,81.76 C590.6,81.1733333 590.725333,80.6533333 590.976,80.2 C591.226667,79.7466667 591.568,79.3973333 592,79.152 C592.432,78.9066667 592.92,78.784 593.464,78.784 C594.008,78.784 594.496,78.9066667 594.928,79.152 C595.36,79.3973333 595.698667,79.7466667 595.944,80.2 C596.189333,80.6533333 596.312,81.1733333 596.312,81.76 C596.312,82.3466667 596.189333,82.8666667 595.944,83.32 C595.698667,83.7733333 595.36,84.1253333 594.928,84.376 C594.496,84.6266667 594.008,84.752 593.464,84.752 Z M601.528,86 L601.528,81.632 C601.528,80.7253333 601.768,80.0293333 602.248,79.544 C602.728,79.0586667 603.384,78.816 604.216,78.816 C604.952,78.816 605.517333,79.024 605.912,79.44 C606.306667,79.856 606.504,80.4746667 606.504,81.296 L606.504,81.296 L606.504,86 L608.04,86 L608.04,81.12 C608.04,79.9146667 607.722667,79 607.088,78.376 C606.453333,77.752 605.597333,77.44 604.52,77.44 C603.848,77.44 603.248,77.5573333 602.72,77.792 C602.192,78.0266667 601.773333,78.3626667 601.464,78.8 L601.464,78.8 L601.464,77.52 L599.992,77.52 L599.992,86 L601.528,86 Z M611.096,89.2 C611.778667,89.2 612.362667,89.024 612.848,88.672 C613.333333,88.32 613.757333,87.712 614.12,86.848 L614.12,86.848 L618.232,77.52 L616.728,77.52 L613.8,84.304 L610.84,77.52 L609.24,77.52 L612.984,85.984 L612.712,86.576 C612.509333,87.056 612.282667,87.3946667 612.032,87.592 C611.781333,87.7893333 611.469333,87.888 611.096,87.888 C610.52,87.888 610.013333,87.68 609.576,87.264 L609.576,87.264 L608.92,88.416 C609.176,88.672 609.498667,88.8666667 609.888,89 C610.277333,89.1333333 610.68,89.2 611.096,89.2 Z M621.56,76.016 C621.784,76.016 621.976,75.9386667 622.136,75.784 C622.296,75.6293333 622.376,75.4346667 622.376,75.2 C622.376,74.9653333 622.296,74.768 622.136,74.608 C621.976,74.448 621.784,74.368 621.56,74.368 C621.336,74.368 621.144,74.448 620.984,74.608 C620.824,74.768 620.744,74.9653333 620.744,75.2 C620.744,75.4346667 620.824,75.6293333 620.984,75.784 C621.144,75.9386667 621.336,76.016 621.56,76.016 Z M624.536,76.016 C624.76,76.016 624.952,75.9386667 625.112,75.784 C625.272,75.6293333 625.352,75.4346667 625.352,75.2 C625.352,74.9653333 625.272,74.768 625.112,74.608 C624.952,74.448 624.76,74.368 624.536,74.368 C624.312,74.368 624.12,74.448 623.96,74.608 C623.8,74.768 623.72,74.9653333 623.72,75.2 C623.72,75.4346667 623.8,75.6293333 623.96,75.784 C624.12,75.9386667 624.312,76.016 624.536,76.016 Z M623.064,86.096 C623.906667,86.096 624.661333,85.9093333 625.328,85.536 C625.994667,85.1626667 626.517333,84.648 626.896,83.992 C627.274667,83.336 627.464,82.592 627.464,81.76 C627.464,80.928 627.274667,80.184 626.896,79.528 C626.517333,78.872 625.994667,78.36 625.328,77.992 C624.661333,77.624 623.906667,77.44 623.064,77.44 C622.221333,77.44 621.464,77.624 620.792,77.992 C620.12,78.36 619.594667,78.872 619.216,79.528 C618.837333,80.184 618.648,80.928 618.648,81.76 C618.648,82.592 618.837333,83.336 619.216,83.992 C619.594667,84.648 620.12,85.1626667 620.792,85.536 C621.464,85.9093333 622.221333,86.096 623.064,86.096 Z M623.064,84.752 C622.52,84.752 622.032,84.6266667 621.6,84.376 C621.168,84.1253333 620.826667,83.7733333 620.576,83.32 C620.325333,82.8666667 620.2,82.3466667 620.2,81.76 C620.2,81.1733333 620.325333,80.6533333 620.576,80.2 C620.826667,79.7466667 621.168,79.3973333 621.6,79.152 C622.032,78.9066667 622.52,78.784 623.064,78.784 C623.608,78.784 624.096,78.9066667 624.528,79.152 C624.96,79.3973333 625.298667,79.7466667 625.544,80.2 C625.789333,80.6533333 625.912,81.1733333 625.912,81.76 C625.912,82.3466667 625.789333,82.8666667 625.544,83.32 C625.298667,83.7733333 624.96,84.1253333 624.528,84.376 C624.096,84.6266667 623.608,84.752 623.064,84.752 Z M631.128,86 L631.128,83.68 L632.888,82.048 L636.072,86 L637.96,86 L634.04,81.024 L637.608,77.52 L635.752,77.52 L631.128,81.744 L631.128,74.128 L629.592,74.128 L629.592,86 L631.128,86 Z" id="Munkakultúraéselőnyök" fill="#323C50" fill-rule="nonzero"></path>
                <path d="M831.888,62.192 C832.912,62.192 833.781333,62.0373333 834.496,61.728 C835.210667,61.4186667 835.746667,61 836.104,60.472 C836.461333,59.944 836.64,59.36 836.64,58.72 C836.64,57.9733333 836.445333,57.3813333 836.056,56.944 C835.666667,56.5066667 835.2,56.1866667 834.656,55.984 C834.112,55.7813333 833.413333,55.5786667 832.56,55.376 C831.738667,55.1946667 831.128,55.0106667 830.728,54.824 C830.328,54.6373333 830.128,54.352 830.128,53.968 C830.128,53.584 830.301333,53.2746667 830.648,53.04 C830.994667,52.8053333 831.530667,52.688 832.256,52.688 C833.290667,52.688 834.325333,52.9813333 835.36,53.568 L835.36,53.568 L836.16,51.6 C835.648,51.28 835.050667,51.0346667 834.368,50.864 C833.685333,50.6933333 832.986667,50.608 832.272,50.608 C831.248,50.608 830.381333,50.7626667 829.672,51.072 C828.962667,51.3813333 828.432,51.8 828.08,52.328 C827.728,52.856 827.552,53.4453333 827.552,54.096 C827.552,54.8426667 827.746667,55.44 828.136,55.888 C828.525333,56.336 828.992,56.6613333 829.536,56.864 C830.08,57.0666667 830.778667,57.2693333 831.632,57.472 C832.186667,57.6 832.626667,57.7173333 832.952,57.824 C833.277333,57.9306667 833.544,58.072 833.752,58.248 C833.96,58.424 834.064,58.6453333 834.064,58.912 C834.064,59.2746667 833.888,59.5653333 833.536,59.784 C833.184,60.0026667 832.64,60.112 831.904,60.112 C831.242667,60.112 830.581333,60.0053333 829.92,59.792 C829.258667,59.5786667 828.688,59.296 828.208,58.944 L828.208,58.944 L827.328,60.896 C827.829333,61.28 828.493333,61.592 829.32,61.832 C830.146667,62.072 831.002667,62.192 831.888,62.192 Z M845.328,62 L845.328,60.08 L840.8,60.08 L845.184,54.896 L845.184,53.392 L837.76,53.392 L837.76,55.312 L842.032,55.312 L837.648,60.496 L837.648,62 L845.328,62 Z M849.264,52.208 C849.584,52.208 849.848,52.104 850.056,51.896 C850.264,51.688 850.368,51.424 850.368,51.104 C850.368,50.784 850.264,50.52 850.056,50.312 C849.848,50.104 849.584,50 849.264,50 C848.944,50 848.677333,50.104 848.464,50.312 C848.250667,50.52 848.144,50.784 848.144,51.104 C848.144,51.424 848.250667,51.688 848.464,51.896 C848.677333,52.104 848.944,52.208 849.264,52.208 Z M852.496,52.208 C852.816,52.208 853.082667,52.104 853.296,51.896 C853.509333,51.688 853.616,51.424 853.616,51.104 C853.616,50.784 853.509333,50.52 853.296,50.312 C853.082667,50.104 852.816,50 852.496,50 C852.176,50 851.912,50.104 851.704,50.312 C851.496,50.52 851.392,50.784 851.392,51.104 C851.392,51.424 851.496,51.688 851.704,51.896 C851.912,52.104 852.176,52.208 852.496,52.208 Z M850.912,62.128 C851.818667,62.128 852.629333,61.9386667 853.344,61.56 C854.058667,61.1813333 854.618667,60.656 855.024,59.984 C855.429333,59.312 855.632,58.5493333 855.632,57.696 C855.632,56.8426667 855.429333,56.08 855.024,55.408 C854.618667,54.736 854.058667,54.2106667 853.344,53.832 C852.629333,53.4533333 851.818667,53.264 850.912,53.264 C850.005333,53.264 849.192,53.4533333 848.472,53.832 C847.752,54.2106667 847.189333,54.736 846.784,55.408 C846.378667,56.08 846.176,56.8426667 846.176,57.696 C846.176,58.5493333 846.378667,59.312 846.784,59.984 C847.189333,60.656 847.752,61.1813333 848.472,61.56 C849.192,61.9386667 850.005333,62.128 850.912,62.128 Z M850.912,60.08 C850.272,60.08 849.744,59.864 849.328,59.432 C848.912,59 848.704,58.4213333 848.704,57.696 C848.704,56.9706667 848.912,56.392 849.328,55.96 C849.744,55.528 850.272,55.312 850.912,55.312 C851.552,55.312 852.077333,55.528 852.488,55.96 C852.898667,56.392 853.104,56.9706667 853.104,57.696 C853.104,58.4213333 852.898667,59 852.488,59.432 C852.077333,59.864 851.552,60.08 850.912,60.08 Z M861.968,62 L865.6,53.392 L863.2,53.392 L860.736,59.248 L858.352,53.392 L855.776,53.392 L859.392,62 L861.968,62 Z M870.656,62.128 C872.213333,62.128 873.397333,61.664 874.208,60.736 L874.208,60.736 L872.88,59.296 C872.581333,59.584 872.258667,59.7946667 871.912,59.928 C871.565333,60.0613333 871.168,60.128 870.72,60.128 C870.069333,60.128 869.525333,59.9733333 869.088,59.664 C868.650667,59.3546667 868.373333,58.9333333 868.256,58.4 L868.256,58.4 L874.768,58.4 C874.8,57.984 874.816,57.76 874.816,57.728 C874.816,56.832 874.621333,56.0453333 874.232,55.368 C873.842667,54.6906667 873.306667,54.1706667 872.624,53.808 C871.941333,53.4453333 871.178667,53.264 870.336,53.264 C869.472,53.264 868.690667,53.4533333 867.992,53.832 C867.293333,54.2106667 866.744,54.7386667 866.344,55.416 C865.944,56.0933333 865.744,56.8533333 865.744,57.696 C865.744,58.5493333 865.946667,59.312 866.352,59.984 C866.757333,60.656 867.333333,61.1813333 868.08,61.56 C868.826667,61.9386667 869.685333,62.128 870.656,62.128 Z M872.464,56.944 L868.224,56.944 C868.309333,56.3893333 868.544,55.952 868.928,55.632 C869.312,55.312 869.786667,55.152 870.352,55.152 C870.906667,55.152 871.376,55.3146667 871.76,55.64 C872.144,55.9653333 872.378667,56.4 872.464,56.944 L872.464,56.944 Z M880.528,65.232 C882.106667,65.232 883.306667,64.848 884.128,64.08 C884.949333,63.312 885.36,62.1386667 885.36,60.56 L885.36,60.56 L885.36,53.392 L882.992,53.392 L882.992,54.496 C882.341333,53.6746667 881.392,53.264 880.144,53.264 C879.354667,53.264 878.632,53.4373333 877.976,53.784 C877.32,54.1306667 876.8,54.6186667 876.416,55.248 C876.032,55.8773333 875.84,56.6026667 875.84,57.424 C875.84,58.2453333 876.032,58.9706667 876.416,59.6 C876.8,60.2293333 877.32,60.7173333 877.976,61.064 C878.632,61.4106667 879.354667,61.584 880.144,61.584 C881.306667,61.584 882.213333,61.2266667 882.864,60.512 L882.864,60.512 L882.864,60.88 C882.864,61.6693333 882.658667,62.2586667 882.248,62.648 C881.837333,63.0373333 881.2,63.232 880.336,63.232 C879.781333,63.232 879.226667,63.144 878.672,62.968 C878.117333,62.792 877.658667,62.5546667 877.296,62.256 L877.296,62.256 L876.304,64.048 C876.794667,64.432 877.413333,64.7253333 878.16,64.928 C878.906667,65.1306667 879.696,65.232 880.528,65.232 Z M880.64,59.536 C879.978667,59.536 879.434667,59.3413333 879.008,58.952 C878.581333,58.5626667 878.368,58.0533333 878.368,57.424 C878.368,56.7946667 878.581333,56.2853333 879.008,55.896 C879.434667,55.5066667 879.978667,55.312 880.64,55.312 C881.301333,55.312 881.842667,55.5066667 882.264,55.896 C882.685333,56.2853333 882.896,56.7946667 882.896,57.424 C882.896,58.0533333 882.685333,58.5626667 882.264,58.952 C881.842667,59.3413333 881.301333,59.536 880.64,59.536 Z M891.952,62.128 C893.509333,62.128 894.693333,61.664 895.504,60.736 L895.504,60.736 L894.176,59.296 C893.877333,59.584 893.554667,59.7946667 893.208,59.928 C892.861333,60.0613333 892.464,60.128 892.016,60.128 C891.365333,60.128 890.821333,59.9733333 890.384,59.664 C889.946667,59.3546667 889.669333,58.9333333 889.552,58.4 L889.552,58.4 L896.064,58.4 C896.096,57.984 896.112,57.76 896.112,57.728 C896.112,56.832 895.917333,56.0453333 895.528,55.368 C895.138667,54.6906667 894.602667,54.1706667 893.92,53.808 C893.237333,53.4453333 892.474667,53.264 891.632,53.264 C890.768,53.264 889.986667,53.4533333 889.288,53.832 C888.589333,54.2106667 888.04,54.7386667 887.64,55.416 C887.24,56.0933333 887.04,56.8533333 887.04,57.696 C887.04,58.5493333 887.242667,59.312 887.648,59.984 C888.053333,60.656 888.629333,61.1813333 889.376,61.56 C890.122667,61.9386667 890.981333,62.128 891.952,62.128 Z M893.76,56.944 L889.52,56.944 C889.605333,56.3893333 889.84,55.952 890.224,55.632 C890.608,55.312 891.082667,55.152 891.648,55.152 C892.202667,55.152 892.672,55.3146667 893.056,55.64 C893.44,55.9653333 893.674667,56.4 893.76,56.944 L893.76,56.944 Z M900.672,62.128 C901.514667,62.128 902.242667,62.0133333 902.856,61.784 C903.469333,61.5546667 903.936,61.232 904.256,60.816 C904.576,60.4 904.736,59.9253333 904.736,59.392 C904.736,58.7626667 904.570667,58.272 904.24,57.92 C903.909333,57.568 903.52,57.3253333 903.072,57.192 C902.624,57.0586667 902.048,56.9333333 901.344,56.816 C900.714667,56.72 900.256,56.6186667 899.968,56.512 C899.68,56.4053333 899.536,56.2186667 899.536,55.952 C899.536,55.7173333 899.669333,55.5253333 899.936,55.376 C900.202667,55.2266667 900.602667,55.152 901.136,55.152 C902.032,55.152 902.858667,55.3653333 903.616,55.792 L903.616,55.792 L904.448,54.016 C904.053333,53.7813333 903.554667,53.5973333 902.952,53.464 C902.349333,53.3306667 901.744,53.264 901.136,53.264 C900.314667,53.264 899.602667,53.3813333 899,53.616 C898.397333,53.8506667 897.938667,54.1786667 897.624,54.6 C897.309333,55.0213333 897.152,55.504 897.152,56.048 C897.152,56.6986667 897.32,57.2 897.656,57.552 C897.992,57.904 898.389333,58.1493333 898.848,58.288 C899.306667,58.4266667 899.888,58.5493333 900.592,58.656 C901.189333,58.7306667 901.632,58.8213333 901.92,58.928 C902.208,59.0346667 902.352,59.2106667 902.352,59.456 C902.352,59.9786667 901.824,60.24 900.768,60.24 C900.245333,60.24 899.712,60.1626667 899.168,60.008 C898.624,59.8533333 898.16,59.6533333 897.776,59.408 L897.776,59.408 L896.944,61.2 C897.349333,61.4666667 897.893333,61.688 898.576,61.864 C899.258667,62.04 899.957333,62.128 900.672,62.128 Z M831.176,86 L834.808,77.392 L832.408,77.392 L829.944,83.248 L827.56,77.392 L824.984,77.392 L828.6,86 L831.176,86 Z M839.992,76.288 L842.888,73.984 L840.2,73.984 L838.04,76.288 L839.992,76.288 Z M839.864,86.128 C841.421333,86.128 842.605333,85.664 843.416,84.736 L843.416,84.736 L842.088,83.296 C841.789333,83.584 841.466667,83.7946667 841.12,83.928 C840.773333,84.0613333 840.376,84.128 839.928,84.128 C839.277333,84.128 838.733333,83.9733333 838.296,83.664 C837.858667,83.3546667 837.581333,82.9333333 837.464,82.4 L837.464,82.4 L843.976,82.4 C844.008,81.984 844.024,81.76 844.024,81.728 C844.024,80.832 843.829333,80.0453333 843.44,79.368 C843.050667,78.6906667 842.514667,78.1706667 841.832,77.808 C841.149333,77.4453333 840.386667,77.264 839.544,77.264 C838.68,77.264 837.898667,77.4533333 837.2,77.832 C836.501333,78.2106667 835.952,78.7386667 835.552,79.416 C835.152,80.0933333 834.952,80.8533333 834.952,81.696 C834.952,82.5493333 835.154667,83.312 835.56,83.984 C835.965333,84.656 836.541333,85.1813333 837.288,85.56 C838.034667,85.9386667 838.893333,86.128 839.864,86.128 Z M841.672,80.944 L837.432,80.944 C837.517333,80.3893333 837.752,79.952 838.136,79.632 C838.52,79.312 838.994667,79.152 839.56,79.152 C840.114667,79.152 840.584,79.3146667 840.968,79.64 C841.352,79.9653333 841.586667,80.4 841.672,80.944 L841.672,80.944 Z M848.184,86 L848.184,74.128 L845.688,74.128 L845.688,86 L848.184,86 Z M854.776,86.128 C856.333333,86.128 857.517333,85.664 858.328,84.736 L858.328,84.736 L857,83.296 C856.701333,83.584 856.378667,83.7946667 856.032,83.928 C855.685333,84.0613333 855.288,84.128 854.84,84.128 C854.189333,84.128 853.645333,83.9733333 853.208,83.664 C852.770667,83.3546667 852.493333,82.9333333 852.376,82.4 L852.376,82.4 L858.888,82.4 C858.92,81.984 858.936,81.76 858.936,81.728 C858.936,80.832 858.741333,80.0453333 858.352,79.368 C857.962667,78.6906667 857.426667,78.1706667 856.744,77.808 C856.061333,77.4453333 855.298667,77.264 854.456,77.264 C853.592,77.264 852.810667,77.4533333 852.112,77.832 C851.413333,78.2106667 850.864,78.7386667 850.464,79.416 C850.064,80.0933333 849.864,80.8533333 849.864,81.696 C849.864,82.5493333 850.066667,83.312 850.472,83.984 C850.877333,84.656 851.453333,85.1813333 852.2,85.56 C852.946667,85.9386667 853.805333,86.128 854.776,86.128 Z M856.584,80.944 L852.344,80.944 C852.429333,80.3893333 852.664,79.952 853.048,79.632 C853.432,79.312 853.906667,79.152 854.472,79.152 C855.026667,79.152 855.496,79.3146667 855.88,79.64 C856.264,79.9653333 856.498667,80.4 856.584,80.944 L856.584,80.944 Z M863.096,86 L863.096,81.68 C863.096,80.9333333 863.266667,80.3706667 863.608,79.992 C863.949333,79.6133333 864.408,79.424 864.984,79.424 C866.072,79.424 866.616,80.1013333 866.616,81.456 L866.616,81.456 L866.616,86 L869.112,86 L869.112,81.68 C869.112,80.9333333 869.282667,80.3706667 869.624,79.992 C869.965333,79.6133333 870.429333,79.424 871.016,79.424 C871.538667,79.424 871.941333,79.592 872.224,79.928 C872.506667,80.264 872.648,80.7733333 872.648,81.456 L872.648,81.456 L872.648,86 L875.144,86 L875.144,81.072 C875.144,79.8026667 874.826667,78.8506667 874.192,78.216 C873.557333,77.5813333 872.701333,77.264 871.624,77.264 C870.984,77.264 870.394667,77.3866667 869.856,77.632 C869.317333,77.8773333 868.872,78.224 868.52,78.672 C868.221333,78.2133333 867.826667,77.864 867.336,77.624 C866.845333,77.384 866.296,77.264 865.688,77.264 C865.133333,77.264 864.624,77.36 864.16,77.552 C863.696,77.744 863.304,78.0213333 862.984,78.384 L862.984,78.384 L862.984,77.392 L860.6,77.392 L860.6,86 L863.096,86 Z M881.88,76.288 L884.776,73.984 L882.088,73.984 L879.928,76.288 L881.88,76.288 Z M881.752,86.128 C883.309333,86.128 884.493333,85.664 885.304,84.736 L885.304,84.736 L883.976,83.296 C883.677333,83.584 883.354667,83.7946667 883.008,83.928 C882.661333,84.0613333 882.264,84.128 881.816,84.128 C881.165333,84.128 880.621333,83.9733333 880.184,83.664 C879.746667,83.3546667 879.469333,82.9333333 879.352,82.4 L879.352,82.4 L885.864,82.4 C885.896,81.984 885.912,81.76 885.912,81.728 C885.912,80.832 885.717333,80.0453333 885.328,79.368 C884.938667,78.6906667 884.402667,78.1706667 883.72,77.808 C883.037333,77.4453333 882.274667,77.264 881.432,77.264 C880.568,77.264 879.786667,77.4533333 879.088,77.832 C878.389333,78.2106667 877.84,78.7386667 877.44,79.416 C877.04,80.0933333 876.84,80.8533333 876.84,81.696 C876.84,82.5493333 877.042667,83.312 877.448,83.984 C877.853333,84.656 878.429333,85.1813333 879.176,85.56 C879.922667,85.9386667 880.781333,86.128 881.752,86.128 Z M883.56,80.944 L879.32,80.944 C879.405333,80.3893333 879.64,79.952 880.024,79.632 C880.408,79.312 880.882667,79.152 881.448,79.152 C882.002667,79.152 882.472,79.3146667 882.856,79.64 C883.24,79.9653333 883.474667,80.4 883.56,80.944 L883.56,80.944 Z M890.072,86 L890.072,81.744 C890.072,80.976 890.258667,80.3973333 890.632,80.008 C891.005333,79.6186667 891.506667,79.424 892.136,79.424 C892.701333,79.424 893.133333,79.592 893.432,79.928 C893.730667,80.264 893.88,80.7733333 893.88,81.456 L893.88,81.456 L893.88,86 L896.376,86 L896.376,81.072 C896.376,79.8133333 896.048,78.864 895.392,78.224 C894.736,77.584 893.874667,77.264 892.808,77.264 C892.221333,77.264 891.682667,77.3626667 891.192,77.56 C890.701333,77.7573333 890.290667,78.0373333 889.96,78.4 L889.96,78.4 L889.96,77.392 L887.576,77.392 L887.576,86 L890.072,86 Z M899.56,89.232 C900.381333,89.232 901.082667,89.0293333 901.664,88.624 C902.245333,88.2186667 902.733333,87.52 903.128,86.528 L903.128,86.528 L907.016,77.392 L904.616,77.392 L902.184,83.232 L899.768,77.392 L897.192,77.392 L900.92,86.064 L900.888,86.144 C900.717333,86.528 900.525333,86.8026667 900.312,86.968 C900.098667,87.1333333 899.821333,87.216 899.48,87.216 C899.234667,87.216 898.986667,87.168 898.736,87.072 C898.485333,86.976 898.264,86.8426667 898.072,86.672 L898.072,86.672 L897.16,88.448 C897.437333,88.6933333 897.794667,88.8853333 898.232,89.024 C898.669333,89.1626667 899.112,89.232 899.56,89.232 Z" id="Szövegesvélemény" fill="#323C50" fill-rule="nonzero"></path>
                <line x1="357" y1="17.5" x2="561" y2="17.5" id="Line-Copy-4" stroke="#4A589F" stroke-width="1.5" stroke-linecap="square"></line>
                <path d="M48.9375,23.875 C49.0234375,23.875 49.109375,23.8570964 49.1953125,23.8212891 C49.28125,23.7854818 49.360026,23.7389323 49.4316406,23.6816406 L59.0566406,14.0566406 C59.1855469,13.9134115 59.25,13.7486979 59.25,13.5625 C59.25,13.3763021 59.1855469,13.2115885 59.0566406,13.0683594 C58.9134115,12.9394531 58.7486979,12.875 58.5625,12.875 C58.3763021,12.875 58.2115885,12.9394531 58.0683594,13.0683594 L48.9375,22.2207031 L45.3066406,18.5683594 C45.1634115,18.4394531 44.9986979,18.375 44.8125,18.375 C44.6263021,18.375 44.4615885,18.4394531 44.3183594,18.5683594 C44.1894531,18.7115885 44.125,18.8763021 44.125,19.0625 C44.125,19.2486979 44.1894531,19.4134115 44.3183594,19.5566406 L48.4433594,23.6816406 C48.514974,23.7389323 48.59375,23.7854818 48.6796875,23.8212891 C48.765625,23.8570964 48.8515625,23.875 48.9375,23.875 Z" id="" fill="#FFFFFF" fill-rule="nonzero"></path>
                <path d="M320.9375,23.875 C321.023438,23.875 321.109375,23.8570964 321.195312,23.8212891 C321.28125,23.7854818 321.360026,23.7389323 321.431641,23.6816406 L331.056641,14.0566406 C331.185547,13.9134115 331.25,13.7486979 331.25,13.5625 C331.25,13.3763021 331.185547,13.2115885 331.056641,13.0683594 C330.913411,12.9394531 330.748698,12.875 330.5625,12.875 C330.376302,12.875 330.211589,12.9394531 330.068359,13.0683594 L320.9375,22.2207031 L317.306641,18.5683594 C317.163411,18.4394531 316.998698,18.375 316.8125,18.375 C316.626302,18.375 316.461589,18.4394531 316.318359,18.5683594 C316.189453,18.7115885 316.125,18.8763021 316.125,19.0625 C316.125,19.2486979 316.189453,19.4134115 316.318359,19.5566406 L320.443359,23.6816406 C320.514974,23.7389323 320.59375,23.7854818 320.679688,23.8212891 C320.765625,23.8570964 320.851562,23.875 320.9375,23.875 Z" id="" fill="#FFFFFF" fill-rule="nonzero"></path>
                <path d="M592.9375,23.875 C593.023438,23.875 593.109375,23.8570964 593.195312,23.8212891 C593.28125,23.7854818 593.360026,23.7389323 593.431641,23.6816406 L603.056641,14.0566406 C603.185547,13.9134115 603.25,13.7486979 603.25,13.5625 C603.25,13.3763021 603.185547,13.2115885 603.056641,13.0683594 C602.913411,12.9394531 602.748698,12.875 602.5625,12.875 C602.376302,12.875 602.211589,12.9394531 602.068359,13.0683594 L592.9375,22.2207031 L589.306641,18.5683594 C589.163411,18.4394531 588.998698,18.375 588.8125,18.375 C588.626302,18.375 588.461589,18.4394531 588.318359,18.5683594 C588.189453,18.7115885 588.125,18.8763021 588.125,19.0625 C588.125,19.2486979 588.189453,19.4134115 588.318359,19.5566406 L592.443359,23.6816406 C592.514974,23.7389323 592.59375,23.7854818 592.679688,23.8212891 C592.765625,23.8570964 592.851562,23.875 592.9375,23.875 Z" id="" fill="#FFFFFF" fill-rule="nonzero"></path>
                <circle id="Oval" stroke="#4A589F" stroke-width="1.5" cx="323" cy="18" r="17.25"></circle>
                <circle id="Oval-Copy-8" stroke="#4A589F" stroke-width="1.5" cx="595" cy="18" r="17.25"></circle>
                <circle id="Oval-Copy-6" stroke="#4A589F" stroke-width="1.5" cx="867" cy="18" r="17.25"></circle>
                <circle id="Oval-Copy-7" fill="#4A589F" cx="867" cy="18" r="8"></circle>
                <line x1="85" y1="17.5" x2="289" y2="17.5" id="Line-Copy-3" stroke="#4A589F" stroke-width="1.5" stroke-linecap="square"></line>
                <line x1="629" y1="17.5" x2="833" y2="17.5" id="Line-Copy-5" stroke="#4A589F" stroke-width="1.5" stroke-linecap="square"></line>
            </g>
        </g>
    </g>
</svg>