<?xml version="1.0" encoding="UTF-8"?>
<svg width="910px" height="91px" viewBox="0 0 910 91" version="1.1" xmlns="http://www.w3.org/2000/svg" xmlns:xlink="http://www.w3.org/1999/xlink">
    <!-- Generator: Sketch 63 (92445) - https://sketch.com -->
    <title>Group 3</title>
    <desc>Created with Sketch.</desc>
    <g id="Profession-vélemények---UI-Desktop---960px" stroke="none" stroke-width="1" fill="none" fill-rule="evenodd">
        <g id="Lépés-1---illustration---Értékelő-form---Desktop--Copy" transform="translate(-178.000000, -255.000000)">
            <g id="Group-3" transform="translate(178.000000, 255.000000)">
                <path d="M3.116,62 L3.116,55.424 L6.396,60.816 L7.564,60.816 L10.86,55.28 L10.876,62 L13.308,62 L13.276,50.8 L11.148,50.8 L7.02,57.76 L2.828,50.8 L0.684,50.8 L0.684,62 L3.116,62 Z M19.42,62.128 C19.9533333,62.128 20.4493333,62.0293333 20.908,61.832 C21.3666667,61.6346667 21.7613333,61.3493333 22.092,60.976 L22.092,60.976 L22.092,62 L24.46,62 L24.46,53.392 L21.964,53.392 L21.964,57.648 C21.964,58.416 21.7826667,58.9946667 21.42,59.384 C21.0573333,59.7733333 20.5773333,59.968 19.98,59.968 C18.8173333,59.968 18.236,59.2746667 18.236,57.888 L18.236,57.888 L18.236,53.392 L15.74,53.392 L15.74,58.256 C15.74,59.536 16.0706667,60.5013333 16.732,61.152 C17.3933333,61.8026667 18.2893333,62.128 19.42,62.128 Z M29.276,62 L29.276,57.744 C29.276,56.976 29.4626667,56.3973333 29.836,56.008 C30.2093333,55.6186667 30.7106667,55.424 31.34,55.424 C31.9053333,55.424 32.3373333,55.592 32.636,55.928 C32.9346667,56.264 33.084,56.7733333 33.084,57.456 L33.084,57.456 L33.084,62 L35.58,62 L35.58,57.072 C35.58,55.8133333 35.252,54.864 34.596,54.224 C33.94,53.584 33.0786667,53.264 32.012,53.264 C31.4253333,53.264 30.8866667,53.3626667 30.396,53.56 C29.9053333,53.7573333 29.4946667,54.0373333 29.164,54.4 L29.164,54.4 L29.164,53.392 L26.78,53.392 L26.78,62 L29.276,62 Z M40.332,62 L40.332,59.808 L41.532,58.624 L44.252,62 L47.276,62 L43.372,57.04 L46.956,53.392 L43.98,53.392 L40.332,56.848 L40.332,50.128 L37.836,50.128 L37.836,62 L40.332,62 Z M50.892,62.128 C52.172,62.128 53.0466667,61.728 53.516,60.928 L53.516,60.928 L53.516,62 L55.852,62 L55.852,57.088 C55.852,55.808 55.4946667,54.8506667 54.78,54.216 C54.0653333,53.5813333 53.0413333,53.264 51.708,53.264 C51.0146667,53.264 50.34,53.3546667 49.684,53.536 C49.028,53.7173333 48.4653333,53.9733333 47.996,54.304 L47.996,54.304 L48.892,56.048 C49.2013333,55.8026667 49.5773333,55.608 50.02,55.464 C50.4626667,55.32 50.9133333,55.248 51.372,55.248 C52.0333333,55.248 52.5293333,55.3946667 52.86,55.688 C53.1906667,55.9813333 53.356,56.4 53.356,56.944 L53.356,56.944 L51.372,56.944 C50.1133333,56.944 49.1826667,57.1733333 48.58,57.632 C47.9773333,58.0906667 47.676,58.72 47.676,59.52 C47.676,60.0213333 47.804,60.4693333 48.06,60.864 C48.316,61.2586667 48.6866667,61.568 49.172,61.792 C49.6573333,62.016 50.2306667,62.128 50.892,62.128 Z M51.516,60.448 C51.0786667,60.448 50.7346667,60.3546667 50.484,60.168 C50.2333333,59.9813333 50.108,59.728 50.108,59.408 C50.108,58.736 50.62,58.4 51.644,58.4 L51.644,58.4 L53.356,58.4 L53.356,59.28 C53.2173333,59.664 52.9826667,59.9546667 52.652,60.152 C52.3213333,60.3493333 51.9426667,60.448 51.516,60.448 Z M60.604,62 L60.604,59.808 L61.804,58.624 L64.524,62 L67.548,62 L63.644,57.04 L67.228,53.392 L64.252,53.392 L60.604,56.848 L60.604,50.128 L58.108,50.128 L58.108,62 L60.604,62 Z M70.748,52.208 C71.068,52.208 71.332,52.104 71.54,51.896 C71.748,51.688 71.852,51.424 71.852,51.104 C71.852,50.784 71.748,50.52 71.54,50.312 C71.332,50.104 71.068,50 70.748,50 C70.428,50 70.1613333,50.104 69.948,50.312 C69.7346667,50.52 69.628,50.784 69.628,51.104 C69.628,51.424 69.7346667,51.688 69.948,51.896 C70.1613333,52.104 70.428,52.208 70.748,52.208 Z M73.98,52.208 C74.3,52.208 74.5666667,52.104 74.78,51.896 C74.9933333,51.688 75.1,51.424 75.1,51.104 C75.1,50.784 74.9933333,50.52 74.78,50.312 C74.5666667,50.104 74.3,50 73.98,50 C73.66,50 73.396,50.104 73.188,50.312 C72.98,50.52 72.876,50.784 72.876,51.104 C72.876,51.424 72.98,51.688 73.188,51.896 C73.396,52.104 73.66,52.208 73.98,52.208 Z M72.396,62.128 C73.3026667,62.128 74.1133333,61.9386667 74.828,61.56 C75.5426667,61.1813333 76.1026667,60.656 76.508,59.984 C76.9133333,59.312 77.116,58.5493333 77.116,57.696 C77.116,56.8426667 76.9133333,56.08 76.508,55.408 C76.1026667,54.736 75.5426667,54.2106667 74.828,53.832 C74.1133333,53.4533333 73.3026667,53.264 72.396,53.264 C71.4893333,53.264 70.676,53.4533333 69.956,53.832 C69.236,54.2106667 68.6733333,54.736 68.268,55.408 C67.8626667,56.08 67.66,56.8426667 67.66,57.696 C67.66,58.5493333 67.8626667,59.312 68.268,59.984 C68.6733333,60.656 69.236,61.1813333 69.956,61.56 C70.676,61.9386667 71.4893333,62.128 72.396,62.128 Z M72.396,60.08 C71.756,60.08 71.228,59.864 70.812,59.432 C70.396,59 70.188,58.4213333 70.188,57.696 C70.188,56.9706667 70.396,56.392 70.812,55.96 C71.228,55.528 71.756,55.312 72.396,55.312 C73.036,55.312 73.5613333,55.528 73.972,55.96 C74.3826667,56.392 74.588,56.9706667 74.588,57.696 C74.588,58.4213333 74.3826667,59 73.972,59.432 C73.5613333,59.864 73.036,60.08 72.396,60.08 Z M81.276,62 L81.276,57.936 C81.276,57.136 81.4786667,56.536 81.884,56.136 C82.2893333,55.736 82.8493333,55.536 83.564,55.536 C83.66,55.536 83.8466667,55.5466667 84.124,55.568 L84.124,55.568 L84.124,53.264 C83.4626667,53.264 82.8786667,53.3706667 82.372,53.584 C81.8653333,53.7973333 81.4626667,54.112 81.164,54.528 L81.164,54.528 L81.164,53.392 L78.78,53.392 L78.78,62 L81.276,62 Z M94.604,52.288 L97.5,49.984 L94.812,49.984 L92.652,52.288 L94.604,52.288 Z M94.476,62.128 C96.0333333,62.128 97.2173333,61.664 98.028,60.736 L98.028,60.736 L96.7,59.296 C96.4013333,59.584 96.0786667,59.7946667 95.732,59.928 C95.3853333,60.0613333 94.988,60.128 94.54,60.128 C93.8893333,60.128 93.3453333,59.9733333 92.908,59.664 C92.4706667,59.3546667 92.1933333,58.9333333 92.076,58.4 L92.076,58.4 L98.588,58.4 C98.62,57.984 98.636,57.76 98.636,57.728 C98.636,56.832 98.4413333,56.0453333 98.052,55.368 C97.6626667,54.6906667 97.1266667,54.1706667 96.444,53.808 C95.7613333,53.4453333 94.9986667,53.264 94.156,53.264 C93.292,53.264 92.5106667,53.4533333 91.812,53.832 C91.1133333,54.2106667 90.564,54.7386667 90.164,55.416 C89.764,56.0933333 89.564,56.8533333 89.564,57.696 C89.564,58.5493333 89.7666667,59.312 90.172,59.984 C90.5773333,60.656 91.1533333,61.1813333 91.9,61.56 C92.6466667,61.9386667 93.5053333,62.128 94.476,62.128 Z M96.284,56.944 L92.044,56.944 C92.1293333,56.3893333 92.364,55.952 92.748,55.632 C93.132,55.312 93.6066667,55.152 94.172,55.152 C94.7266667,55.152 95.196,55.3146667 95.58,55.64 C95.964,55.9653333 96.1986667,56.4 96.284,56.944 L96.284,56.944 Z M103.196,62.128 C104.038667,62.128 104.766667,62.0133333 105.38,61.784 C105.993333,61.5546667 106.46,61.232 106.78,60.816 C107.1,60.4 107.26,59.9253333 107.26,59.392 C107.26,58.7626667 107.094667,58.272 106.764,57.92 C106.433333,57.568 106.044,57.3253333 105.596,57.192 C105.148,57.0586667 104.572,56.9333333 103.868,56.816 C103.238667,56.72 102.78,56.6186667 102.492,56.512 C102.204,56.4053333 102.06,56.2186667 102.06,55.952 C102.06,55.7173333 102.193333,55.5253333 102.46,55.376 C102.726667,55.2266667 103.126667,55.152 103.66,55.152 C104.556,55.152 105.382667,55.3653333 106.14,55.792 L106.14,55.792 L106.972,54.016 C106.577333,53.7813333 106.078667,53.5973333 105.476,53.464 C104.873333,53.3306667 104.268,53.264 103.66,53.264 C102.838667,53.264 102.126667,53.3813333 101.524,53.616 C100.921333,53.8506667 100.462667,54.1786667 100.148,54.6 C99.8333333,55.0213333 99.676,55.504 99.676,56.048 C99.676,56.6986667 99.844,57.2 100.18,57.552 C100.516,57.904 100.913333,58.1493333 101.372,58.288 C101.830667,58.4266667 102.412,58.5493333 103.116,58.656 C103.713333,58.7306667 104.156,58.8213333 104.444,58.928 C104.732,59.0346667 104.876,59.2106667 104.876,59.456 C104.876,59.9786667 104.348,60.24 103.292,60.24 C102.769333,60.24 102.236,60.1626667 101.692,60.008 C101.148,59.8533333 100.684,59.6533333 100.3,59.408 L100.3,59.408 L99.468,61.2 C99.8733333,61.4666667 100.417333,61.688 101.1,61.864 C101.782667,62.04 102.481333,62.128 103.196,62.128 Z M9.78,86 L9.78,81.68 C9.78,80.9333333 9.95066667,80.3706667 10.292,79.992 C10.6333333,79.6133333 11.092,79.424 11.668,79.424 C12.756,79.424 13.3,80.1013333 13.3,81.456 L13.3,81.456 L13.3,86 L15.796,86 L15.796,81.68 C15.796,80.9333333 15.9666667,80.3706667 16.308,79.992 C16.6493333,79.6133333 17.1133333,79.424 17.7,79.424 C18.2226667,79.424 18.6253333,79.592 18.908,79.928 C19.1906667,80.264 19.332,80.7733333 19.332,81.456 L19.332,81.456 L19.332,86 L21.828,86 L21.828,81.072 C21.828,79.8026667 21.5106667,78.8506667 20.876,78.216 C20.2413333,77.5813333 19.3853333,77.264 18.308,77.264 C17.668,77.264 17.0786667,77.3866667 16.54,77.632 C16.0013333,77.8773333 15.556,78.224 15.204,78.672 C14.9053333,78.2133333 14.5106667,77.864 14.02,77.624 C13.5293333,77.384 12.98,77.264 12.372,77.264 C11.8173333,77.264 11.308,77.36 10.844,77.552 C10.38,77.744 9.988,78.0213333 9.668,78.384 L9.668,78.384 L9.668,77.392 L7.284,77.392 L7.284,86 L9.78,86 Z M27.7,86.128 C28.2333333,86.128 28.7293333,86.0293333 29.188,85.832 C29.6466667,85.6346667 30.0413333,85.3493333 30.372,84.976 L30.372,84.976 L30.372,86 L32.74,86 L32.74,77.392 L30.244,77.392 L30.244,81.648 C30.244,82.416 30.0626667,82.9946667 29.7,83.384 C29.3373333,83.7733333 28.8573333,83.968 28.26,83.968 C27.0973333,83.968 26.516,83.2746667 26.516,81.888 L26.516,81.888 L26.516,77.392 L24.02,77.392 L24.02,82.256 C24.02,83.536 24.3506667,84.5013333 25.012,85.152 C25.6733333,85.8026667 26.5693333,86.128 27.7,86.128 Z M37.556,86 L37.556,81.744 C37.556,80.976 37.7426667,80.3973333 38.116,80.008 C38.4893333,79.6186667 38.9906667,79.424 39.62,79.424 C40.1853333,79.424 40.6173333,79.592 40.916,79.928 C41.2146667,80.264 41.364,80.7733333 41.364,81.456 L41.364,81.456 L41.364,86 L43.86,86 L43.86,81.072 C43.86,79.8133333 43.532,78.864 42.876,78.224 C42.22,77.584 41.3586667,77.264 40.292,77.264 C39.7053333,77.264 39.1666667,77.3626667 38.676,77.56 C38.1853333,77.7573333 37.7746667,78.0373333 37.444,78.4 L37.444,78.4 L37.444,77.392 L35.06,77.392 L35.06,86 L37.556,86 Z M48.612,86 L48.612,83.808 L49.812,82.624 L52.532,86 L55.556,86 L51.652,81.04 L55.236,77.392 L52.26,77.392 L48.612,80.848 L48.612,74.128 L46.116,74.128 L46.116,86 L48.612,86 Z M59.172,86.128 C60.452,86.128 61.3266667,85.728 61.796,84.928 L61.796,84.928 L61.796,86 L64.132,86 L64.132,81.088 C64.132,79.808 63.7746667,78.8506667 63.06,78.216 C62.3453333,77.5813333 61.3213333,77.264 59.988,77.264 C59.2946667,77.264 58.62,77.3546667 57.964,77.536 C57.308,77.7173333 56.7453333,77.9733333 56.276,78.304 L56.276,78.304 L57.172,80.048 C57.4813333,79.8026667 57.8573333,79.608 58.3,79.464 C58.7426667,79.32 59.1933333,79.248 59.652,79.248 C60.3133333,79.248 60.8093333,79.3946667 61.14,79.688 C61.4706667,79.9813333 61.636,80.4 61.636,80.944 L61.636,80.944 L59.652,80.944 C58.3933333,80.944 57.4626667,81.1733333 56.86,81.632 C56.2573333,82.0906667 55.956,82.72 55.956,83.52 C55.956,84.0213333 56.084,84.4693333 56.34,84.864 C56.596,85.2586667 56.9666667,85.568 57.452,85.792 C57.9373333,86.016 58.5106667,86.128 59.172,86.128 Z M59.796,84.448 C59.3586667,84.448 59.0146667,84.3546667 58.764,84.168 C58.5133333,83.9813333 58.388,83.728 58.388,83.408 C58.388,82.736 58.9,82.4 59.924,82.4 L59.924,82.4 L61.636,82.4 L61.636,83.28 C61.4973333,83.664 61.2626667,83.9546667 60.932,84.152 C60.6013333,84.3493333 60.2226667,84.448 59.796,84.448 Z M68.884,86 L68.884,81.744 C68.884,80.976 69.0706667,80.3973333 69.444,80.008 C69.8173333,79.6186667 70.3186667,79.424 70.948,79.424 C71.5133333,79.424 71.9453333,79.592 72.244,79.928 C72.5426667,80.264 72.692,80.7733333 72.692,81.456 L72.692,81.456 L72.692,86 L75.188,86 L75.188,81.072 C75.188,79.8133333 74.86,78.864 74.204,78.224 C73.548,77.584 72.6866667,77.264 71.62,77.264 C71.0653333,77.264 70.5533333,77.352 70.084,77.528 C69.6146667,77.704 69.2146667,77.9573333 68.884,78.288 L68.884,78.288 L68.884,74.128 L66.388,74.128 L66.388,86 L68.884,86 Z M81.812,86.128 C83.3693333,86.128 84.5533333,85.664 85.364,84.736 L85.364,84.736 L84.036,83.296 C83.7373333,83.584 83.4146667,83.7946667 83.068,83.928 C82.7213333,84.0613333 82.324,84.128 81.876,84.128 C81.2253333,84.128 80.6813333,83.9733333 80.244,83.664 C79.8066667,83.3546667 79.5293333,82.9333333 79.412,82.4 L79.412,82.4 L85.924,82.4 C85.956,81.984 85.972,81.76 85.972,81.728 C85.972,80.832 85.7773333,80.0453333 85.388,79.368 C84.9986667,78.6906667 84.4626667,78.1706667 83.78,77.808 C83.0973333,77.4453333 82.3346667,77.264 81.492,77.264 C80.628,77.264 79.8466667,77.4533333 79.148,77.832 C78.4493333,78.2106667 77.9,78.7386667 77.5,79.416 C77.1,80.0933333 76.9,80.8533333 76.9,81.696 C76.9,82.5493333 77.1026667,83.312 77.508,83.984 C77.9133333,84.656 78.4893333,85.1813333 79.236,85.56 C79.9826667,85.9386667 80.8413333,86.128 81.812,86.128 Z M83.62,80.944 L79.38,80.944 C79.4653333,80.3893333 79.7,79.952 80.084,79.632 C80.468,79.312 80.9426667,79.152 81.508,79.152 C82.0626667,79.152 82.532,79.3146667 82.916,79.64 C83.3,79.9653333 83.5346667,80.4 83.62,80.944 L83.62,80.944 Z M90.132,86 L90.132,74.128 L87.636,74.128 L87.636,86 L90.132,86 Z M93.54,89.232 C94.3613333,89.232 95.0626667,89.0293333 95.644,88.624 C96.2253333,88.2186667 96.7133333,87.52 97.108,86.528 L97.108,86.528 L100.996,77.392 L98.596,77.392 L96.164,83.232 L93.748,77.392 L91.172,77.392 L94.9,86.064 L94.868,86.144 C94.6973333,86.528 94.5053333,86.8026667 94.292,86.968 C94.0786667,87.1333333 93.8013333,87.216 93.46,87.216 C93.2146667,87.216 92.9666667,87.168 92.716,87.072 C92.4653333,86.976 92.244,86.8426667 92.052,86.672 L92.052,86.672 L91.14,88.448 C91.4173333,88.6933333 91.7746667,88.8853333 92.212,89.024 C92.6493333,89.1626667 93.092,89.232 93.54,89.232 Z" id="Munkakörésmunkahely" fill="#323C50" fill-rule="nonzero"></path>
                <circle id="Oval" stroke="#4A589F" stroke-width="1.5" cx="54" cy="18" r="17.25"></circle>
                <circle id="Oval-Copy" fill="#4A589F" cx="54" cy="18" r="8"></circle>
                <circle id="Oval-Copy-2" stroke="#848A96" stroke-width="1.5" cx="326" cy="18" r="17.25"></circle>
                <path d="M283.508,62 L283.508,53.888 L287.556,60.64 L288.292,60.64 L292.34,53.84 L292.356,62 L293.892,62 L293.876,50.8 L292.564,50.8 L287.956,58.672 L283.284,50.8 L281.972,50.8 L281.972,62 L283.508,62 Z M300.596,62.096 C301.193333,62.096 301.745333,61.976 302.252,61.736 C302.758667,61.496 303.166667,61.1573333 303.476,60.72 L303.476,60.72 L303.476,62 L304.932,62 L304.932,53.52 L303.396,53.52 L303.396,57.904 C303.396,58.8 303.161333,59.4933333 302.692,59.984 C302.222667,60.4746667 301.582667,60.72 300.772,60.72 C300.036,60.72 299.470667,60.5093333 299.076,60.088 C298.681333,59.6666667 298.484,59.0453333 298.484,58.224 L298.484,58.224 L298.484,53.52 L296.948,53.52 L296.948,58.4 C296.948,59.616 297.273333,60.536 297.924,61.16 C298.574667,61.784 299.465333,62.096 300.596,62.096 Z M309.396,62 L309.396,57.632 C309.396,56.7253333 309.636,56.0293333 310.116,55.544 C310.596,55.0586667 311.252,54.816 312.084,54.816 C312.82,54.816 313.385333,55.024 313.78,55.44 C314.174667,55.856 314.372,56.4746667 314.372,57.296 L314.372,57.296 L314.372,62 L315.908,62 L315.908,57.12 C315.908,55.9146667 315.590667,55 314.956,54.376 C314.321333,53.752 313.465333,53.44 312.388,53.44 C311.716,53.44 311.116,53.5573333 310.588,53.792 C310.06,54.0266667 309.641333,54.3626667 309.332,54.8 L309.332,54.8 L309.332,53.52 L307.86,53.52 L307.86,62 L309.396,62 Z M320.292,62 L320.292,59.68 L322.052,58.048 L325.236,62 L327.124,62 L323.204,57.024 L326.772,53.52 L324.916,53.52 L320.292,57.744 L320.292,50.128 L318.756,50.128 L318.756,62 L320.292,62 Z M330.932,62.096 C331.582667,62.096 332.145333,61.992 332.62,61.784 C333.094667,61.576 333.46,61.2746667 333.716,60.88 L333.716,60.88 L333.716,62 L335.172,62 L335.172,56.88 C335.172,55.7386667 334.86,54.88 334.236,54.304 C333.612,53.728 332.713333,53.44 331.54,53.44 C330.857333,53.44 330.212,53.5333333 329.604,53.72 C328.996,53.9066667 328.473333,54.176 328.036,54.528 L328.036,54.528 L328.676,55.68 C329.006667,55.4026667 329.412,55.1813333 329.892,55.016 C330.372,54.8506667 330.862667,54.768 331.364,54.768 C332.110667,54.768 332.676,54.944 333.06,55.296 C333.444,55.648 333.636,56.1546667 333.636,56.816 L333.636,56.816 L333.636,57.12 L331.204,57.12 C330.02,57.12 329.156,57.3466667 328.612,57.8 C328.068,58.2533333 327.796,58.8533333 327.796,59.6 C327.796,60.3466667 328.081333,60.9493333 328.652,61.408 C329.222667,61.8666667 329.982667,62.096 330.932,62.096 Z M331.188,60.912 C330.601333,60.912 330.142667,60.7893333 329.812,60.544 C329.481333,60.2986667 329.316,59.9626667 329.316,59.536 C329.316,58.6613333 329.966667,58.224 331.268,58.224 L331.268,58.224 L333.636,58.224 L333.636,59.408 C333.444,59.888 333.134667,60.2586667 332.708,60.52 C332.281333,60.7813333 331.774667,60.912 331.188,60.912 Z M339.556,62 L339.556,57.632 C339.556,56.7253333 339.796,56.0293333 340.276,55.544 C340.756,55.0586667 341.412,54.816 342.244,54.816 C342.98,54.816 343.545333,55.024 343.94,55.44 C344.334667,55.856 344.532,56.4746667 344.532,57.296 L344.532,57.296 L344.532,62 L346.068,62 L346.068,57.12 C346.068,55.9146667 345.750667,55 345.116,54.376 C344.481333,53.752 343.625333,53.44 342.548,53.44 C341.908,53.44 341.329333,53.552 340.812,53.776 C340.294667,54 339.876,54.3146667 339.556,54.72 L339.556,54.72 L339.556,50.128 L338.02,50.128 L338.02,62 L339.556,62 Z M352.74,62.096 C353.444,62.096 354.081333,61.9786667 354.652,61.744 C355.222667,61.5093333 355.7,61.168 356.084,60.72 L356.084,60.72 L355.236,59.728 C354.617333,60.4106667 353.801333,60.752 352.788,60.752 C351.956,60.752 351.26,60.5253333 350.7,60.072 C350.14,59.6186667 349.812,59.0186667 349.716,58.272 L349.716,58.272 L356.596,58.272 C356.617333,58.08 356.628,57.9253333 356.628,57.808 C356.628,56.9546667 356.449333,56.1973333 356.092,55.536 C355.734667,54.8746667 355.238667,54.36 354.604,53.992 C353.969333,53.624 353.246667,53.44 352.436,53.44 C351.625333,53.44 350.897333,53.624 350.252,53.992 C349.606667,54.36 349.1,54.8746667 348.732,55.536 C348.364,56.1973333 348.18,56.9386667 348.18,57.76 C348.18,58.592 348.369333,59.3386667 348.748,60 C349.126667,60.6613333 349.662667,61.176 350.356,61.544 C351.049333,61.912 351.844,62.096 352.74,62.096 Z M355.156,57.168 L349.716,57.168 C349.801333,56.4426667 350.092,55.856 350.588,55.408 C351.084,54.96 351.7,54.736 352.436,54.736 C353.172,54.736 353.788,54.9626667 354.284,55.416 C354.78,55.8693333 355.070667,56.4533333 355.156,57.168 L355.156,57.168 Z M360.292,62 L360.292,50.128 L358.756,50.128 L358.756,62 L360.292,62 Z M363.588,65.2 C364.270667,65.2 364.854667,65.024 365.34,64.672 C365.825333,64.32 366.249333,63.712 366.612,62.848 L366.612,62.848 L370.724,53.52 L369.22,53.52 L366.292,60.304 L363.332,53.52 L361.732,53.52 L365.476,61.984 L365.204,62.576 C365.001333,63.056 364.774667,63.3946667 364.524,63.592 C364.273333,63.7893333 363.961333,63.888 363.588,63.888 C363.012,63.888 362.505333,63.68 362.068,63.264 L362.068,63.264 L361.412,64.416 C361.668,64.672 361.990667,64.8666667 362.38,65 C362.769333,65.1333333 363.172,65.2 363.588,65.2 Z M288.612,76.288 L291.3,74.208 L289.348,74.208 L287.172,76.288 L288.612,76.288 Z M288.692,86.096 C289.396,86.096 290.033333,85.9786667 290.604,85.744 C291.174667,85.5093333 291.652,85.168 292.036,84.72 L292.036,84.72 L291.188,83.728 C290.569333,84.4106667 289.753333,84.752 288.74,84.752 C287.908,84.752 287.212,84.5253333 286.652,84.072 C286.092,83.6186667 285.764,83.0186667 285.668,82.272 L285.668,82.272 L292.548,82.272 C292.569333,82.08 292.58,81.9253333 292.58,81.808 C292.58,80.9546667 292.401333,80.1973333 292.044,79.536 C291.686667,78.8746667 291.190667,78.36 290.556,77.992 C289.921333,77.624 289.198667,77.44 288.388,77.44 C287.577333,77.44 286.849333,77.624 286.204,77.992 C285.558667,78.36 285.052,78.8746667 284.684,79.536 C284.316,80.1973333 284.132,80.9386667 284.132,81.76 C284.132,82.592 284.321333,83.3386667 284.7,84 C285.078667,84.6613333 285.614667,85.176 286.308,85.544 C287.001333,85.912 287.796,86.096 288.692,86.096 Z M291.108,81.168 L285.668,81.168 C285.753333,80.4426667 286.044,79.856 286.54,79.408 C287.036,78.96 287.652,78.736 288.388,78.736 C289.124,78.736 289.74,78.9626667 290.236,79.416 C290.732,79.8693333 291.022667,80.4533333 291.108,81.168 L291.108,81.168 Z M296.244,86 L296.244,81.776 C296.244,80.8586667 296.481333,80.152 296.956,79.656 C297.430667,79.16 298.084,78.912 298.916,78.912 C299.065333,78.912 299.182667,78.9173333 299.268,78.928 L299.268,78.928 L299.268,77.44 C298.521333,77.44 297.886667,77.568 297.364,77.824 C296.841333,78.08 296.446667,78.4533333 296.18,78.944 L296.18,78.944 L296.18,77.52 L294.708,77.52 L294.708,86 L296.244,86 Z M304.42,86.096 C304.772,86.096 305.113333,86.0453333 305.444,85.944 C305.774667,85.8426667 306.052,85.696 306.276,85.504 L306.276,85.504 L305.796,84.4 C305.465333,84.6666667 305.065333,84.8 304.596,84.8 C304.169333,84.8 303.841333,84.6773333 303.612,84.432 C303.382667,84.1866667 303.268,83.8346667 303.268,83.376 L303.268,83.376 L303.268,78.784 L305.7,78.784 L305.7,77.52 L303.268,77.52 L303.268,75.664 L301.732,75.664 L301.732,77.52 L300.292,77.52 L300.292,78.784 L301.732,78.784 L301.732,83.44 C301.732,84.2933333 301.966667,84.9493333 302.436,85.408 C302.905333,85.8666667 303.566667,86.096 304.42,86.096 Z M311.54,76.288 L314.228,74.208 L312.276,74.208 L310.1,76.288 L311.54,76.288 Z M311.62,86.096 C312.324,86.096 312.961333,85.9786667 313.532,85.744 C314.102667,85.5093333 314.58,85.168 314.964,84.72 L314.964,84.72 L314.116,83.728 C313.497333,84.4106667 312.681333,84.752 311.668,84.752 C310.836,84.752 310.14,84.5253333 309.58,84.072 C309.02,83.6186667 308.692,83.0186667 308.596,82.272 L308.596,82.272 L315.476,82.272 C315.497333,82.08 315.508,81.9253333 315.508,81.808 C315.508,80.9546667 315.329333,80.1973333 314.972,79.536 C314.614667,78.8746667 314.118667,78.36 313.484,77.992 C312.849333,77.624 312.126667,77.44 311.316,77.44 C310.505333,77.44 309.777333,77.624 309.132,77.992 C308.486667,78.36 307.98,78.8746667 307.612,79.536 C307.244,80.1973333 307.06,80.9386667 307.06,81.76 C307.06,82.592 307.249333,83.3386667 307.628,84 C308.006667,84.6613333 308.542667,85.176 309.236,85.544 C309.929333,85.912 310.724,86.096 311.62,86.096 Z M314.036,81.168 L308.596,81.168 C308.681333,80.4426667 308.972,79.856 309.468,79.408 C309.964,78.96 310.58,78.736 311.316,78.736 C312.052,78.736 312.668,78.9626667 313.164,79.416 C313.66,79.8693333 313.950667,80.4533333 314.036,81.168 L314.036,81.168 Z M319.172,86 L319.172,83.68 L320.932,82.048 L324.116,86 L326.004,86 L322.084,81.024 L325.652,77.52 L323.796,77.52 L319.172,81.744 L319.172,74.128 L317.636,74.128 L317.636,86 L319.172,86 Z M330.916,86.096 C331.62,86.096 332.257333,85.9786667 332.828,85.744 C333.398667,85.5093333 333.876,85.168 334.26,84.72 L334.26,84.72 L333.412,83.728 C332.793333,84.4106667 331.977333,84.752 330.964,84.752 C330.132,84.752 329.436,84.5253333 328.876,84.072 C328.316,83.6186667 327.988,83.0186667 327.892,82.272 L327.892,82.272 L334.772,82.272 C334.793333,82.08 334.804,81.9253333 334.804,81.808 C334.804,80.9546667 334.625333,80.1973333 334.268,79.536 C333.910667,78.8746667 333.414667,78.36 332.78,77.992 C332.145333,77.624 331.422667,77.44 330.612,77.44 C329.801333,77.44 329.073333,77.624 328.428,77.992 C327.782667,78.36 327.276,78.8746667 326.908,79.536 C326.54,80.1973333 326.356,80.9386667 326.356,81.76 C326.356,82.592 326.545333,83.3386667 326.924,84 C327.302667,84.6613333 327.838667,85.176 328.532,85.544 C329.225333,85.912 330.02,86.096 330.916,86.096 Z M333.332,81.168 L327.892,81.168 C327.977333,80.4426667 328.268,79.856 328.764,79.408 C329.26,78.96 329.876,78.736 330.612,78.736 C331.348,78.736 331.964,78.9626667 332.46,79.416 C332.956,79.8693333 333.246667,80.4533333 333.332,81.168 L333.332,81.168 Z M338.468,86 L338.468,74.128 L336.932,74.128 L336.932,86 L338.468,86 Z M345.092,76.288 L347.78,74.208 L345.828,74.208 L343.652,76.288 L345.092,76.288 Z M345.172,86.096 C345.876,86.096 346.513333,85.9786667 347.084,85.744 C347.654667,85.5093333 348.132,85.168 348.516,84.72 L348.516,84.72 L347.668,83.728 C347.049333,84.4106667 346.233333,84.752 345.22,84.752 C344.388,84.752 343.692,84.5253333 343.132,84.072 C342.572,83.6186667 342.244,83.0186667 342.148,82.272 L342.148,82.272 L349.028,82.272 C349.049333,82.08 349.06,81.9253333 349.06,81.808 C349.06,80.9546667 348.881333,80.1973333 348.524,79.536 C348.166667,78.8746667 347.670667,78.36 347.036,77.992 C346.401333,77.624 345.678667,77.44 344.868,77.44 C344.057333,77.44 343.329333,77.624 342.684,77.992 C342.038667,78.36 341.532,78.8746667 341.164,79.536 C340.796,80.1973333 340.612,80.9386667 340.612,81.76 C340.612,82.592 340.801333,83.3386667 341.18,84 C341.558667,84.6613333 342.094667,85.176 342.788,85.544 C343.481333,85.912 344.276,86.096 345.172,86.096 Z M347.588,81.168 L342.148,81.168 C342.233333,80.4426667 342.524,79.856 343.02,79.408 C343.516,78.96 344.132,78.736 344.868,78.736 C345.604,78.736 346.22,78.9626667 346.716,79.416 C347.212,79.8693333 347.502667,80.4533333 347.588,81.168 L347.588,81.168 Z M353.62,86.096 C354.750667,86.096 355.644,85.8693333 356.3,85.416 C356.956,84.9626667 357.284,84.352 357.284,83.584 C357.284,83.008 357.134667,82.56 356.836,82.24 C356.537333,81.92 356.177333,81.6933333 355.756,81.56 C355.334667,81.4266667 354.782667,81.3013333 354.1,81.184 C353.588,81.088 353.190667,81.0026667 352.908,80.928 C352.625333,80.8533333 352.388,80.736 352.196,80.576 C352.004,80.416 351.908,80.1973333 351.908,79.92 C351.908,79.568 352.078667,79.2853333 352.42,79.072 C352.761333,78.8586667 353.257333,78.752 353.908,78.752 C354.846667,78.752 355.662667,78.976 356.356,79.424 L356.356,79.424 L357.012,78.208 C356.649333,77.9733333 356.185333,77.7866667 355.62,77.648 C355.054667,77.5093333 354.489333,77.44 353.924,77.44 C352.846667,77.44 351.988,77.672 351.348,78.136 C350.708,78.6 350.388,79.216 350.388,79.984 C350.388,80.5813333 350.542667,81.0453333 350.852,81.376 C351.161333,81.7066667 351.532,81.9413333 351.964,82.08 C352.396,82.2186667 352.953333,82.3413333 353.636,82.448 C354.137333,82.5333333 354.524,82.6106667 354.796,82.68 C355.068,82.7493333 355.294667,82.8586667 355.476,83.008 C355.657333,83.1573333 355.748,83.36 355.748,83.616 C355.748,84.384 355.076,84.768 353.732,84.768 C353.188,84.768 352.649333,84.688 352.116,84.528 C351.582667,84.368 351.129333,84.1546667 350.756,83.888 L350.756,83.888 L350.116,85.104 C350.478667,85.392 350.98,85.6293333 351.62,85.816 C352.26,86.0026667 352.926667,86.096 353.62,86.096 Z M362.98,86.096 C363.684,86.096 364.321333,85.9786667 364.892,85.744 C365.462667,85.5093333 365.94,85.168 366.324,84.72 L366.324,84.72 L365.476,83.728 C364.857333,84.4106667 364.041333,84.752 363.028,84.752 C362.196,84.752 361.5,84.5253333 360.94,84.072 C360.38,83.6186667 360.052,83.0186667 359.956,82.272 L359.956,82.272 L366.836,82.272 C366.857333,82.08 366.868,81.9253333 366.868,81.808 C366.868,80.9546667 366.689333,80.1973333 366.332,79.536 C365.974667,78.8746667 365.478667,78.36 364.844,77.992 C364.209333,77.624 363.486667,77.44 362.676,77.44 C361.865333,77.44 361.137333,77.624 360.492,77.992 C359.846667,78.36 359.34,78.8746667 358.972,79.536 C358.604,80.1973333 358.42,80.9386667 358.42,81.76 C358.42,82.592 358.609333,83.3386667 358.988,84 C359.366667,84.6613333 359.902667,85.176 360.596,85.544 C361.289333,85.912 362.084,86.096 362.98,86.096 Z M365.396,81.168 L359.956,81.168 C360.041333,80.4426667 360.332,79.856 360.828,79.408 C361.324,78.96 361.94,78.736 362.676,78.736 C363.412,78.736 364.028,78.9626667 364.524,79.416 C365.02,79.8693333 365.310667,80.4533333 365.396,81.168 L365.396,81.168 Z" id="Munkahelyértékelése" fill-opacity="0.7" fill="#323C50" fill-rule="nonzero"></path>
                <circle id="Oval-Copy-3" stroke="#848A96" stroke-width="1.5" cx="598" cy="18" r="17.25"></circle>
                <path d="M543.252,63 L543.252,54.888 L547.3,61.64 L548.036,61.64 L552.084,54.84 L552.1,63 L553.636,63 L553.62,51.8 L552.308,51.8 L547.7,59.672 L543.028,51.8 L541.716,51.8 L541.716,63 L543.252,63 Z M560.34,63.096 C560.937333,63.096 561.489333,62.976 561.996,62.736 C562.502667,62.496 562.910667,62.1573333 563.22,61.72 L563.22,61.72 L563.22,63 L564.676,63 L564.676,54.52 L563.14,54.52 L563.14,58.904 C563.14,59.8 562.905333,60.4933333 562.436,60.984 C561.966667,61.4746667 561.326667,61.72 560.516,61.72 C559.78,61.72 559.214667,61.5093333 558.82,61.088 C558.425333,60.6666667 558.228,60.0453333 558.228,59.224 L558.228,59.224 L558.228,54.52 L556.692,54.52 L556.692,59.4 C556.692,60.616 557.017333,61.536 557.668,62.16 C558.318667,62.784 559.209333,63.096 560.34,63.096 Z M569.14,63 L569.14,58.632 C569.14,57.7253333 569.38,57.0293333 569.86,56.544 C570.34,56.0586667 570.996,55.816 571.828,55.816 C572.564,55.816 573.129333,56.024 573.524,56.44 C573.918667,56.856 574.116,57.4746667 574.116,58.296 L574.116,58.296 L574.116,63 L575.652,63 L575.652,58.12 C575.652,56.9146667 575.334667,56 574.7,55.376 C574.065333,54.752 573.209333,54.44 572.132,54.44 C571.46,54.44 570.86,54.5573333 570.332,54.792 C569.804,55.0266667 569.385333,55.3626667 569.076,55.8 L569.076,55.8 L569.076,54.52 L567.604,54.52 L567.604,63 L569.14,63 Z M580.036,63 L580.036,60.68 L581.796,59.048 L584.98,63 L586.868,63 L582.948,58.024 L586.516,54.52 L584.66,54.52 L580.036,58.744 L580.036,51.128 L578.5,51.128 L578.5,63 L580.036,63 Z M590.676,63.096 C591.326667,63.096 591.889333,62.992 592.364,62.784 C592.838667,62.576 593.204,62.2746667 593.46,61.88 L593.46,61.88 L593.46,63 L594.916,63 L594.916,57.88 C594.916,56.7386667 594.604,55.88 593.98,55.304 C593.356,54.728 592.457333,54.44 591.284,54.44 C590.601333,54.44 589.956,54.5333333 589.348,54.72 C588.74,54.9066667 588.217333,55.176 587.78,55.528 L587.78,55.528 L588.42,56.68 C588.750667,56.4026667 589.156,56.1813333 589.636,56.016 C590.116,55.8506667 590.606667,55.768 591.108,55.768 C591.854667,55.768 592.42,55.944 592.804,56.296 C593.188,56.648 593.38,57.1546667 593.38,57.816 L593.38,57.816 L593.38,58.12 L590.948,58.12 C589.764,58.12 588.9,58.3466667 588.356,58.8 C587.812,59.2533333 587.54,59.8533333 587.54,60.6 C587.54,61.3466667 587.825333,61.9493333 588.396,62.408 C588.966667,62.8666667 589.726667,63.096 590.676,63.096 Z M590.932,61.912 C590.345333,61.912 589.886667,61.7893333 589.556,61.544 C589.225333,61.2986667 589.06,60.9626667 589.06,60.536 C589.06,59.6613333 589.710667,59.224 591.012,59.224 L591.012,59.224 L593.38,59.224 L593.38,60.408 C593.188,60.888 592.878667,61.2586667 592.452,61.52 C592.025333,61.7813333 591.518667,61.912 590.932,61.912 Z M599.3,63 L599.3,60.68 L601.06,59.048 L604.244,63 L606.132,63 L602.212,58.024 L605.78,54.52 L603.924,54.52 L599.3,58.744 L599.3,51.128 L597.764,51.128 L597.764,63 L599.3,63 Z M611.028,63.096 C611.625333,63.096 612.177333,62.976 612.684,62.736 C613.190667,62.496 613.598667,62.1573333 613.908,61.72 L613.908,61.72 L613.908,63 L615.364,63 L615.364,54.52 L613.828,54.52 L613.828,58.904 C613.828,59.8 613.593333,60.4933333 613.124,60.984 C612.654667,61.4746667 612.014667,61.72 611.204,61.72 C610.468,61.72 609.902667,61.5093333 609.508,61.088 C609.113333,60.6666667 608.916,60.0453333 608.916,59.224 L608.916,59.224 L608.916,54.52 L607.38,54.52 L607.38,59.4 C607.38,60.616 607.705333,61.536 608.356,62.16 C609.006667,62.784 609.897333,63.096 611.028,63.096 Z M619.828,63 L619.828,51.128 L618.292,51.128 L618.292,63 L619.828,63 Z M625.876,63.096 C626.228,63.096 626.569333,63.0453333 626.9,62.944 C627.230667,62.8426667 627.508,62.696 627.732,62.504 L627.732,62.504 L627.252,61.4 C626.921333,61.6666667 626.521333,61.8 626.052,61.8 C625.625333,61.8 625.297333,61.6773333 625.068,61.432 C624.838667,61.1866667 624.724,60.8346667 624.724,60.376 L624.724,60.376 L624.724,55.784 L627.156,55.784 L627.156,54.52 L624.724,54.52 L624.724,52.664 L623.188,52.664 L623.188,54.52 L621.748,54.52 L621.748,55.784 L623.188,55.784 L623.188,60.44 C623.188,61.2933333 623.422667,61.9493333 623.892,62.408 C624.361333,62.8666667 625.022667,63.096 625.876,63.096 Z M633.748,53.288 L636.436,51.208 L634.484,51.208 L632.308,53.288 L633.748,53.288 Z M633.156,63.096 C633.753333,63.096 634.305333,62.976 634.812,62.736 C635.318667,62.496 635.726667,62.1573333 636.036,61.72 L636.036,61.72 L636.036,63 L637.492,63 L637.492,54.52 L635.956,54.52 L635.956,58.904 C635.956,59.8 635.721333,60.4933333 635.252,60.984 C634.782667,61.4746667 634.142667,61.72 633.332,61.72 C632.596,61.72 632.030667,61.5093333 631.636,61.088 C631.241333,60.6666667 631.044,60.0453333 631.044,59.224 L631.044,59.224 L631.044,54.52 L629.508,54.52 L629.508,59.4 C629.508,60.616 629.833333,61.536 630.484,62.16 C631.134667,62.784 632.025333,63.096 633.156,63.096 Z M641.956,63 L641.956,58.776 C641.956,57.8586667 642.193333,57.152 642.668,56.656 C643.142667,56.16 643.796,55.912 644.628,55.912 C644.777333,55.912 644.894667,55.9173333 644.98,55.928 L644.98,55.928 L644.98,54.44 C644.233333,54.44 643.598667,54.568 643.076,54.824 C642.553333,55.08 642.158667,55.4533333 641.892,55.944 L641.892,55.944 L641.892,54.52 L640.42,54.52 L640.42,63 L641.956,63 Z M649.332,63.096 C649.982667,63.096 650.545333,62.992 651.02,62.784 C651.494667,62.576 651.86,62.2746667 652.116,61.88 L652.116,61.88 L652.116,63 L653.572,63 L653.572,57.88 C653.572,56.7386667 653.26,55.88 652.636,55.304 C652.012,54.728 651.113333,54.44 649.94,54.44 C649.257333,54.44 648.612,54.5333333 648.004,54.72 C647.396,54.9066667 646.873333,55.176 646.436,55.528 L646.436,55.528 L647.076,56.68 C647.406667,56.4026667 647.812,56.1813333 648.292,56.016 C648.772,55.8506667 649.262667,55.768 649.764,55.768 C650.510667,55.768 651.076,55.944 651.46,56.296 C651.844,56.648 652.036,57.1546667 652.036,57.816 L652.036,57.816 L652.036,58.12 L649.604,58.12 C648.42,58.12 647.556,58.3466667 647.012,58.8 C646.468,59.2533333 646.196,59.8533333 646.196,60.6 C646.196,61.3466667 646.481333,61.9493333 647.052,62.408 C647.622667,62.8666667 648.382667,63.096 649.332,63.096 Z M649.588,61.912 C649.001333,61.912 648.542667,61.7893333 648.212,61.544 C647.881333,61.2986667 647.716,60.9626667 647.716,60.536 C647.716,59.6613333 648.366667,59.224 649.668,59.224 L649.668,59.224 L652.036,59.224 L652.036,60.408 C651.844,60.888 651.534667,61.2586667 651.108,61.52 C650.681333,61.7813333 650.174667,61.912 649.588,61.912 Z M559.66,77.288 L562.348,75.208 L560.396,75.208 L558.22,77.288 L559.66,77.288 Z M559.74,87.096 C560.444,87.096 561.081333,86.9786667 561.652,86.744 C562.222667,86.5093333 562.7,86.168 563.084,85.72 L563.084,85.72 L562.236,84.728 C561.617333,85.4106667 560.801333,85.752 559.788,85.752 C558.956,85.752 558.26,85.5253333 557.7,85.072 C557.14,84.6186667 556.812,84.0186667 556.716,83.272 L556.716,83.272 L563.596,83.272 C563.617333,83.08 563.628,82.9253333 563.628,82.808 C563.628,81.9546667 563.449333,81.1973333 563.092,80.536 C562.734667,79.8746667 562.238667,79.36 561.604,78.992 C560.969333,78.624 560.246667,78.44 559.436,78.44 C558.625333,78.44 557.897333,78.624 557.252,78.992 C556.606667,79.36 556.1,79.8746667 555.732,80.536 C555.364,81.1973333 555.18,81.9386667 555.18,82.76 C555.18,83.592 555.369333,84.3386667 555.748,85 C556.126667,85.6613333 556.662667,86.176 557.356,86.544 C558.049333,86.912 558.844,87.096 559.74,87.096 Z M562.156,82.168 L556.716,82.168 C556.801333,81.4426667 557.092,80.856 557.588,80.408 C558.084,79.96 558.7,79.736 559.436,79.736 C560.172,79.736 560.788,79.9626667 561.284,80.416 C561.78,80.8693333 562.070667,81.4533333 562.156,82.168 L562.156,82.168 Z M568.188,87.096 C569.318667,87.096 570.212,86.8693333 570.868,86.416 C571.524,85.9626667 571.852,85.352 571.852,84.584 C571.852,84.008 571.702667,83.56 571.404,83.24 C571.105333,82.92 570.745333,82.6933333 570.324,82.56 C569.902667,82.4266667 569.350667,82.3013333 568.668,82.184 C568.156,82.088 567.758667,82.0026667 567.476,81.928 C567.193333,81.8533333 566.956,81.736 566.764,81.576 C566.572,81.416 566.476,81.1973333 566.476,80.92 C566.476,80.568 566.646667,80.2853333 566.988,80.072 C567.329333,79.8586667 567.825333,79.752 568.476,79.752 C569.414667,79.752 570.230667,79.976 570.924,80.424 L570.924,80.424 L571.58,79.208 C571.217333,78.9733333 570.753333,78.7866667 570.188,78.648 C569.622667,78.5093333 569.057333,78.44 568.492,78.44 C567.414667,78.44 566.556,78.672 565.916,79.136 C565.276,79.6 564.956,80.216 564.956,80.984 C564.956,81.5813333 565.110667,82.0453333 565.42,82.376 C565.729333,82.7066667 566.1,82.9413333 566.532,83.08 C566.964,83.2186667 567.521333,83.3413333 568.204,83.448 C568.705333,83.5333333 569.092,83.6106667 569.364,83.68 C569.636,83.7493333 569.862667,83.8586667 570.044,84.008 C570.225333,84.1573333 570.316,84.36 570.316,84.616 C570.316,85.384 569.644,85.768 568.3,85.768 C567.756,85.768 567.217333,85.688 566.684,85.528 C566.150667,85.368 565.697333,85.1546667 565.324,84.888 L565.324,84.888 L564.684,86.104 C565.046667,86.392 565.548,86.6293333 566.188,86.816 C566.828,87.0026667 567.494667,87.096 568.188,87.096 Z M581.852,87.096 C582.556,87.096 583.193333,86.9786667 583.764,86.744 C584.334667,86.5093333 584.812,86.168 585.196,85.72 L585.196,85.72 L584.348,84.728 C583.729333,85.4106667 582.913333,85.752 581.9,85.752 C581.068,85.752 580.372,85.5253333 579.812,85.072 C579.252,84.6186667 578.924,84.0186667 578.828,83.272 L578.828,83.272 L585.708,83.272 C585.729333,83.08 585.74,82.9253333 585.74,82.808 C585.74,81.9546667 585.561333,81.1973333 585.204,80.536 C584.846667,79.8746667 584.350667,79.36 583.716,78.992 C583.081333,78.624 582.358667,78.44 581.548,78.44 C580.737333,78.44 580.009333,78.624 579.364,78.992 C578.718667,79.36 578.212,79.8746667 577.844,80.536 C577.476,81.1973333 577.292,81.9386667 577.292,82.76 C577.292,83.592 577.481333,84.3386667 577.86,85 C578.238667,85.6613333 578.774667,86.176 579.468,86.544 C580.161333,86.912 580.956,87.096 581.852,87.096 Z M584.268,82.168 L578.828,82.168 C578.913333,81.4426667 579.204,80.856 579.7,80.408 C580.196,79.96 580.812,79.736 581.548,79.736 C582.284,79.736 582.9,79.9626667 583.396,80.416 C583.892,80.8693333 584.182667,81.4533333 584.268,82.168 L584.268,82.168 Z M589.404,87 L589.404,75.128 L587.868,75.128 L587.868,87 L589.404,87 Z M595.196,77.288 L596.972,75.208 L595.34,75.208 L593.9,77.288 L595.196,77.288 Z M597.996,77.288 L599.74,75.208 L598.124,75.208 L596.7,77.288 L597.996,77.288 Z M595.964,87.096 C596.806667,87.096 597.561333,86.9093333 598.228,86.536 C598.894667,86.1626667 599.417333,85.648 599.796,84.992 C600.174667,84.336 600.364,83.592 600.364,82.76 C600.364,81.928 600.174667,81.184 599.796,80.528 C599.417333,79.872 598.894667,79.36 598.228,78.992 C597.561333,78.624 596.806667,78.44 595.964,78.44 C595.121333,78.44 594.364,78.624 593.692,78.992 C593.02,79.36 592.494667,79.872 592.116,80.528 C591.737333,81.184 591.548,81.928 591.548,82.76 C591.548,83.592 591.737333,84.336 592.116,84.992 C592.494667,85.648 593.02,86.1626667 593.692,86.536 C594.364,86.9093333 595.121333,87.096 595.964,87.096 Z M595.964,85.752 C595.42,85.752 594.932,85.6266667 594.5,85.376 C594.068,85.1253333 593.726667,84.7733333 593.476,84.32 C593.225333,83.8666667 593.1,83.3466667 593.1,82.76 C593.1,82.1733333 593.225333,81.6533333 593.476,81.2 C593.726667,80.7466667 594.068,80.3973333 594.5,80.152 C594.932,79.9066667 595.42,79.784 595.964,79.784 C596.508,79.784 596.996,79.9066667 597.428,80.152 C597.86,80.3973333 598.198667,80.7466667 598.444,81.2 C598.689333,81.6533333 598.812,82.1733333 598.812,82.76 C598.812,83.3466667 598.689333,83.8666667 598.444,84.32 C598.198667,84.7733333 597.86,85.1253333 597.428,85.376 C596.996,85.6266667 596.508,85.752 595.964,85.752 Z M604.028,87 L604.028,82.632 C604.028,81.7253333 604.268,81.0293333 604.748,80.544 C605.228,80.0586667 605.884,79.816 606.716,79.816 C607.452,79.816 608.017333,80.024 608.412,80.44 C608.806667,80.856 609.004,81.4746667 609.004,82.296 L609.004,82.296 L609.004,87 L610.54,87 L610.54,82.12 C610.54,80.9146667 610.222667,80 609.588,79.376 C608.953333,78.752 608.097333,78.44 607.02,78.44 C606.348,78.44 605.748,78.5573333 605.22,78.792 C604.692,79.0266667 604.273333,79.3626667 603.964,79.8 L603.964,79.8 L603.964,78.52 L602.492,78.52 L602.492,87 L604.028,87 Z M613.596,90.2 C614.278667,90.2 614.862667,90.024 615.348,89.672 C615.833333,89.32 616.257333,88.712 616.62,87.848 L616.62,87.848 L620.732,78.52 L619.228,78.52 L616.3,85.304 L613.34,78.52 L611.74,78.52 L615.484,86.984 L615.212,87.576 C615.009333,88.056 614.782667,88.3946667 614.532,88.592 C614.281333,88.7893333 613.969333,88.888 613.596,88.888 C613.02,88.888 612.513333,88.68 612.076,88.264 L612.076,88.264 L611.42,89.416 C611.676,89.672 611.998667,89.8666667 612.388,90 C612.777333,90.1333333 613.18,90.2 613.596,90.2 Z M624.06,77.016 C624.284,77.016 624.476,76.9386667 624.636,76.784 C624.796,76.6293333 624.876,76.4346667 624.876,76.2 C624.876,75.9653333 624.796,75.768 624.636,75.608 C624.476,75.448 624.284,75.368 624.06,75.368 C623.836,75.368 623.644,75.448 623.484,75.608 C623.324,75.768 623.244,75.9653333 623.244,76.2 C623.244,76.4346667 623.324,76.6293333 623.484,76.784 C623.644,76.9386667 623.836,77.016 624.06,77.016 Z M627.036,77.016 C627.26,77.016 627.452,76.9386667 627.612,76.784 C627.772,76.6293333 627.852,76.4346667 627.852,76.2 C627.852,75.9653333 627.772,75.768 627.612,75.608 C627.452,75.448 627.26,75.368 627.036,75.368 C626.812,75.368 626.62,75.448 626.46,75.608 C626.3,75.768 626.22,75.9653333 626.22,76.2 C626.22,76.4346667 626.3,76.6293333 626.46,76.784 C626.62,76.9386667 626.812,77.016 627.036,77.016 Z M625.564,87.096 C626.406667,87.096 627.161333,86.9093333 627.828,86.536 C628.494667,86.1626667 629.017333,85.648 629.396,84.992 C629.774667,84.336 629.964,83.592 629.964,82.76 C629.964,81.928 629.774667,81.184 629.396,80.528 C629.017333,79.872 628.494667,79.36 627.828,78.992 C627.161333,78.624 626.406667,78.44 625.564,78.44 C624.721333,78.44 623.964,78.624 623.292,78.992 C622.62,79.36 622.094667,79.872 621.716,80.528 C621.337333,81.184 621.148,81.928 621.148,82.76 C621.148,83.592 621.337333,84.336 621.716,84.992 C622.094667,85.648 622.62,86.1626667 623.292,86.536 C623.964,86.9093333 624.721333,87.096 625.564,87.096 Z M625.564,85.752 C625.02,85.752 624.532,85.6266667 624.1,85.376 C623.668,85.1253333 623.326667,84.7733333 623.076,84.32 C622.825333,83.8666667 622.7,83.3466667 622.7,82.76 C622.7,82.1733333 622.825333,81.6533333 623.076,81.2 C623.326667,80.7466667 623.668,80.3973333 624.1,80.152 C624.532,79.9066667 625.02,79.784 625.564,79.784 C626.108,79.784 626.596,79.9066667 627.028,80.152 C627.46,80.3973333 627.798667,80.7466667 628.044,81.2 C628.289333,81.6533333 628.412,82.1733333 628.412,82.76 C628.412,83.3466667 628.289333,83.8666667 628.044,84.32 C627.798667,84.7733333 627.46,85.1253333 627.028,85.376 C626.596,85.6266667 626.108,85.752 625.564,85.752 Z M633.628,87 L633.628,84.68 L635.388,83.048 L638.572,87 L640.46,87 L636.54,82.024 L640.108,78.52 L638.252,78.52 L633.628,82.744 L633.628,75.128 L632.092,75.128 L632.092,87 L633.628,87 Z" id="Munkakultúraéselőnyök" fill-opacity="0.7" fill="#323C50" fill-rule="nonzero"></path>
                <circle id="Oval-Copy-4" stroke="#848A96" stroke-width="1.5" cx="870" cy="18" r="17.25"></circle>
                <path d="M837.24,62.128 C838.189333,62.128 838.989333,61.9866667 839.64,61.704 C840.290667,61.4213333 840.776,61.0373333 841.096,60.552 C841.416,60.0666667 841.576,59.5306667 841.576,58.944 C841.576,58.24 841.392,57.68 841.024,57.264 C840.656,56.848 840.216,56.5386667 839.704,56.336 C839.192,56.1333333 838.514667,55.9306667 837.672,55.728 C837.021333,55.5786667 836.506667,55.4373333 836.128,55.304 C835.749333,55.1706667 835.432,54.984 835.176,54.744 C834.92,54.504 834.792,54.192 834.792,53.808 C834.792,53.2853333 835.018667,52.8586667 835.472,52.528 C835.925333,52.1973333 836.605333,52.032 837.512,52.032 C838.024,52.032 838.546667,52.1093333 839.08,52.264 C839.613333,52.4186667 840.114667,52.6453333 840.584,52.944 L840.584,52.944 L841.112,51.664 C840.653333,51.344 840.104,51.0986667 839.464,50.928 C838.824,50.7573333 838.173333,50.672 837.512,50.672 C836.562667,50.672 835.768,50.816 835.128,51.104 C834.488,51.392 834.010667,51.776 833.696,52.256 C833.381333,52.736 833.224,53.2746667 833.224,53.872 C833.224,54.5866667 833.408,55.1546667 833.776,55.576 C834.144,55.9973333 834.586667,56.3093333 835.104,56.512 C835.621333,56.7146667 836.301333,56.9173333 837.144,57.12 C837.816,57.28 838.336,57.424 838.704,57.552 C839.072,57.68 839.381333,57.864 839.632,58.104 C839.882667,58.344 840.008,58.656 840.008,59.04 C840.008,59.5626667 839.778667,59.9813333 839.32,60.296 C838.861333,60.6106667 838.168,60.768 837.24,60.768 C836.536,60.768 835.850667,60.648 835.184,60.408 C834.517333,60.168 833.970667,59.856 833.544,59.472 L833.544,59.472 L832.952,60.72 C833.4,61.136 834.016,61.4746667 834.8,61.736 C835.584,61.9973333 836.397333,62.128 837.24,62.128 Z M849.976,62 L849.976,60.736 L844.84,60.736 L849.848,54.528 L849.848,53.52 L842.968,53.52 L842.968,54.784 L847.88,54.784 L842.872,61.008 L842.872,62 L849.976,62 Z M854.024,52.016 C854.248,52.016 854.44,51.9386667 854.6,51.784 C854.76,51.6293333 854.84,51.4346667 854.84,51.2 C854.84,50.9653333 854.76,50.768 854.6,50.608 C854.44,50.448 854.248,50.368 854.024,50.368 C853.8,50.368 853.608,50.448 853.448,50.608 C853.288,50.768 853.208,50.9653333 853.208,51.2 C853.208,51.4346667 853.288,51.6293333 853.448,51.784 C853.608,51.9386667 853.8,52.016 854.024,52.016 Z M857,52.016 C857.224,52.016 857.416,51.9386667 857.576,51.784 C857.736,51.6293333 857.816,51.4346667 857.816,51.2 C857.816,50.9653333 857.736,50.768 857.576,50.608 C857.416,50.448 857.224,50.368 857,50.368 C856.776,50.368 856.584,50.448 856.424,50.608 C856.264,50.768 856.184,50.9653333 856.184,51.2 C856.184,51.4346667 856.264,51.6293333 856.424,51.784 C856.584,51.9386667 856.776,52.016 857,52.016 Z M855.528,62.096 C856.370667,62.096 857.125333,61.9093333 857.792,61.536 C858.458667,61.1626667 858.981333,60.648 859.36,59.992 C859.738667,59.336 859.928,58.592 859.928,57.76 C859.928,56.928 859.738667,56.184 859.36,55.528 C858.981333,54.872 858.458667,54.36 857.792,53.992 C857.125333,53.624 856.370667,53.44 855.528,53.44 C854.685333,53.44 853.928,53.624 853.256,53.992 C852.584,54.36 852.058667,54.872 851.68,55.528 C851.301333,56.184 851.112,56.928 851.112,57.76 C851.112,58.592 851.301333,59.336 851.68,59.992 C852.058667,60.648 852.584,61.1626667 853.256,61.536 C853.928,61.9093333 854.685333,62.096 855.528,62.096 Z M855.528,60.752 C854.984,60.752 854.496,60.6266667 854.064,60.376 C853.632,60.1253333 853.290667,59.7733333 853.04,59.32 C852.789333,58.8666667 852.664,58.3466667 852.664,57.76 C852.664,57.1733333 852.789333,56.6533333 853.04,56.2 C853.290667,55.7466667 853.632,55.3973333 854.064,55.152 C854.496,54.9066667 854.984,54.784 855.528,54.784 C856.072,54.784 856.56,54.9066667 856.992,55.152 C857.424,55.3973333 857.762667,55.7466667 858.008,56.2 C858.253333,56.6533333 858.376,57.1733333 858.376,57.76 C858.376,58.3466667 858.253333,58.8666667 858.008,59.32 C857.762667,59.7733333 857.424,60.1253333 856.992,60.376 C856.56,60.6266667 856.072,60.752 855.528,60.752 Z M865.608,62 L869.32,53.52 L867.816,53.52 L864.84,60.32 L861.928,53.52 L860.328,53.52 L864.04,62 L865.608,62 Z M874.296,62.096 C875,62.096 875.637333,61.9786667 876.208,61.744 C876.778667,61.5093333 877.256,61.168 877.64,60.72 L877.64,60.72 L876.792,59.728 C876.173333,60.4106667 875.357333,60.752 874.344,60.752 C873.512,60.752 872.816,60.5253333 872.256,60.072 C871.696,59.6186667 871.368,59.0186667 871.272,58.272 L871.272,58.272 L878.152,58.272 C878.173333,58.08 878.184,57.9253333 878.184,57.808 C878.184,56.9546667 878.005333,56.1973333 877.648,55.536 C877.290667,54.8746667 876.794667,54.36 876.16,53.992 C875.525333,53.624 874.802667,53.44 873.992,53.44 C873.181333,53.44 872.453333,53.624 871.808,53.992 C871.162667,54.36 870.656,54.8746667 870.288,55.536 C869.92,56.1973333 869.736,56.9386667 869.736,57.76 C869.736,58.592 869.925333,59.3386667 870.304,60 C870.682667,60.6613333 871.218667,61.176 871.912,61.544 C872.605333,61.912 873.4,62.096 874.296,62.096 Z M876.712,57.168 L871.272,57.168 C871.357333,56.4426667 871.648,55.856 872.144,55.408 C872.64,54.96 873.256,54.736 873.992,54.736 C874.728,54.736 875.344,54.9626667 875.84,55.416 C876.336,55.8693333 876.626667,56.4533333 876.712,57.168 L876.712,57.168 Z M884.024,65.2 C885.485333,65.2 886.584,64.8453333 887.32,64.136 C888.056,63.4266667 888.424,62.3306667 888.424,60.848 L888.424,60.848 L888.424,53.52 L886.968,53.52 L886.968,54.832 C886.616,54.3733333 886.165333,54.0266667 885.616,53.792 C885.066667,53.5573333 884.472,53.44 883.832,53.44 C883.021333,53.44 882.288,53.6106667 881.632,53.952 C880.976,54.2933333 880.461333,54.776 880.088,55.4 C879.714667,56.024 879.528,56.736 879.528,57.536 C879.528,58.336 879.714667,59.048 880.088,59.672 C880.461333,60.296 880.976,60.7813333 881.632,61.128 C882.288,61.4746667 883.021333,61.648 883.832,61.648 C884.450667,61.648 885.024,61.5386667 885.552,61.32 C886.08,61.1013333 886.525333,60.7733333 886.888,60.336 L886.888,60.336 L886.888,61.008 C886.888,61.968 886.650667,62.6826667 886.176,63.152 C885.701333,63.6213333 884.968,63.856 883.976,63.856 C883.357333,63.856 882.757333,63.7573333 882.176,63.56 C881.594667,63.3626667 881.106667,63.0933333 880.712,62.752 L880.712,62.752 L879.976,63.936 C880.424,64.3413333 881.010667,64.6533333 881.736,64.872 C882.461333,65.0906667 883.224,65.2 884.024,65.2 Z M884.008,60.304 C883.442667,60.304 882.938667,60.1866667 882.496,59.952 C882.053333,59.7173333 881.706667,59.3893333 881.456,58.968 C881.205333,58.5466667 881.08,58.0693333 881.08,57.536 C881.08,56.7146667 881.352,56.0506667 881.896,55.544 C882.44,55.0373333 883.144,54.784 884.008,54.784 C884.861333,54.784 885.56,55.0373333 886.104,55.544 C886.648,56.0506667 886.92,56.7146667 886.92,57.536 C886.92,58.0693333 886.794667,58.5466667 886.544,58.968 C886.293333,59.3893333 885.946667,59.7173333 885.504,59.952 C885.061333,60.1866667 884.562667,60.304 884.008,60.304 Z M895.128,62.096 C895.832,62.096 896.469333,61.9786667 897.04,61.744 C897.610667,61.5093333 898.088,61.168 898.472,60.72 L898.472,60.72 L897.624,59.728 C897.005333,60.4106667 896.189333,60.752 895.176,60.752 C894.344,60.752 893.648,60.5253333 893.088,60.072 C892.528,59.6186667 892.2,59.0186667 892.104,58.272 L892.104,58.272 L898.984,58.272 C899.005333,58.08 899.016,57.9253333 899.016,57.808 C899.016,56.9546667 898.837333,56.1973333 898.48,55.536 C898.122667,54.8746667 897.626667,54.36 896.992,53.992 C896.357333,53.624 895.634667,53.44 894.824,53.44 C894.013333,53.44 893.285333,53.624 892.64,53.992 C891.994667,54.36 891.488,54.8746667 891.12,55.536 C890.752,56.1973333 890.568,56.9386667 890.568,57.76 C890.568,58.592 890.757333,59.3386667 891.136,60 C891.514667,60.6613333 892.050667,61.176 892.744,61.544 C893.437333,61.912 894.232,62.096 895.128,62.096 Z M897.544,57.168 L892.104,57.168 C892.189333,56.4426667 892.48,55.856 892.976,55.408 C893.472,54.96 894.088,54.736 894.824,54.736 C895.56,54.736 896.176,54.9626667 896.672,55.416 C897.168,55.8693333 897.458667,56.4533333 897.544,57.168 L897.544,57.168 Z M903.576,62.096 C904.706667,62.096 905.6,61.8693333 906.256,61.416 C906.912,60.9626667 907.24,60.352 907.24,59.584 C907.24,59.008 907.090667,58.56 906.792,58.24 C906.493333,57.92 906.133333,57.6933333 905.712,57.56 C905.290667,57.4266667 904.738667,57.3013333 904.056,57.184 C903.544,57.088 903.146667,57.0026667 902.864,56.928 C902.581333,56.8533333 902.344,56.736 902.152,56.576 C901.96,56.416 901.864,56.1973333 901.864,55.92 C901.864,55.568 902.034667,55.2853333 902.376,55.072 C902.717333,54.8586667 903.213333,54.752 903.864,54.752 C904.802667,54.752 905.618667,54.976 906.312,55.424 L906.312,55.424 L906.968,54.208 C906.605333,53.9733333 906.141333,53.7866667 905.576,53.648 C905.010667,53.5093333 904.445333,53.44 903.88,53.44 C902.802667,53.44 901.944,53.672 901.304,54.136 C900.664,54.6 900.344,55.216 900.344,55.984 C900.344,56.5813333 900.498667,57.0453333 900.808,57.376 C901.117333,57.7066667 901.488,57.9413333 901.92,58.08 C902.352,58.2186667 902.909333,58.3413333 903.592,58.448 C904.093333,58.5333333 904.48,58.6106667 904.752,58.68 C905.024,58.7493333 905.250667,58.8586667 905.432,59.008 C905.613333,59.1573333 905.704,59.36 905.704,59.616 C905.704,60.384 905.032,60.768 903.688,60.768 C903.144,60.768 902.605333,60.688 902.072,60.528 C901.538667,60.368 901.085333,60.1546667 900.712,59.888 L900.712,59.888 L900.072,61.104 C900.434667,61.392 900.936,61.6293333 901.576,61.816 C902.216,62.0026667 902.882667,62.096 903.576,62.096 Z M835.656,86 L839.368,77.52 L837.864,77.52 L834.888,84.32 L831.976,77.52 L830.376,77.52 L834.088,86 L835.656,86 Z M844.264,76.288 L846.952,74.208 L845,74.208 L842.824,76.288 L844.264,76.288 Z M844.344,86.096 C845.048,86.096 845.685333,85.9786667 846.256,85.744 C846.826667,85.5093333 847.304,85.168 847.688,84.72 L847.688,84.72 L846.84,83.728 C846.221333,84.4106667 845.405333,84.752 844.392,84.752 C843.56,84.752 842.864,84.5253333 842.304,84.072 C841.744,83.6186667 841.416,83.0186667 841.32,82.272 L841.32,82.272 L848.2,82.272 C848.221333,82.08 848.232,81.9253333 848.232,81.808 C848.232,80.9546667 848.053333,80.1973333 847.696,79.536 C847.338667,78.8746667 846.842667,78.36 846.208,77.992 C845.573333,77.624 844.850667,77.44 844.04,77.44 C843.229333,77.44 842.501333,77.624 841.856,77.992 C841.210667,78.36 840.704,78.8746667 840.336,79.536 C839.968,80.1973333 839.784,80.9386667 839.784,81.76 C839.784,82.592 839.973333,83.3386667 840.352,84 C840.730667,84.6613333 841.266667,85.176 841.96,85.544 C842.653333,85.912 843.448,86.096 844.344,86.096 Z M846.76,81.168 L841.32,81.168 C841.405333,80.4426667 841.696,79.856 842.192,79.408 C842.688,78.96 843.304,78.736 844.04,78.736 C844.776,78.736 845.392,78.9626667 845.888,79.416 C846.384,79.8693333 846.674667,80.4533333 846.76,81.168 L846.76,81.168 Z M851.896,86 L851.896,74.128 L850.36,74.128 L850.36,86 L851.896,86 Z M858.6,86.096 C859.304,86.096 859.941333,85.9786667 860.512,85.744 C861.082667,85.5093333 861.56,85.168 861.944,84.72 L861.944,84.72 L861.096,83.728 C860.477333,84.4106667 859.661333,84.752 858.648,84.752 C857.816,84.752 857.12,84.5253333 856.56,84.072 C856,83.6186667 855.672,83.0186667 855.576,82.272 L855.576,82.272 L862.456,82.272 C862.477333,82.08 862.488,81.9253333 862.488,81.808 C862.488,80.9546667 862.309333,80.1973333 861.952,79.536 C861.594667,78.8746667 861.098667,78.36 860.464,77.992 C859.829333,77.624 859.106667,77.44 858.296,77.44 C857.485333,77.44 856.757333,77.624 856.112,77.992 C855.466667,78.36 854.96,78.8746667 854.592,79.536 C854.224,80.1973333 854.04,80.9386667 854.04,81.76 C854.04,82.592 854.229333,83.3386667 854.608,84 C854.986667,84.6613333 855.522667,85.176 856.216,85.544 C856.909333,85.912 857.704,86.096 858.6,86.096 Z M861.016,81.168 L855.576,81.168 C855.661333,80.4426667 855.952,79.856 856.448,79.408 C856.944,78.96 857.56,78.736 858.296,78.736 C859.032,78.736 859.648,78.9626667 860.144,79.416 C860.64,79.8693333 860.930667,80.4533333 861.016,81.168 L861.016,81.168 Z M866.152,86 L866.152,81.632 C866.152,80.7253333 866.381333,80.0293333 866.84,79.544 C867.298667,79.0586667 867.917333,78.816 868.696,78.816 C869.4,78.816 869.941333,79.024 870.32,79.44 C870.698667,79.856 870.888,80.4746667 870.888,81.296 L870.888,81.296 L870.888,86 L872.424,86 L872.424,81.632 C872.424,80.7253333 872.653333,80.0293333 873.112,79.544 C873.570667,79.0586667 874.189333,78.816 874.968,78.816 C875.672,78.816 876.213333,79.024 876.592,79.44 C876.970667,79.856 877.16,80.4746667 877.16,81.296 L877.16,81.296 L877.16,86 L878.696,86 L878.696,81.12 C878.696,79.904 878.384,78.9866667 877.76,78.368 C877.136,77.7493333 876.290667,77.44 875.224,77.44 C874.509333,77.44 873.866667,77.5786667 873.296,77.856 C872.725333,78.1333333 872.28,78.5173333 871.96,79.008 C871.682667,78.496 871.288,78.1066667 870.776,77.84 C870.264,77.5733333 869.677333,77.44 869.016,77.44 C868.376,77.44 867.805333,77.5546667 867.304,77.784 C866.802667,78.0133333 866.397333,78.3466667 866.088,78.784 L866.088,78.784 L866.088,77.52 L864.616,77.52 L864.616,86 L866.152,86 Z M885.272,76.288 L887.96,74.208 L886.008,74.208 L883.832,76.288 L885.272,76.288 Z M885.352,86.096 C886.056,86.096 886.693333,85.9786667 887.264,85.744 C887.834667,85.5093333 888.312,85.168 888.696,84.72 L888.696,84.72 L887.848,83.728 C887.229333,84.4106667 886.413333,84.752 885.4,84.752 C884.568,84.752 883.872,84.5253333 883.312,84.072 C882.752,83.6186667 882.424,83.0186667 882.328,82.272 L882.328,82.272 L889.208,82.272 C889.229333,82.08 889.24,81.9253333 889.24,81.808 C889.24,80.9546667 889.061333,80.1973333 888.704,79.536 C888.346667,78.8746667 887.850667,78.36 887.216,77.992 C886.581333,77.624 885.858667,77.44 885.048,77.44 C884.237333,77.44 883.509333,77.624 882.864,77.992 C882.218667,78.36 881.712,78.8746667 881.344,79.536 C880.976,80.1973333 880.792,80.9386667 880.792,81.76 C880.792,82.592 880.981333,83.3386667 881.36,84 C881.738667,84.6613333 882.274667,85.176 882.968,85.544 C883.661333,85.912 884.456,86.096 885.352,86.096 Z M887.768,81.168 L882.328,81.168 C882.413333,80.4426667 882.704,79.856 883.2,79.408 C883.696,78.96 884.312,78.736 885.048,78.736 C885.784,78.736 886.4,78.9626667 886.896,79.416 C887.392,79.8693333 887.682667,80.4533333 887.768,81.168 L887.768,81.168 Z M892.904,86 L892.904,81.632 C892.904,80.7253333 893.144,80.0293333 893.624,79.544 C894.104,79.0586667 894.76,78.816 895.592,78.816 C896.328,78.816 896.893333,79.024 897.288,79.44 C897.682667,79.856 897.88,80.4746667 897.88,81.296 L897.88,81.296 L897.88,86 L899.416,86 L899.416,81.12 C899.416,79.9146667 899.098667,79 898.464,78.376 C897.829333,77.752 896.973333,77.44 895.896,77.44 C895.224,77.44 894.624,77.5573333 894.096,77.792 C893.568,78.0266667 893.149333,78.3626667 892.84,78.8 L892.84,78.8 L892.84,77.52 L891.368,77.52 L891.368,86 L892.904,86 Z M902.472,89.2 C903.154667,89.2 903.738667,89.024 904.224,88.672 C904.709333,88.32 905.133333,87.712 905.496,86.848 L905.496,86.848 L909.608,77.52 L908.104,77.52 L905.176,84.304 L902.216,77.52 L900.616,77.52 L904.36,85.984 L904.088,86.576 C903.885333,87.056 903.658667,87.3946667 903.408,87.592 C903.157333,87.7893333 902.845333,87.888 902.472,87.888 C901.896,87.888 901.389333,87.68 900.952,87.264 L900.952,87.264 L900.296,88.416 C900.552,88.672 900.874667,88.8666667 901.264,89 C901.653333,89.1333333 902.056,89.2 902.472,89.2 Z" id="Szövegesvélemény" fill-opacity="0.7" fill="#323C50" fill-rule="nonzero"></path>
                <line x1="632" y1="18" x2="835.999441" y2="18.4777504" id="Line-Copy-5" stroke="#979797" stroke-width="1.5" stroke-linecap="square" stroke-dasharray="4"></line>
                <line x1="88" y1="18" x2="292" y2="18" id="Line-Copy-3" stroke="#979797" stroke-width="1.5" stroke-linecap="square" stroke-dasharray="4"></line>
                <line x1="360" y1="18" x2="564" y2="18" id="Line-Copy-4" stroke="#979797" stroke-width="1.5" stroke-linecap="square" stroke-dasharray="4"></line>
            </g>
        </g>
    </g>
</svg>