<?xml version="1.0" encoding="UTF-8"?>
<svg width="907px" height="90px" viewBox="0 0 907 90" version="1.1" xmlns="http://www.w3.org/2000/svg" xmlns:xlink="http://www.w3.org/1999/xlink">
    <!-- Generator: Sketch 63 (92445) - https://sketch.com -->
    <title>Group 6</title>
    <desc>Created with Sketch.</desc>
    <g id="Profession-vélemények---UI-Desktop---960px" stroke="none" stroke-width="1" fill="none" fill-rule="evenodd">
        <g id="Lépés-1---illustration---Értékelő-form---Desktop--Copy" transform="translate(-180.000000, -533.000000)">
            <g id="Group-6" transform="translate(180.000000, 533.000000)">
                <path d="M1.912,62 L1.912,53.888 L5.96,60.64 L6.696,60.64 L10.744,53.84 L10.76,62 L12.296,62 L12.28,50.8 L10.968,50.8 L6.36,58.672 L1.688,50.8 L0.376,50.8 L0.376,62 L1.912,62 Z M19,62.096 C19.5973333,62.096 20.1493333,61.976 20.656,61.736 C21.1626667,61.496 21.5706667,61.1573333 21.88,60.72 L21.88,60.72 L21.88,62 L23.336,62 L23.336,53.52 L21.8,53.52 L21.8,57.904 C21.8,58.8 21.5653333,59.4933333 21.096,59.984 C20.6266667,60.4746667 19.9866667,60.72 19.176,60.72 C18.44,60.72 17.8746667,60.5093333 17.48,60.088 C17.0853333,59.6666667 16.888,59.0453333 16.888,58.224 L16.888,58.224 L16.888,53.52 L15.352,53.52 L15.352,58.4 C15.352,59.616 15.6773333,60.536 16.328,61.16 C16.9786667,61.784 17.8693333,62.096 19,62.096 Z M27.8,62 L27.8,57.632 C27.8,56.7253333 28.04,56.0293333 28.52,55.544 C29,55.0586667 29.656,54.816 30.488,54.816 C31.224,54.816 31.7893333,55.024 32.184,55.44 C32.5786667,55.856 32.776,56.4746667 32.776,57.296 L32.776,57.296 L32.776,62 L34.312,62 L34.312,57.12 C34.312,55.9146667 33.9946667,55 33.36,54.376 C32.7253333,53.752 31.8693333,53.44 30.792,53.44 C30.12,53.44 29.52,53.5573333 28.992,53.792 C28.464,54.0266667 28.0453333,54.3626667 27.736,54.8 L27.736,54.8 L27.736,53.52 L26.264,53.52 L26.264,62 L27.8,62 Z M38.696,62 L38.696,59.68 L40.456,58.048 L43.64,62 L45.528,62 L41.608,57.024 L45.176,53.52 L43.32,53.52 L38.696,57.744 L38.696,50.128 L37.16,50.128 L37.16,62 L38.696,62 Z M49.336,62.096 C49.9866667,62.096 50.5493333,61.992 51.024,61.784 C51.4986667,61.576 51.864,61.2746667 52.12,60.88 L52.12,60.88 L52.12,62 L53.576,62 L53.576,56.88 C53.576,55.7386667 53.264,54.88 52.64,54.304 C52.016,53.728 51.1173333,53.44 49.944,53.44 C49.2613333,53.44 48.616,53.5333333 48.008,53.72 C47.4,53.9066667 46.8773333,54.176 46.44,54.528 L46.44,54.528 L47.08,55.68 C47.4106667,55.4026667 47.816,55.1813333 48.296,55.016 C48.776,54.8506667 49.2666667,54.768 49.768,54.768 C50.5146667,54.768 51.08,54.944 51.464,55.296 C51.848,55.648 52.04,56.1546667 52.04,56.816 L52.04,56.816 L52.04,57.12 L49.608,57.12 C48.424,57.12 47.56,57.3466667 47.016,57.8 C46.472,58.2533333 46.2,58.8533333 46.2,59.6 C46.2,60.3466667 46.4853333,60.9493333 47.056,61.408 C47.6266667,61.8666667 48.3866667,62.096 49.336,62.096 Z M49.592,60.912 C49.0053333,60.912 48.5466667,60.7893333 48.216,60.544 C47.8853333,60.2986667 47.72,59.9626667 47.72,59.536 C47.72,58.6613333 48.3706667,58.224 49.672,58.224 L49.672,58.224 L52.04,58.224 L52.04,59.408 C51.848,59.888 51.5386667,60.2586667 51.112,60.52 C50.6853333,60.7813333 50.1786667,60.912 49.592,60.912 Z M57.96,62 L57.96,59.68 L59.72,58.048 L62.904,62 L64.792,62 L60.872,57.024 L64.44,53.52 L62.584,53.52 L57.96,57.744 L57.96,50.128 L56.424,50.128 L56.424,62 L57.96,62 Z M68.056,52.016 C68.28,52.016 68.472,51.9386667 68.632,51.784 C68.792,51.6293333 68.872,51.4346667 68.872,51.2 C68.872,50.9653333 68.792,50.768 68.632,50.608 C68.472,50.448 68.28,50.368 68.056,50.368 C67.832,50.368 67.64,50.448 67.48,50.608 C67.32,50.768 67.24,50.9653333 67.24,51.2 C67.24,51.4346667 67.32,51.6293333 67.48,51.784 C67.64,51.9386667 67.832,52.016 68.056,52.016 Z M71.032,52.016 C71.256,52.016 71.448,51.9386667 71.608,51.784 C71.768,51.6293333 71.848,51.4346667 71.848,51.2 C71.848,50.9653333 71.768,50.768 71.608,50.608 C71.448,50.448 71.256,50.368 71.032,50.368 C70.808,50.368 70.616,50.448 70.456,50.608 C70.296,50.768 70.216,50.9653333 70.216,51.2 C70.216,51.4346667 70.296,51.6293333 70.456,51.784 C70.616,51.9386667 70.808,52.016 71.032,52.016 Z M69.56,62.096 C70.4026667,62.096 71.1573333,61.9093333 71.824,61.536 C72.4906667,61.1626667 73.0133333,60.648 73.392,59.992 C73.7706667,59.336 73.96,58.592 73.96,57.76 C73.96,56.928 73.7706667,56.184 73.392,55.528 C73.0133333,54.872 72.4906667,54.36 71.824,53.992 C71.1573333,53.624 70.4026667,53.44 69.56,53.44 C68.7173333,53.44 67.96,53.624 67.288,53.992 C66.616,54.36 66.0906667,54.872 65.712,55.528 C65.3333333,56.184 65.144,56.928 65.144,57.76 C65.144,58.592 65.3333333,59.336 65.712,59.992 C66.0906667,60.648 66.616,61.1626667 67.288,61.536 C67.96,61.9093333 68.7173333,62.096 69.56,62.096 Z M69.56,60.752 C69.016,60.752 68.528,60.6266667 68.096,60.376 C67.664,60.1253333 67.3226667,59.7733333 67.072,59.32 C66.8213333,58.8666667 66.696,58.3466667 66.696,57.76 C66.696,57.1733333 66.8213333,56.6533333 67.072,56.2 C67.3226667,55.7466667 67.664,55.3973333 68.096,55.152 C68.528,54.9066667 69.016,54.784 69.56,54.784 C70.104,54.784 70.592,54.9066667 71.024,55.152 C71.456,55.3973333 71.7946667,55.7466667 72.04,56.2 C72.2853333,56.6533333 72.408,57.1733333 72.408,57.76 C72.408,58.3466667 72.2853333,58.8666667 72.04,59.32 C71.7946667,59.7733333 71.456,60.1253333 71.024,60.376 C70.592,60.6266667 70.104,60.752 69.56,60.752 Z M77.624,62 L77.624,57.776 C77.624,56.8586667 77.8613333,56.152 78.336,55.656 C78.8106667,55.16 79.464,54.912 80.296,54.912 C80.4453333,54.912 80.5626667,54.9173333 80.648,54.928 L80.648,54.928 L80.648,53.44 C79.9013333,53.44 79.2666667,53.568 78.744,53.824 C78.2213333,54.08 77.8266667,54.4533333 77.56,54.944 L77.56,54.944 L77.56,53.52 L76.088,53.52 L76.088,62 L77.624,62 Z M90.648,52.288 L93.336,50.208 L91.384,50.208 L89.208,52.288 L90.648,52.288 Z M90.728,62.096 C91.432,62.096 92.0693333,61.9786667 92.64,61.744 C93.2106667,61.5093333 93.688,61.168 94.072,60.72 L94.072,60.72 L93.224,59.728 C92.6053333,60.4106667 91.7893333,60.752 90.776,60.752 C89.944,60.752 89.248,60.5253333 88.688,60.072 C88.128,59.6186667 87.8,59.0186667 87.704,58.272 L87.704,58.272 L94.584,58.272 C94.6053333,58.08 94.616,57.9253333 94.616,57.808 C94.616,56.9546667 94.4373333,56.1973333 94.08,55.536 C93.7226667,54.8746667 93.2266667,54.36 92.592,53.992 C91.9573333,53.624 91.2346667,53.44 90.424,53.44 C89.6133333,53.44 88.8853333,53.624 88.24,53.992 C87.5946667,54.36 87.088,54.8746667 86.72,55.536 C86.352,56.1973333 86.168,56.9386667 86.168,57.76 C86.168,58.592 86.3573333,59.3386667 86.736,60 C87.1146667,60.6613333 87.6506667,61.176 88.344,61.544 C89.0373333,61.912 89.832,62.096 90.728,62.096 Z M93.144,57.168 L87.704,57.168 C87.7893333,56.4426667 88.08,55.856 88.576,55.408 C89.072,54.96 89.688,54.736 90.424,54.736 C91.16,54.736 91.776,54.9626667 92.272,55.416 C92.768,55.8693333 93.0586667,56.4533333 93.144,57.168 L93.144,57.168 Z M99.176,62.096 C100.306667,62.096 101.2,61.8693333 101.856,61.416 C102.512,60.9626667 102.84,60.352 102.84,59.584 C102.84,59.008 102.690667,58.56 102.392,58.24 C102.093333,57.92 101.733333,57.6933333 101.312,57.56 C100.890667,57.4266667 100.338667,57.3013333 99.656,57.184 C99.144,57.088 98.7466667,57.0026667 98.464,56.928 C98.1813333,56.8533333 97.944,56.736 97.752,56.576 C97.56,56.416 97.464,56.1973333 97.464,55.92 C97.464,55.568 97.6346667,55.2853333 97.976,55.072 C98.3173333,54.8586667 98.8133333,54.752 99.464,54.752 C100.402667,54.752 101.218667,54.976 101.912,55.424 L101.912,55.424 L102.568,54.208 C102.205333,53.9733333 101.741333,53.7866667 101.176,53.648 C100.610667,53.5093333 100.045333,53.44 99.48,53.44 C98.4026667,53.44 97.544,53.672 96.904,54.136 C96.264,54.6 95.944,55.216 95.944,55.984 C95.944,56.5813333 96.0986667,57.0453333 96.408,57.376 C96.7173333,57.7066667 97.088,57.9413333 97.52,58.08 C97.952,58.2186667 98.5093333,58.3413333 99.192,58.448 C99.6933333,58.5333333 100.08,58.6106667 100.352,58.68 C100.624,58.7493333 100.850667,58.8586667 101.032,59.008 C101.213333,59.1573333 101.304,59.36 101.304,59.616 C101.304,60.384 100.632,60.768 99.288,60.768 C98.744,60.768 98.2053333,60.688 97.672,60.528 C97.1386667,60.368 96.6853333,60.1546667 96.312,59.888 L96.312,59.888 L95.672,61.104 C96.0346667,61.392 96.536,61.6293333 97.176,61.816 C97.816,62.0026667 98.4826667,62.096 99.176,62.096 Z M7.968,86 L7.968,81.632 C7.968,80.7253333 8.19733333,80.0293333 8.656,79.544 C9.11466667,79.0586667 9.73333333,78.816 10.512,78.816 C11.216,78.816 11.7573333,79.024 12.136,79.44 C12.5146667,79.856 12.704,80.4746667 12.704,81.296 L12.704,81.296 L12.704,86 L14.24,86 L14.24,81.632 C14.24,80.7253333 14.4693333,80.0293333 14.928,79.544 C15.3866667,79.0586667 16.0053333,78.816 16.784,78.816 C17.488,78.816 18.0293333,79.024 18.408,79.44 C18.7866667,79.856 18.976,80.4746667 18.976,81.296 L18.976,81.296 L18.976,86 L20.512,86 L20.512,81.12 C20.512,79.904 20.2,78.9866667 19.576,78.368 C18.952,77.7493333 18.1066667,77.44 17.04,77.44 C16.3253333,77.44 15.6826667,77.5786667 15.112,77.856 C14.5413333,78.1333333 14.096,78.5173333 13.776,79.008 C13.4986667,78.496 13.104,78.1066667 12.592,77.84 C12.08,77.5733333 11.4933333,77.44 10.832,77.44 C10.192,77.44 9.62133333,77.5546667 9.12,77.784 C8.61866667,78.0133333 8.21333333,78.3466667 7.904,78.784 L7.904,78.784 L7.904,77.52 L6.432,77.52 L6.432,86 L7.968,86 Z M26.912,86.096 C27.5093333,86.096 28.0613333,85.976 28.568,85.736 C29.0746667,85.496 29.4826667,85.1573333 29.792,84.72 L29.792,84.72 L29.792,86 L31.248,86 L31.248,77.52 L29.712,77.52 L29.712,81.904 C29.712,82.8 29.4773333,83.4933333 29.008,83.984 C28.5386667,84.4746667 27.8986667,84.72 27.088,84.72 C26.352,84.72 25.7866667,84.5093333 25.392,84.088 C24.9973333,83.6666667 24.8,83.0453333 24.8,82.224 L24.8,82.224 L24.8,77.52 L23.264,77.52 L23.264,82.4 C23.264,83.616 23.5893333,84.536 24.24,85.16 C24.8906667,85.784 25.7813333,86.096 26.912,86.096 Z M35.712,86 L35.712,81.632 C35.712,80.7253333 35.952,80.0293333 36.432,79.544 C36.912,79.0586667 37.568,78.816 38.4,78.816 C39.136,78.816 39.7013333,79.024 40.096,79.44 C40.4906667,79.856 40.688,80.4746667 40.688,81.296 L40.688,81.296 L40.688,86 L42.224,86 L42.224,81.12 C42.224,79.9146667 41.9066667,79 41.272,78.376 C40.6373333,77.752 39.7813333,77.44 38.704,77.44 C38.032,77.44 37.432,77.5573333 36.904,77.792 C36.376,78.0266667 35.9573333,78.3626667 35.648,78.8 L35.648,78.8 L35.648,77.52 L34.176,77.52 L34.176,86 L35.712,86 Z M46.608,86 L46.608,83.68 L48.368,82.048 L51.552,86 L53.44,86 L49.52,81.024 L53.088,77.52 L51.232,77.52 L46.608,81.744 L46.608,74.128 L45.072,74.128 L45.072,86 L46.608,86 Z M57.248,86.096 C57.8986667,86.096 58.4613333,85.992 58.936,85.784 C59.4106667,85.576 59.776,85.2746667 60.032,84.88 L60.032,84.88 L60.032,86 L61.488,86 L61.488,80.88 C61.488,79.7386667 61.176,78.88 60.552,78.304 C59.928,77.728 59.0293333,77.44 57.856,77.44 C57.1733333,77.44 56.528,77.5333333 55.92,77.72 C55.312,77.9066667 54.7893333,78.176 54.352,78.528 L54.352,78.528 L54.992,79.68 C55.3226667,79.4026667 55.728,79.1813333 56.208,79.016 C56.688,78.8506667 57.1786667,78.768 57.68,78.768 C58.4266667,78.768 58.992,78.944 59.376,79.296 C59.76,79.648 59.952,80.1546667 59.952,80.816 L59.952,80.816 L59.952,81.12 L57.52,81.12 C56.336,81.12 55.472,81.3466667 54.928,81.8 C54.384,82.2533333 54.112,82.8533333 54.112,83.6 C54.112,84.3466667 54.3973333,84.9493333 54.968,85.408 C55.5386667,85.8666667 56.2986667,86.096 57.248,86.096 Z M57.504,84.912 C56.9173333,84.912 56.4586667,84.7893333 56.128,84.544 C55.7973333,84.2986667 55.632,83.9626667 55.632,83.536 C55.632,82.6613333 56.2826667,82.224 57.584,82.224 L57.584,82.224 L59.952,82.224 L59.952,83.408 C59.76,83.888 59.4506667,84.2586667 59.024,84.52 C58.5973333,84.7813333 58.0906667,84.912 57.504,84.912 Z M65.872,86 L65.872,81.632 C65.872,80.7253333 66.112,80.0293333 66.592,79.544 C67.072,79.0586667 67.728,78.816 68.56,78.816 C69.296,78.816 69.8613333,79.024 70.256,79.44 C70.6506667,79.856 70.848,80.4746667 70.848,81.296 L70.848,81.296 L70.848,86 L72.384,86 L72.384,81.12 C72.384,79.9146667 72.0666667,79 71.432,78.376 C70.7973333,77.752 69.9413333,77.44 68.864,77.44 C68.224,77.44 67.6453333,77.552 67.128,77.776 C66.6106667,78 66.192,78.3146667 65.872,78.72 L65.872,78.72 L65.872,74.128 L64.336,74.128 L64.336,86 L65.872,86 Z M79.056,86.096 C79.76,86.096 80.3973333,85.9786667 80.968,85.744 C81.5386667,85.5093333 82.016,85.168 82.4,84.72 L82.4,84.72 L81.552,83.728 C80.9333333,84.4106667 80.1173333,84.752 79.104,84.752 C78.272,84.752 77.576,84.5253333 77.016,84.072 C76.456,83.6186667 76.128,83.0186667 76.032,82.272 L76.032,82.272 L82.912,82.272 C82.9333333,82.08 82.944,81.9253333 82.944,81.808 C82.944,80.9546667 82.7653333,80.1973333 82.408,79.536 C82.0506667,78.8746667 81.5546667,78.36 80.92,77.992 C80.2853333,77.624 79.5626667,77.44 78.752,77.44 C77.9413333,77.44 77.2133333,77.624 76.568,77.992 C75.9226667,78.36 75.416,78.8746667 75.048,79.536 C74.68,80.1973333 74.496,80.9386667 74.496,81.76 C74.496,82.592 74.6853333,83.3386667 75.064,84 C75.4426667,84.6613333 75.9786667,85.176 76.672,85.544 C77.3653333,85.912 78.16,86.096 79.056,86.096 Z M81.472,81.168 L76.032,81.168 C76.1173333,80.4426667 76.408,79.856 76.904,79.408 C77.4,78.96 78.016,78.736 78.752,78.736 C79.488,78.736 80.104,78.9626667 80.6,79.416 C81.096,79.8693333 81.3866667,80.4533333 81.472,81.168 L81.472,81.168 Z M86.608,86 L86.608,74.128 L85.072,74.128 L85.072,86 L86.608,86 Z M89.904,89.2 C90.5866667,89.2 91.1706667,89.024 91.656,88.672 C92.1413333,88.32 92.5653333,87.712 92.928,86.848 L92.928,86.848 L97.04,77.52 L95.536,77.52 L92.608,84.304 L89.648,77.52 L88.048,77.52 L91.792,85.984 L91.52,86.576 C91.3173333,87.056 91.0906667,87.3946667 90.84,87.592 C90.5893333,87.7893333 90.2773333,87.888 89.904,87.888 C89.328,87.888 88.8213333,87.68 88.384,87.264 L88.384,87.264 L87.728,88.416 C87.984,88.672 88.3066667,88.8666667 88.696,89 C89.0853333,89.1333333 89.488,89.2 89.904,89.2 Z" id="Munkakörésmunkahely" fill="#323C50" fill-rule="nonzero"></path>
                <circle id="Oval" stroke="#4A589F" stroke-width="1.5" cx="51" cy="18" r="17.25"></circle>
                <circle id="Oval-Copy" fill="#50D7BE" cx="51" cy="18" r="14"></circle>
                <path d="M280.144,62 L280.144,55.424 L283.424,60.816 L284.592,60.816 L287.888,55.28 L287.904,62 L290.336,62 L290.304,50.8 L288.176,50.8 L284.048,57.76 L279.856,50.8 L277.712,50.8 L277.712,62 L280.144,62 Z M296.448,62.128 C296.981333,62.128 297.477333,62.0293333 297.936,61.832 C298.394667,61.6346667 298.789333,61.3493333 299.12,60.976 L299.12,60.976 L299.12,62 L301.488,62 L301.488,53.392 L298.992,53.392 L298.992,57.648 C298.992,58.416 298.810667,58.9946667 298.448,59.384 C298.085333,59.7733333 297.605333,59.968 297.008,59.968 C295.845333,59.968 295.264,59.2746667 295.264,57.888 L295.264,57.888 L295.264,53.392 L292.768,53.392 L292.768,58.256 C292.768,59.536 293.098667,60.5013333 293.76,61.152 C294.421333,61.8026667 295.317333,62.128 296.448,62.128 Z M306.304,62 L306.304,57.744 C306.304,56.976 306.490667,56.3973333 306.864,56.008 C307.237333,55.6186667 307.738667,55.424 308.368,55.424 C308.933333,55.424 309.365333,55.592 309.664,55.928 C309.962667,56.264 310.112,56.7733333 310.112,57.456 L310.112,57.456 L310.112,62 L312.608,62 L312.608,57.072 C312.608,55.8133333 312.28,54.864 311.624,54.224 C310.968,53.584 310.106667,53.264 309.04,53.264 C308.453333,53.264 307.914667,53.3626667 307.424,53.56 C306.933333,53.7573333 306.522667,54.0373333 306.192,54.4 L306.192,54.4 L306.192,53.392 L303.808,53.392 L303.808,62 L306.304,62 Z M317.36,62 L317.36,59.808 L318.56,58.624 L321.28,62 L324.304,62 L320.4,57.04 L323.984,53.392 L321.008,53.392 L317.36,56.848 L317.36,50.128 L314.864,50.128 L314.864,62 L317.36,62 Z M327.92,62.128 C329.2,62.128 330.074667,61.728 330.544,60.928 L330.544,60.928 L330.544,62 L332.88,62 L332.88,57.088 C332.88,55.808 332.522667,54.8506667 331.808,54.216 C331.093333,53.5813333 330.069333,53.264 328.736,53.264 C328.042667,53.264 327.368,53.3546667 326.712,53.536 C326.056,53.7173333 325.493333,53.9733333 325.024,54.304 L325.024,54.304 L325.92,56.048 C326.229333,55.8026667 326.605333,55.608 327.048,55.464 C327.490667,55.32 327.941333,55.248 328.4,55.248 C329.061333,55.248 329.557333,55.3946667 329.888,55.688 C330.218667,55.9813333 330.384,56.4 330.384,56.944 L330.384,56.944 L328.4,56.944 C327.141333,56.944 326.210667,57.1733333 325.608,57.632 C325.005333,58.0906667 324.704,58.72 324.704,59.52 C324.704,60.0213333 324.832,60.4693333 325.088,60.864 C325.344,61.2586667 325.714667,61.568 326.2,61.792 C326.685333,62.016 327.258667,62.128 327.92,62.128 Z M328.544,60.448 C328.106667,60.448 327.762667,60.3546667 327.512,60.168 C327.261333,59.9813333 327.136,59.728 327.136,59.408 C327.136,58.736 327.648,58.4 328.672,58.4 L328.672,58.4 L330.384,58.4 L330.384,59.28 C330.245333,59.664 330.010667,59.9546667 329.68,60.152 C329.349333,60.3493333 328.970667,60.448 328.544,60.448 Z M337.632,62 L337.632,57.744 C337.632,56.976 337.818667,56.3973333 338.192,56.008 C338.565333,55.6186667 339.066667,55.424 339.696,55.424 C340.261333,55.424 340.693333,55.592 340.992,55.928 C341.290667,56.264 341.44,56.7733333 341.44,57.456 L341.44,57.456 L341.44,62 L343.936,62 L343.936,57.072 C343.936,55.8133333 343.608,54.864 342.952,54.224 C342.296,53.584 341.434667,53.264 340.368,53.264 C339.813333,53.264 339.301333,53.352 338.832,53.528 C338.362667,53.704 337.962667,53.9573333 337.632,54.288 L337.632,54.288 L337.632,50.128 L335.136,50.128 L335.136,62 L337.632,62 Z M350.56,62.128 C352.117333,62.128 353.301333,61.664 354.112,60.736 L354.112,60.736 L352.784,59.296 C352.485333,59.584 352.162667,59.7946667 351.816,59.928 C351.469333,60.0613333 351.072,60.128 350.624,60.128 C349.973333,60.128 349.429333,59.9733333 348.992,59.664 C348.554667,59.3546667 348.277333,58.9333333 348.16,58.4 L348.16,58.4 L354.672,58.4 C354.704,57.984 354.72,57.76 354.72,57.728 C354.72,56.832 354.525333,56.0453333 354.136,55.368 C353.746667,54.6906667 353.210667,54.1706667 352.528,53.808 C351.845333,53.4453333 351.082667,53.264 350.24,53.264 C349.376,53.264 348.594667,53.4533333 347.896,53.832 C347.197333,54.2106667 346.648,54.7386667 346.248,55.416 C345.848,56.0933333 345.648,56.8533333 345.648,57.696 C345.648,58.5493333 345.850667,59.312 346.256,59.984 C346.661333,60.656 347.237333,61.1813333 347.984,61.56 C348.730667,61.9386667 349.589333,62.128 350.56,62.128 Z M352.368,56.944 L348.128,56.944 C348.213333,56.3893333 348.448,55.952 348.832,55.632 C349.216,55.312 349.690667,55.152 350.256,55.152 C350.810667,55.152 351.28,55.3146667 351.664,55.64 C352.048,55.9653333 352.282667,56.4 352.368,56.944 L352.368,56.944 Z M358.88,62 L358.88,50.128 L356.384,50.128 L356.384,62 L358.88,62 Z M362.288,65.232 C363.109333,65.232 363.810667,65.0293333 364.392,64.624 C364.973333,64.2186667 365.461333,63.52 365.856,62.528 L365.856,62.528 L369.744,53.392 L367.344,53.392 L364.912,59.232 L362.496,53.392 L359.92,53.392 L363.648,62.064 L363.616,62.144 C363.445333,62.528 363.253333,62.8026667 363.04,62.968 C362.826667,63.1333333 362.549333,63.216 362.208,63.216 C361.962667,63.216 361.714667,63.168 361.464,63.072 C361.213333,62.976 360.992,62.8426667 360.8,62.672 L360.8,62.672 L359.888,64.448 C360.165333,64.6933333 360.522667,64.8853333 360.96,65.024 C361.397333,65.1626667 361.84,65.232 362.288,65.232 Z M284.648,76.288 L287.544,73.984 L284.856,73.984 L282.696,76.288 L284.648,76.288 Z M284.52,86.128 C286.077333,86.128 287.261333,85.664 288.072,84.736 L288.072,84.736 L286.744,83.296 C286.445333,83.584 286.122667,83.7946667 285.776,83.928 C285.429333,84.0613333 285.032,84.128 284.584,84.128 C283.933333,84.128 283.389333,83.9733333 282.952,83.664 C282.514667,83.3546667 282.237333,82.9333333 282.12,82.4 L282.12,82.4 L288.632,82.4 C288.664,81.984 288.68,81.76 288.68,81.728 C288.68,80.832 288.485333,80.0453333 288.096,79.368 C287.706667,78.6906667 287.170667,78.1706667 286.488,77.808 C285.805333,77.4453333 285.042667,77.264 284.2,77.264 C283.336,77.264 282.554667,77.4533333 281.856,77.832 C281.157333,78.2106667 280.608,78.7386667 280.208,79.416 C279.808,80.0933333 279.608,80.8533333 279.608,81.696 C279.608,82.5493333 279.810667,83.312 280.216,83.984 C280.621333,84.656 281.197333,85.1813333 281.944,85.56 C282.690667,85.9386667 283.549333,86.128 284.52,86.128 Z M286.328,80.944 L282.088,80.944 C282.173333,80.3893333 282.408,79.952 282.792,79.632 C283.176,79.312 283.650667,79.152 284.216,79.152 C284.770667,79.152 285.24,79.3146667 285.624,79.64 C286.008,79.9653333 286.242667,80.4 286.328,80.944 L286.328,80.944 Z M292.84,86 L292.84,81.936 C292.84,81.136 293.042667,80.536 293.448,80.136 C293.853333,79.736 294.413333,79.536 295.128,79.536 C295.224,79.536 295.410667,79.5466667 295.688,79.568 L295.688,79.568 L295.688,77.264 C295.026667,77.264 294.442667,77.3706667 293.936,77.584 C293.429333,77.7973333 293.026667,78.112 292.728,78.528 L292.728,78.528 L292.728,77.392 L290.344,77.392 L290.344,86 L292.84,86 Z M301,86.128 C301.394667,86.128 301.770667,86.0826667 302.128,85.992 C302.485333,85.9013333 302.786667,85.7653333 303.032,85.584 L303.032,85.584 L302.36,83.824 C302.082667,84.0373333 301.746667,84.144 301.352,84.144 C301.010667,84.144 300.746667,84.0453333 300.56,83.848 C300.373333,83.6506667 300.28,83.3706667 300.28,83.008 L300.28,83.008 L300.28,79.504 L302.424,79.504 L302.424,77.584 L300.28,77.584 L300.28,75.488 L297.784,75.488 L297.784,77.584 L296.456,77.584 L296.456,79.504 L297.784,79.504 L297.784,83.04 C297.784,84.0533333 298.064,84.8213333 298.624,85.344 C299.184,85.8666667 299.976,86.128 301,86.128 Z M308.568,76.288 L311.464,73.984 L308.776,73.984 L306.616,76.288 L308.568,76.288 Z M308.44,86.128 C309.997333,86.128 311.181333,85.664 311.992,84.736 L311.992,84.736 L310.664,83.296 C310.365333,83.584 310.042667,83.7946667 309.696,83.928 C309.349333,84.0613333 308.952,84.128 308.504,84.128 C307.853333,84.128 307.309333,83.9733333 306.872,83.664 C306.434667,83.3546667 306.157333,82.9333333 306.04,82.4 L306.04,82.4 L312.552,82.4 C312.584,81.984 312.6,81.76 312.6,81.728 C312.6,80.832 312.405333,80.0453333 312.016,79.368 C311.626667,78.6906667 311.090667,78.1706667 310.408,77.808 C309.725333,77.4453333 308.962667,77.264 308.12,77.264 C307.256,77.264 306.474667,77.4533333 305.776,77.832 C305.077333,78.2106667 304.528,78.7386667 304.128,79.416 C303.728,80.0933333 303.528,80.8533333 303.528,81.696 C303.528,82.5493333 303.730667,83.312 304.136,83.984 C304.541333,84.656 305.117333,85.1813333 305.864,85.56 C306.610667,85.9386667 307.469333,86.128 308.44,86.128 Z M310.248,80.944 L306.008,80.944 C306.093333,80.3893333 306.328,79.952 306.712,79.632 C307.096,79.312 307.570667,79.152 308.136,79.152 C308.690667,79.152 309.16,79.3146667 309.544,79.64 C309.928,79.9653333 310.162667,80.4 310.248,80.944 L310.248,80.944 Z M316.76,86 L316.76,83.808 L317.96,82.624 L320.68,86 L323.704,86 L319.8,81.04 L323.384,77.392 L320.408,77.392 L316.76,80.848 L316.76,74.128 L314.264,74.128 L314.264,86 L316.76,86 Z M328.728,86.128 C330.285333,86.128 331.469333,85.664 332.28,84.736 L332.28,84.736 L330.952,83.296 C330.653333,83.584 330.330667,83.7946667 329.984,83.928 C329.637333,84.0613333 329.24,84.128 328.792,84.128 C328.141333,84.128 327.597333,83.9733333 327.16,83.664 C326.722667,83.3546667 326.445333,82.9333333 326.328,82.4 L326.328,82.4 L332.84,82.4 C332.872,81.984 332.888,81.76 332.888,81.728 C332.888,80.832 332.693333,80.0453333 332.304,79.368 C331.914667,78.6906667 331.378667,78.1706667 330.696,77.808 C330.013333,77.4453333 329.250667,77.264 328.408,77.264 C327.544,77.264 326.762667,77.4533333 326.064,77.832 C325.365333,78.2106667 324.816,78.7386667 324.416,79.416 C324.016,80.0933333 323.816,80.8533333 323.816,81.696 C323.816,82.5493333 324.018667,83.312 324.424,83.984 C324.829333,84.656 325.405333,85.1813333 326.152,85.56 C326.898667,85.9386667 327.757333,86.128 328.728,86.128 Z M330.536,80.944 L326.296,80.944 C326.381333,80.3893333 326.616,79.952 327,79.632 C327.384,79.312 327.858667,79.152 328.424,79.152 C328.978667,79.152 329.448,79.3146667 329.832,79.64 C330.216,79.9653333 330.450667,80.4 330.536,80.944 L330.536,80.944 Z M337.048,86 L337.048,74.128 L334.552,74.128 L334.552,86 L337.048,86 Z M343.768,76.288 L346.664,73.984 L343.976,73.984 L341.816,76.288 L343.768,76.288 Z M343.64,86.128 C345.197333,86.128 346.381333,85.664 347.192,84.736 L347.192,84.736 L345.864,83.296 C345.565333,83.584 345.242667,83.7946667 344.896,83.928 C344.549333,84.0613333 344.152,84.128 343.704,84.128 C343.053333,84.128 342.509333,83.9733333 342.072,83.664 C341.634667,83.3546667 341.357333,82.9333333 341.24,82.4 L341.24,82.4 L347.752,82.4 C347.784,81.984 347.8,81.76 347.8,81.728 C347.8,80.832 347.605333,80.0453333 347.216,79.368 C346.826667,78.6906667 346.290667,78.1706667 345.608,77.808 C344.925333,77.4453333 344.162667,77.264 343.32,77.264 C342.456,77.264 341.674667,77.4533333 340.976,77.832 C340.277333,78.2106667 339.728,78.7386667 339.328,79.416 C338.928,80.0933333 338.728,80.8533333 338.728,81.696 C338.728,82.5493333 338.930667,83.312 339.336,83.984 C339.741333,84.656 340.317333,85.1813333 341.064,85.56 C341.810667,85.9386667 342.669333,86.128 343.64,86.128 Z M345.448,80.944 L341.208,80.944 C341.293333,80.3893333 341.528,79.952 341.912,79.632 C342.296,79.312 342.770667,79.152 343.336,79.152 C343.890667,79.152 344.36,79.3146667 344.744,79.64 C345.128,79.9653333 345.362667,80.4 345.448,80.944 L345.448,80.944 Z M352.36,86.128 C353.202667,86.128 353.930667,86.0133333 354.544,85.784 C355.157333,85.5546667 355.624,85.232 355.944,84.816 C356.264,84.4 356.424,83.9253333 356.424,83.392 C356.424,82.7626667 356.258667,82.272 355.928,81.92 C355.597333,81.568 355.208,81.3253333 354.76,81.192 C354.312,81.0586667 353.736,80.9333333 353.032,80.816 C352.402667,80.72 351.944,80.6186667 351.656,80.512 C351.368,80.4053333 351.224,80.2186667 351.224,79.952 C351.224,79.7173333 351.357333,79.5253333 351.624,79.376 C351.890667,79.2266667 352.290667,79.152 352.824,79.152 C353.72,79.152 354.546667,79.3653333 355.304,79.792 L355.304,79.792 L356.136,78.016 C355.741333,77.7813333 355.242667,77.5973333 354.64,77.464 C354.037333,77.3306667 353.432,77.264 352.824,77.264 C352.002667,77.264 351.290667,77.3813333 350.688,77.616 C350.085333,77.8506667 349.626667,78.1786667 349.312,78.6 C348.997333,79.0213333 348.84,79.504 348.84,80.048 C348.84,80.6986667 349.008,81.2 349.344,81.552 C349.68,81.904 350.077333,82.1493333 350.536,82.288 C350.994667,82.4266667 351.576,82.5493333 352.28,82.656 C352.877333,82.7306667 353.32,82.8213333 353.608,82.928 C353.896,83.0346667 354.04,83.2106667 354.04,83.456 C354.04,83.9786667 353.512,84.24 352.456,84.24 C351.933333,84.24 351.4,84.1626667 350.856,84.008 C350.312,83.8533333 349.848,83.6533333 349.464,83.408 L349.464,83.408 L348.632,85.2 C349.037333,85.4666667 349.581333,85.688 350.264,85.864 C350.946667,86.04 351.645333,86.128 352.36,86.128 Z M362.232,86.128 C363.789333,86.128 364.973333,85.664 365.784,84.736 L365.784,84.736 L364.456,83.296 C364.157333,83.584 363.834667,83.7946667 363.488,83.928 C363.141333,84.0613333 362.744,84.128 362.296,84.128 C361.645333,84.128 361.101333,83.9733333 360.664,83.664 C360.226667,83.3546667 359.949333,82.9333333 359.832,82.4 L359.832,82.4 L366.344,82.4 C366.376,81.984 366.392,81.76 366.392,81.728 C366.392,80.832 366.197333,80.0453333 365.808,79.368 C365.418667,78.6906667 364.882667,78.1706667 364.2,77.808 C363.517333,77.4453333 362.754667,77.264 361.912,77.264 C361.048,77.264 360.266667,77.4533333 359.568,77.832 C358.869333,78.2106667 358.32,78.7386667 357.92,79.416 C357.52,80.0933333 357.32,80.8533333 357.32,81.696 C357.32,82.5493333 357.522667,83.312 357.928,83.984 C358.333333,84.656 358.909333,85.1813333 359.656,85.56 C360.402667,85.9386667 361.261333,86.128 362.232,86.128 Z M364.04,80.944 L359.8,80.944 C359.885333,80.3893333 360.12,79.952 360.504,79.632 C360.888,79.312 361.362667,79.152 361.928,79.152 C362.482667,79.152 362.952,79.3146667 363.336,79.64 C363.72,79.9653333 363.954667,80.4 364.04,80.944 L364.04,80.944 Z" id="Munkahelyértékelése" fill="#323C50" fill-rule="nonzero"></path>
                <circle id="Oval-Copy-3" stroke="#848A96" stroke-width="1.5" cx="595" cy="18" r="17.25"></circle>
                <path d="M541.252,62 L541.252,53.888 L545.3,60.64 L546.036,60.64 L550.084,53.84 L550.1,62 L551.636,62 L551.62,50.8 L550.308,50.8 L545.7,58.672 L541.028,50.8 L539.716,50.8 L539.716,62 L541.252,62 Z M558.34,62.096 C558.937333,62.096 559.489333,61.976 559.996,61.736 C560.502667,61.496 560.910667,61.1573333 561.22,60.72 L561.22,60.72 L561.22,62 L562.676,62 L562.676,53.52 L561.14,53.52 L561.14,57.904 C561.14,58.8 560.905333,59.4933333 560.436,59.984 C559.966667,60.4746667 559.326667,60.72 558.516,60.72 C557.78,60.72 557.214667,60.5093333 556.82,60.088 C556.425333,59.6666667 556.228,59.0453333 556.228,58.224 L556.228,58.224 L556.228,53.52 L554.692,53.52 L554.692,58.4 C554.692,59.616 555.017333,60.536 555.668,61.16 C556.318667,61.784 557.209333,62.096 558.34,62.096 Z M567.14,62 L567.14,57.632 C567.14,56.7253333 567.38,56.0293333 567.86,55.544 C568.34,55.0586667 568.996,54.816 569.828,54.816 C570.564,54.816 571.129333,55.024 571.524,55.44 C571.918667,55.856 572.116,56.4746667 572.116,57.296 L572.116,57.296 L572.116,62 L573.652,62 L573.652,57.12 C573.652,55.9146667 573.334667,55 572.7,54.376 C572.065333,53.752 571.209333,53.44 570.132,53.44 C569.46,53.44 568.86,53.5573333 568.332,53.792 C567.804,54.0266667 567.385333,54.3626667 567.076,54.8 L567.076,54.8 L567.076,53.52 L565.604,53.52 L565.604,62 L567.14,62 Z M578.036,62 L578.036,59.68 L579.796,58.048 L582.98,62 L584.868,62 L580.948,57.024 L584.516,53.52 L582.66,53.52 L578.036,57.744 L578.036,50.128 L576.5,50.128 L576.5,62 L578.036,62 Z M588.676,62.096 C589.326667,62.096 589.889333,61.992 590.364,61.784 C590.838667,61.576 591.204,61.2746667 591.46,60.88 L591.46,60.88 L591.46,62 L592.916,62 L592.916,56.88 C592.916,55.7386667 592.604,54.88 591.98,54.304 C591.356,53.728 590.457333,53.44 589.284,53.44 C588.601333,53.44 587.956,53.5333333 587.348,53.72 C586.74,53.9066667 586.217333,54.176 585.78,54.528 L585.78,54.528 L586.42,55.68 C586.750667,55.4026667 587.156,55.1813333 587.636,55.016 C588.116,54.8506667 588.606667,54.768 589.108,54.768 C589.854667,54.768 590.42,54.944 590.804,55.296 C591.188,55.648 591.38,56.1546667 591.38,56.816 L591.38,56.816 L591.38,57.12 L588.948,57.12 C587.764,57.12 586.9,57.3466667 586.356,57.8 C585.812,58.2533333 585.54,58.8533333 585.54,59.6 C585.54,60.3466667 585.825333,60.9493333 586.396,61.408 C586.966667,61.8666667 587.726667,62.096 588.676,62.096 Z M588.932,60.912 C588.345333,60.912 587.886667,60.7893333 587.556,60.544 C587.225333,60.2986667 587.06,59.9626667 587.06,59.536 C587.06,58.6613333 587.710667,58.224 589.012,58.224 L589.012,58.224 L591.38,58.224 L591.38,59.408 C591.188,59.888 590.878667,60.2586667 590.452,60.52 C590.025333,60.7813333 589.518667,60.912 588.932,60.912 Z M597.3,62 L597.3,59.68 L599.06,58.048 L602.244,62 L604.132,62 L600.212,57.024 L603.78,53.52 L601.924,53.52 L597.3,57.744 L597.3,50.128 L595.764,50.128 L595.764,62 L597.3,62 Z M609.028,62.096 C609.625333,62.096 610.177333,61.976 610.684,61.736 C611.190667,61.496 611.598667,61.1573333 611.908,60.72 L611.908,60.72 L611.908,62 L613.364,62 L613.364,53.52 L611.828,53.52 L611.828,57.904 C611.828,58.8 611.593333,59.4933333 611.124,59.984 C610.654667,60.4746667 610.014667,60.72 609.204,60.72 C608.468,60.72 607.902667,60.5093333 607.508,60.088 C607.113333,59.6666667 606.916,59.0453333 606.916,58.224 L606.916,58.224 L606.916,53.52 L605.38,53.52 L605.38,58.4 C605.38,59.616 605.705333,60.536 606.356,61.16 C607.006667,61.784 607.897333,62.096 609.028,62.096 Z M617.828,62 L617.828,50.128 L616.292,50.128 L616.292,62 L617.828,62 Z M623.876,62.096 C624.228,62.096 624.569333,62.0453333 624.9,61.944 C625.230667,61.8426667 625.508,61.696 625.732,61.504 L625.732,61.504 L625.252,60.4 C624.921333,60.6666667 624.521333,60.8 624.052,60.8 C623.625333,60.8 623.297333,60.6773333 623.068,60.432 C622.838667,60.1866667 622.724,59.8346667 622.724,59.376 L622.724,59.376 L622.724,54.784 L625.156,54.784 L625.156,53.52 L622.724,53.52 L622.724,51.664 L621.188,51.664 L621.188,53.52 L619.748,53.52 L619.748,54.784 L621.188,54.784 L621.188,59.44 C621.188,60.2933333 621.422667,60.9493333 621.892,61.408 C622.361333,61.8666667 623.022667,62.096 623.876,62.096 Z M631.748,52.288 L634.436,50.208 L632.484,50.208 L630.308,52.288 L631.748,52.288 Z M631.156,62.096 C631.753333,62.096 632.305333,61.976 632.812,61.736 C633.318667,61.496 633.726667,61.1573333 634.036,60.72 L634.036,60.72 L634.036,62 L635.492,62 L635.492,53.52 L633.956,53.52 L633.956,57.904 C633.956,58.8 633.721333,59.4933333 633.252,59.984 C632.782667,60.4746667 632.142667,60.72 631.332,60.72 C630.596,60.72 630.030667,60.5093333 629.636,60.088 C629.241333,59.6666667 629.044,59.0453333 629.044,58.224 L629.044,58.224 L629.044,53.52 L627.508,53.52 L627.508,58.4 C627.508,59.616 627.833333,60.536 628.484,61.16 C629.134667,61.784 630.025333,62.096 631.156,62.096 Z M639.956,62 L639.956,57.776 C639.956,56.8586667 640.193333,56.152 640.668,55.656 C641.142667,55.16 641.796,54.912 642.628,54.912 C642.777333,54.912 642.894667,54.9173333 642.98,54.928 L642.98,54.928 L642.98,53.44 C642.233333,53.44 641.598667,53.568 641.076,53.824 C640.553333,54.08 640.158667,54.4533333 639.892,54.944 L639.892,54.944 L639.892,53.52 L638.42,53.52 L638.42,62 L639.956,62 Z M647.332,62.096 C647.982667,62.096 648.545333,61.992 649.02,61.784 C649.494667,61.576 649.86,61.2746667 650.116,60.88 L650.116,60.88 L650.116,62 L651.572,62 L651.572,56.88 C651.572,55.7386667 651.26,54.88 650.636,54.304 C650.012,53.728 649.113333,53.44 647.94,53.44 C647.257333,53.44 646.612,53.5333333 646.004,53.72 C645.396,53.9066667 644.873333,54.176 644.436,54.528 L644.436,54.528 L645.076,55.68 C645.406667,55.4026667 645.812,55.1813333 646.292,55.016 C646.772,54.8506667 647.262667,54.768 647.764,54.768 C648.510667,54.768 649.076,54.944 649.46,55.296 C649.844,55.648 650.036,56.1546667 650.036,56.816 L650.036,56.816 L650.036,57.12 L647.604,57.12 C646.42,57.12 645.556,57.3466667 645.012,57.8 C644.468,58.2533333 644.196,58.8533333 644.196,59.6 C644.196,60.3466667 644.481333,60.9493333 645.052,61.408 C645.622667,61.8666667 646.382667,62.096 647.332,62.096 Z M647.588,60.912 C647.001333,60.912 646.542667,60.7893333 646.212,60.544 C645.881333,60.2986667 645.716,59.9626667 645.716,59.536 C645.716,58.6613333 646.366667,58.224 647.668,58.224 L647.668,58.224 L650.036,58.224 L650.036,59.408 C649.844,59.888 649.534667,60.2586667 649.108,60.52 C648.681333,60.7813333 648.174667,60.912 647.588,60.912 Z M557.66,76.288 L560.348,74.208 L558.396,74.208 L556.22,76.288 L557.66,76.288 Z M557.74,86.096 C558.444,86.096 559.081333,85.9786667 559.652,85.744 C560.222667,85.5093333 560.7,85.168 561.084,84.72 L561.084,84.72 L560.236,83.728 C559.617333,84.4106667 558.801333,84.752 557.788,84.752 C556.956,84.752 556.26,84.5253333 555.7,84.072 C555.14,83.6186667 554.812,83.0186667 554.716,82.272 L554.716,82.272 L561.596,82.272 C561.617333,82.08 561.628,81.9253333 561.628,81.808 C561.628,80.9546667 561.449333,80.1973333 561.092,79.536 C560.734667,78.8746667 560.238667,78.36 559.604,77.992 C558.969333,77.624 558.246667,77.44 557.436,77.44 C556.625333,77.44 555.897333,77.624 555.252,77.992 C554.606667,78.36 554.1,78.8746667 553.732,79.536 C553.364,80.1973333 553.18,80.9386667 553.18,81.76 C553.18,82.592 553.369333,83.3386667 553.748,84 C554.126667,84.6613333 554.662667,85.176 555.356,85.544 C556.049333,85.912 556.844,86.096 557.74,86.096 Z M560.156,81.168 L554.716,81.168 C554.801333,80.4426667 555.092,79.856 555.588,79.408 C556.084,78.96 556.7,78.736 557.436,78.736 C558.172,78.736 558.788,78.9626667 559.284,79.416 C559.78,79.8693333 560.070667,80.4533333 560.156,81.168 L560.156,81.168 Z M566.188,86.096 C567.318667,86.096 568.212,85.8693333 568.868,85.416 C569.524,84.9626667 569.852,84.352 569.852,83.584 C569.852,83.008 569.702667,82.56 569.404,82.24 C569.105333,81.92 568.745333,81.6933333 568.324,81.56 C567.902667,81.4266667 567.350667,81.3013333 566.668,81.184 C566.156,81.088 565.758667,81.0026667 565.476,80.928 C565.193333,80.8533333 564.956,80.736 564.764,80.576 C564.572,80.416 564.476,80.1973333 564.476,79.92 C564.476,79.568 564.646667,79.2853333 564.988,79.072 C565.329333,78.8586667 565.825333,78.752 566.476,78.752 C567.414667,78.752 568.230667,78.976 568.924,79.424 L568.924,79.424 L569.58,78.208 C569.217333,77.9733333 568.753333,77.7866667 568.188,77.648 C567.622667,77.5093333 567.057333,77.44 566.492,77.44 C565.414667,77.44 564.556,77.672 563.916,78.136 C563.276,78.6 562.956,79.216 562.956,79.984 C562.956,80.5813333 563.110667,81.0453333 563.42,81.376 C563.729333,81.7066667 564.1,81.9413333 564.532,82.08 C564.964,82.2186667 565.521333,82.3413333 566.204,82.448 C566.705333,82.5333333 567.092,82.6106667 567.364,82.68 C567.636,82.7493333 567.862667,82.8586667 568.044,83.008 C568.225333,83.1573333 568.316,83.36 568.316,83.616 C568.316,84.384 567.644,84.768 566.3,84.768 C565.756,84.768 565.217333,84.688 564.684,84.528 C564.150667,84.368 563.697333,84.1546667 563.324,83.888 L563.324,83.888 L562.684,85.104 C563.046667,85.392 563.548,85.6293333 564.188,85.816 C564.828,86.0026667 565.494667,86.096 566.188,86.096 Z M579.852,86.096 C580.556,86.096 581.193333,85.9786667 581.764,85.744 C582.334667,85.5093333 582.812,85.168 583.196,84.72 L583.196,84.72 L582.348,83.728 C581.729333,84.4106667 580.913333,84.752 579.9,84.752 C579.068,84.752 578.372,84.5253333 577.812,84.072 C577.252,83.6186667 576.924,83.0186667 576.828,82.272 L576.828,82.272 L583.708,82.272 C583.729333,82.08 583.74,81.9253333 583.74,81.808 C583.74,80.9546667 583.561333,80.1973333 583.204,79.536 C582.846667,78.8746667 582.350667,78.36 581.716,77.992 C581.081333,77.624 580.358667,77.44 579.548,77.44 C578.737333,77.44 578.009333,77.624 577.364,77.992 C576.718667,78.36 576.212,78.8746667 575.844,79.536 C575.476,80.1973333 575.292,80.9386667 575.292,81.76 C575.292,82.592 575.481333,83.3386667 575.86,84 C576.238667,84.6613333 576.774667,85.176 577.468,85.544 C578.161333,85.912 578.956,86.096 579.852,86.096 Z M582.268,81.168 L576.828,81.168 C576.913333,80.4426667 577.204,79.856 577.7,79.408 C578.196,78.96 578.812,78.736 579.548,78.736 C580.284,78.736 580.9,78.9626667 581.396,79.416 C581.892,79.8693333 582.182667,80.4533333 582.268,81.168 L582.268,81.168 Z M587.404,86 L587.404,74.128 L585.868,74.128 L585.868,86 L587.404,86 Z M593.196,76.288 L594.972,74.208 L593.34,74.208 L591.9,76.288 L593.196,76.288 Z M595.996,76.288 L597.74,74.208 L596.124,74.208 L594.7,76.288 L595.996,76.288 Z M593.964,86.096 C594.806667,86.096 595.561333,85.9093333 596.228,85.536 C596.894667,85.1626667 597.417333,84.648 597.796,83.992 C598.174667,83.336 598.364,82.592 598.364,81.76 C598.364,80.928 598.174667,80.184 597.796,79.528 C597.417333,78.872 596.894667,78.36 596.228,77.992 C595.561333,77.624 594.806667,77.44 593.964,77.44 C593.121333,77.44 592.364,77.624 591.692,77.992 C591.02,78.36 590.494667,78.872 590.116,79.528 C589.737333,80.184 589.548,80.928 589.548,81.76 C589.548,82.592 589.737333,83.336 590.116,83.992 C590.494667,84.648 591.02,85.1626667 591.692,85.536 C592.364,85.9093333 593.121333,86.096 593.964,86.096 Z M593.964,84.752 C593.42,84.752 592.932,84.6266667 592.5,84.376 C592.068,84.1253333 591.726667,83.7733333 591.476,83.32 C591.225333,82.8666667 591.1,82.3466667 591.1,81.76 C591.1,81.1733333 591.225333,80.6533333 591.476,80.2 C591.726667,79.7466667 592.068,79.3973333 592.5,79.152 C592.932,78.9066667 593.42,78.784 593.964,78.784 C594.508,78.784 594.996,78.9066667 595.428,79.152 C595.86,79.3973333 596.198667,79.7466667 596.444,80.2 C596.689333,80.6533333 596.812,81.1733333 596.812,81.76 C596.812,82.3466667 596.689333,82.8666667 596.444,83.32 C596.198667,83.7733333 595.86,84.1253333 595.428,84.376 C594.996,84.6266667 594.508,84.752 593.964,84.752 Z M602.028,86 L602.028,81.632 C602.028,80.7253333 602.268,80.0293333 602.748,79.544 C603.228,79.0586667 603.884,78.816 604.716,78.816 C605.452,78.816 606.017333,79.024 606.412,79.44 C606.806667,79.856 607.004,80.4746667 607.004,81.296 L607.004,81.296 L607.004,86 L608.54,86 L608.54,81.12 C608.54,79.9146667 608.222667,79 607.588,78.376 C606.953333,77.752 606.097333,77.44 605.02,77.44 C604.348,77.44 603.748,77.5573333 603.22,77.792 C602.692,78.0266667 602.273333,78.3626667 601.964,78.8 L601.964,78.8 L601.964,77.52 L600.492,77.52 L600.492,86 L602.028,86 Z M611.596,89.2 C612.278667,89.2 612.862667,89.024 613.348,88.672 C613.833333,88.32 614.257333,87.712 614.62,86.848 L614.62,86.848 L618.732,77.52 L617.228,77.52 L614.3,84.304 L611.34,77.52 L609.74,77.52 L613.484,85.984 L613.212,86.576 C613.009333,87.056 612.782667,87.3946667 612.532,87.592 C612.281333,87.7893333 611.969333,87.888 611.596,87.888 C611.02,87.888 610.513333,87.68 610.076,87.264 L610.076,87.264 L609.42,88.416 C609.676,88.672 609.998667,88.8666667 610.388,89 C610.777333,89.1333333 611.18,89.2 611.596,89.2 Z M622.06,76.016 C622.284,76.016 622.476,75.9386667 622.636,75.784 C622.796,75.6293333 622.876,75.4346667 622.876,75.2 C622.876,74.9653333 622.796,74.768 622.636,74.608 C622.476,74.448 622.284,74.368 622.06,74.368 C621.836,74.368 621.644,74.448 621.484,74.608 C621.324,74.768 621.244,74.9653333 621.244,75.2 C621.244,75.4346667 621.324,75.6293333 621.484,75.784 C621.644,75.9386667 621.836,76.016 622.06,76.016 Z M625.036,76.016 C625.26,76.016 625.452,75.9386667 625.612,75.784 C625.772,75.6293333 625.852,75.4346667 625.852,75.2 C625.852,74.9653333 625.772,74.768 625.612,74.608 C625.452,74.448 625.26,74.368 625.036,74.368 C624.812,74.368 624.62,74.448 624.46,74.608 C624.3,74.768 624.22,74.9653333 624.22,75.2 C624.22,75.4346667 624.3,75.6293333 624.46,75.784 C624.62,75.9386667 624.812,76.016 625.036,76.016 Z M623.564,86.096 C624.406667,86.096 625.161333,85.9093333 625.828,85.536 C626.494667,85.1626667 627.017333,84.648 627.396,83.992 C627.774667,83.336 627.964,82.592 627.964,81.76 C627.964,80.928 627.774667,80.184 627.396,79.528 C627.017333,78.872 626.494667,78.36 625.828,77.992 C625.161333,77.624 624.406667,77.44 623.564,77.44 C622.721333,77.44 621.964,77.624 621.292,77.992 C620.62,78.36 620.094667,78.872 619.716,79.528 C619.337333,80.184 619.148,80.928 619.148,81.76 C619.148,82.592 619.337333,83.336 619.716,83.992 C620.094667,84.648 620.62,85.1626667 621.292,85.536 C621.964,85.9093333 622.721333,86.096 623.564,86.096 Z M623.564,84.752 C623.02,84.752 622.532,84.6266667 622.1,84.376 C621.668,84.1253333 621.326667,83.7733333 621.076,83.32 C620.825333,82.8666667 620.7,82.3466667 620.7,81.76 C620.7,81.1733333 620.825333,80.6533333 621.076,80.2 C621.326667,79.7466667 621.668,79.3973333 622.1,79.152 C622.532,78.9066667 623.02,78.784 623.564,78.784 C624.108,78.784 624.596,78.9066667 625.028,79.152 C625.46,79.3973333 625.798667,79.7466667 626.044,80.2 C626.289333,80.6533333 626.412,81.1733333 626.412,81.76 C626.412,82.3466667 626.289333,82.8666667 626.044,83.32 C625.798667,83.7733333 625.46,84.1253333 625.028,84.376 C624.596,84.6266667 624.108,84.752 623.564,84.752 Z M631.628,86 L631.628,83.68 L633.388,82.048 L636.572,86 L638.46,86 L634.54,81.024 L638.108,77.52 L636.252,77.52 L631.628,81.744 L631.628,74.128 L630.092,74.128 L630.092,86 L631.628,86 Z" id="Munkakultúraéselőnyök" fill-opacity="0.7" fill="#323C50" fill-rule="nonzero"></path>
                <circle id="Oval-Copy-4" stroke="#848A96" stroke-width="1.5" cx="867" cy="18" r="17.25"></circle>
                <path d="M834.24,62.128 C835.189333,62.128 835.989333,61.9866667 836.64,61.704 C837.290667,61.4213333 837.776,61.0373333 838.096,60.552 C838.416,60.0666667 838.576,59.5306667 838.576,58.944 C838.576,58.24 838.392,57.68 838.024,57.264 C837.656,56.848 837.216,56.5386667 836.704,56.336 C836.192,56.1333333 835.514667,55.9306667 834.672,55.728 C834.021333,55.5786667 833.506667,55.4373333 833.128,55.304 C832.749333,55.1706667 832.432,54.984 832.176,54.744 C831.92,54.504 831.792,54.192 831.792,53.808 C831.792,53.2853333 832.018667,52.8586667 832.472,52.528 C832.925333,52.1973333 833.605333,52.032 834.512,52.032 C835.024,52.032 835.546667,52.1093333 836.08,52.264 C836.613333,52.4186667 837.114667,52.6453333 837.584,52.944 L837.584,52.944 L838.112,51.664 C837.653333,51.344 837.104,51.0986667 836.464,50.928 C835.824,50.7573333 835.173333,50.672 834.512,50.672 C833.562667,50.672 832.768,50.816 832.128,51.104 C831.488,51.392 831.010667,51.776 830.696,52.256 C830.381333,52.736 830.224,53.2746667 830.224,53.872 C830.224,54.5866667 830.408,55.1546667 830.776,55.576 C831.144,55.9973333 831.586667,56.3093333 832.104,56.512 C832.621333,56.7146667 833.301333,56.9173333 834.144,57.12 C834.816,57.28 835.336,57.424 835.704,57.552 C836.072,57.68 836.381333,57.864 836.632,58.104 C836.882667,58.344 837.008,58.656 837.008,59.04 C837.008,59.5626667 836.778667,59.9813333 836.32,60.296 C835.861333,60.6106667 835.168,60.768 834.24,60.768 C833.536,60.768 832.850667,60.648 832.184,60.408 C831.517333,60.168 830.970667,59.856 830.544,59.472 L830.544,59.472 L829.952,60.72 C830.4,61.136 831.016,61.4746667 831.8,61.736 C832.584,61.9973333 833.397333,62.128 834.24,62.128 Z M846.976,62 L846.976,60.736 L841.84,60.736 L846.848,54.528 L846.848,53.52 L839.968,53.52 L839.968,54.784 L844.88,54.784 L839.872,61.008 L839.872,62 L846.976,62 Z M851.024,52.016 C851.248,52.016 851.44,51.9386667 851.6,51.784 C851.76,51.6293333 851.84,51.4346667 851.84,51.2 C851.84,50.9653333 851.76,50.768 851.6,50.608 C851.44,50.448 851.248,50.368 851.024,50.368 C850.8,50.368 850.608,50.448 850.448,50.608 C850.288,50.768 850.208,50.9653333 850.208,51.2 C850.208,51.4346667 850.288,51.6293333 850.448,51.784 C850.608,51.9386667 850.8,52.016 851.024,52.016 Z M854,52.016 C854.224,52.016 854.416,51.9386667 854.576,51.784 C854.736,51.6293333 854.816,51.4346667 854.816,51.2 C854.816,50.9653333 854.736,50.768 854.576,50.608 C854.416,50.448 854.224,50.368 854,50.368 C853.776,50.368 853.584,50.448 853.424,50.608 C853.264,50.768 853.184,50.9653333 853.184,51.2 C853.184,51.4346667 853.264,51.6293333 853.424,51.784 C853.584,51.9386667 853.776,52.016 854,52.016 Z M852.528,62.096 C853.370667,62.096 854.125333,61.9093333 854.792,61.536 C855.458667,61.1626667 855.981333,60.648 856.36,59.992 C856.738667,59.336 856.928,58.592 856.928,57.76 C856.928,56.928 856.738667,56.184 856.36,55.528 C855.981333,54.872 855.458667,54.36 854.792,53.992 C854.125333,53.624 853.370667,53.44 852.528,53.44 C851.685333,53.44 850.928,53.624 850.256,53.992 C849.584,54.36 849.058667,54.872 848.68,55.528 C848.301333,56.184 848.112,56.928 848.112,57.76 C848.112,58.592 848.301333,59.336 848.68,59.992 C849.058667,60.648 849.584,61.1626667 850.256,61.536 C850.928,61.9093333 851.685333,62.096 852.528,62.096 Z M852.528,60.752 C851.984,60.752 851.496,60.6266667 851.064,60.376 C850.632,60.1253333 850.290667,59.7733333 850.04,59.32 C849.789333,58.8666667 849.664,58.3466667 849.664,57.76 C849.664,57.1733333 849.789333,56.6533333 850.04,56.2 C850.290667,55.7466667 850.632,55.3973333 851.064,55.152 C851.496,54.9066667 851.984,54.784 852.528,54.784 C853.072,54.784 853.56,54.9066667 853.992,55.152 C854.424,55.3973333 854.762667,55.7466667 855.008,56.2 C855.253333,56.6533333 855.376,57.1733333 855.376,57.76 C855.376,58.3466667 855.253333,58.8666667 855.008,59.32 C854.762667,59.7733333 854.424,60.1253333 853.992,60.376 C853.56,60.6266667 853.072,60.752 852.528,60.752 Z M862.608,62 L866.32,53.52 L864.816,53.52 L861.84,60.32 L858.928,53.52 L857.328,53.52 L861.04,62 L862.608,62 Z M871.296,62.096 C872,62.096 872.637333,61.9786667 873.208,61.744 C873.778667,61.5093333 874.256,61.168 874.64,60.72 L874.64,60.72 L873.792,59.728 C873.173333,60.4106667 872.357333,60.752 871.344,60.752 C870.512,60.752 869.816,60.5253333 869.256,60.072 C868.696,59.6186667 868.368,59.0186667 868.272,58.272 L868.272,58.272 L875.152,58.272 C875.173333,58.08 875.184,57.9253333 875.184,57.808 C875.184,56.9546667 875.005333,56.1973333 874.648,55.536 C874.290667,54.8746667 873.794667,54.36 873.16,53.992 C872.525333,53.624 871.802667,53.44 870.992,53.44 C870.181333,53.44 869.453333,53.624 868.808,53.992 C868.162667,54.36 867.656,54.8746667 867.288,55.536 C866.92,56.1973333 866.736,56.9386667 866.736,57.76 C866.736,58.592 866.925333,59.3386667 867.304,60 C867.682667,60.6613333 868.218667,61.176 868.912,61.544 C869.605333,61.912 870.4,62.096 871.296,62.096 Z M873.712,57.168 L868.272,57.168 C868.357333,56.4426667 868.648,55.856 869.144,55.408 C869.64,54.96 870.256,54.736 870.992,54.736 C871.728,54.736 872.344,54.9626667 872.84,55.416 C873.336,55.8693333 873.626667,56.4533333 873.712,57.168 L873.712,57.168 Z M881.024,65.2 C882.485333,65.2 883.584,64.8453333 884.32,64.136 C885.056,63.4266667 885.424,62.3306667 885.424,60.848 L885.424,60.848 L885.424,53.52 L883.968,53.52 L883.968,54.832 C883.616,54.3733333 883.165333,54.0266667 882.616,53.792 C882.066667,53.5573333 881.472,53.44 880.832,53.44 C880.021333,53.44 879.288,53.6106667 878.632,53.952 C877.976,54.2933333 877.461333,54.776 877.088,55.4 C876.714667,56.024 876.528,56.736 876.528,57.536 C876.528,58.336 876.714667,59.048 877.088,59.672 C877.461333,60.296 877.976,60.7813333 878.632,61.128 C879.288,61.4746667 880.021333,61.648 880.832,61.648 C881.450667,61.648 882.024,61.5386667 882.552,61.32 C883.08,61.1013333 883.525333,60.7733333 883.888,60.336 L883.888,60.336 L883.888,61.008 C883.888,61.968 883.650667,62.6826667 883.176,63.152 C882.701333,63.6213333 881.968,63.856 880.976,63.856 C880.357333,63.856 879.757333,63.7573333 879.176,63.56 C878.594667,63.3626667 878.106667,63.0933333 877.712,62.752 L877.712,62.752 L876.976,63.936 C877.424,64.3413333 878.010667,64.6533333 878.736,64.872 C879.461333,65.0906667 880.224,65.2 881.024,65.2 Z M881.008,60.304 C880.442667,60.304 879.938667,60.1866667 879.496,59.952 C879.053333,59.7173333 878.706667,59.3893333 878.456,58.968 C878.205333,58.5466667 878.08,58.0693333 878.08,57.536 C878.08,56.7146667 878.352,56.0506667 878.896,55.544 C879.44,55.0373333 880.144,54.784 881.008,54.784 C881.861333,54.784 882.56,55.0373333 883.104,55.544 C883.648,56.0506667 883.92,56.7146667 883.92,57.536 C883.92,58.0693333 883.794667,58.5466667 883.544,58.968 C883.293333,59.3893333 882.946667,59.7173333 882.504,59.952 C882.061333,60.1866667 881.562667,60.304 881.008,60.304 Z M892.128,62.096 C892.832,62.096 893.469333,61.9786667 894.04,61.744 C894.610667,61.5093333 895.088,61.168 895.472,60.72 L895.472,60.72 L894.624,59.728 C894.005333,60.4106667 893.189333,60.752 892.176,60.752 C891.344,60.752 890.648,60.5253333 890.088,60.072 C889.528,59.6186667 889.2,59.0186667 889.104,58.272 L889.104,58.272 L895.984,58.272 C896.005333,58.08 896.016,57.9253333 896.016,57.808 C896.016,56.9546667 895.837333,56.1973333 895.48,55.536 C895.122667,54.8746667 894.626667,54.36 893.992,53.992 C893.357333,53.624 892.634667,53.44 891.824,53.44 C891.013333,53.44 890.285333,53.624 889.64,53.992 C888.994667,54.36 888.488,54.8746667 888.12,55.536 C887.752,56.1973333 887.568,56.9386667 887.568,57.76 C887.568,58.592 887.757333,59.3386667 888.136,60 C888.514667,60.6613333 889.050667,61.176 889.744,61.544 C890.437333,61.912 891.232,62.096 892.128,62.096 Z M894.544,57.168 L889.104,57.168 C889.189333,56.4426667 889.48,55.856 889.976,55.408 C890.472,54.96 891.088,54.736 891.824,54.736 C892.56,54.736 893.176,54.9626667 893.672,55.416 C894.168,55.8693333 894.458667,56.4533333 894.544,57.168 L894.544,57.168 Z M900.576,62.096 C901.706667,62.096 902.6,61.8693333 903.256,61.416 C903.912,60.9626667 904.24,60.352 904.24,59.584 C904.24,59.008 904.090667,58.56 903.792,58.24 C903.493333,57.92 903.133333,57.6933333 902.712,57.56 C902.290667,57.4266667 901.738667,57.3013333 901.056,57.184 C900.544,57.088 900.146667,57.0026667 899.864,56.928 C899.581333,56.8533333 899.344,56.736 899.152,56.576 C898.96,56.416 898.864,56.1973333 898.864,55.92 C898.864,55.568 899.034667,55.2853333 899.376,55.072 C899.717333,54.8586667 900.213333,54.752 900.864,54.752 C901.802667,54.752 902.618667,54.976 903.312,55.424 L903.312,55.424 L903.968,54.208 C903.605333,53.9733333 903.141333,53.7866667 902.576,53.648 C902.010667,53.5093333 901.445333,53.44 900.88,53.44 C899.802667,53.44 898.944,53.672 898.304,54.136 C897.664,54.6 897.344,55.216 897.344,55.984 C897.344,56.5813333 897.498667,57.0453333 897.808,57.376 C898.117333,57.7066667 898.488,57.9413333 898.92,58.08 C899.352,58.2186667 899.909333,58.3413333 900.592,58.448 C901.093333,58.5333333 901.48,58.6106667 901.752,58.68 C902.024,58.7493333 902.250667,58.8586667 902.432,59.008 C902.613333,59.1573333 902.704,59.36 902.704,59.616 C902.704,60.384 902.032,60.768 900.688,60.768 C900.144,60.768 899.605333,60.688 899.072,60.528 C898.538667,60.368 898.085333,60.1546667 897.712,59.888 L897.712,59.888 L897.072,61.104 C897.434667,61.392 897.936,61.6293333 898.576,61.816 C899.216,62.0026667 899.882667,62.096 900.576,62.096 Z M832.656,86 L836.368,77.52 L834.864,77.52 L831.888,84.32 L828.976,77.52 L827.376,77.52 L831.088,86 L832.656,86 Z M841.264,76.288 L843.952,74.208 L842,74.208 L839.824,76.288 L841.264,76.288 Z M841.344,86.096 C842.048,86.096 842.685333,85.9786667 843.256,85.744 C843.826667,85.5093333 844.304,85.168 844.688,84.72 L844.688,84.72 L843.84,83.728 C843.221333,84.4106667 842.405333,84.752 841.392,84.752 C840.56,84.752 839.864,84.5253333 839.304,84.072 C838.744,83.6186667 838.416,83.0186667 838.32,82.272 L838.32,82.272 L845.2,82.272 C845.221333,82.08 845.232,81.9253333 845.232,81.808 C845.232,80.9546667 845.053333,80.1973333 844.696,79.536 C844.338667,78.8746667 843.842667,78.36 843.208,77.992 C842.573333,77.624 841.850667,77.44 841.04,77.44 C840.229333,77.44 839.501333,77.624 838.856,77.992 C838.210667,78.36 837.704,78.8746667 837.336,79.536 C836.968,80.1973333 836.784,80.9386667 836.784,81.76 C836.784,82.592 836.973333,83.3386667 837.352,84 C837.730667,84.6613333 838.266667,85.176 838.96,85.544 C839.653333,85.912 840.448,86.096 841.344,86.096 Z M843.76,81.168 L838.32,81.168 C838.405333,80.4426667 838.696,79.856 839.192,79.408 C839.688,78.96 840.304,78.736 841.04,78.736 C841.776,78.736 842.392,78.9626667 842.888,79.416 C843.384,79.8693333 843.674667,80.4533333 843.76,81.168 L843.76,81.168 Z M848.896,86 L848.896,74.128 L847.36,74.128 L847.36,86 L848.896,86 Z M855.6,86.096 C856.304,86.096 856.941333,85.9786667 857.512,85.744 C858.082667,85.5093333 858.56,85.168 858.944,84.72 L858.944,84.72 L858.096,83.728 C857.477333,84.4106667 856.661333,84.752 855.648,84.752 C854.816,84.752 854.12,84.5253333 853.56,84.072 C853,83.6186667 852.672,83.0186667 852.576,82.272 L852.576,82.272 L859.456,82.272 C859.477333,82.08 859.488,81.9253333 859.488,81.808 C859.488,80.9546667 859.309333,80.1973333 858.952,79.536 C858.594667,78.8746667 858.098667,78.36 857.464,77.992 C856.829333,77.624 856.106667,77.44 855.296,77.44 C854.485333,77.44 853.757333,77.624 853.112,77.992 C852.466667,78.36 851.96,78.8746667 851.592,79.536 C851.224,80.1973333 851.04,80.9386667 851.04,81.76 C851.04,82.592 851.229333,83.3386667 851.608,84 C851.986667,84.6613333 852.522667,85.176 853.216,85.544 C853.909333,85.912 854.704,86.096 855.6,86.096 Z M858.016,81.168 L852.576,81.168 C852.661333,80.4426667 852.952,79.856 853.448,79.408 C853.944,78.96 854.56,78.736 855.296,78.736 C856.032,78.736 856.648,78.9626667 857.144,79.416 C857.64,79.8693333 857.930667,80.4533333 858.016,81.168 L858.016,81.168 Z M863.152,86 L863.152,81.632 C863.152,80.7253333 863.381333,80.0293333 863.84,79.544 C864.298667,79.0586667 864.917333,78.816 865.696,78.816 C866.4,78.816 866.941333,79.024 867.32,79.44 C867.698667,79.856 867.888,80.4746667 867.888,81.296 L867.888,81.296 L867.888,86 L869.424,86 L869.424,81.632 C869.424,80.7253333 869.653333,80.0293333 870.112,79.544 C870.570667,79.0586667 871.189333,78.816 871.968,78.816 C872.672,78.816 873.213333,79.024 873.592,79.44 C873.970667,79.856 874.16,80.4746667 874.16,81.296 L874.16,81.296 L874.16,86 L875.696,86 L875.696,81.12 C875.696,79.904 875.384,78.9866667 874.76,78.368 C874.136,77.7493333 873.290667,77.44 872.224,77.44 C871.509333,77.44 870.866667,77.5786667 870.296,77.856 C869.725333,78.1333333 869.28,78.5173333 868.96,79.008 C868.682667,78.496 868.288,78.1066667 867.776,77.84 C867.264,77.5733333 866.677333,77.44 866.016,77.44 C865.376,77.44 864.805333,77.5546667 864.304,77.784 C863.802667,78.0133333 863.397333,78.3466667 863.088,78.784 L863.088,78.784 L863.088,77.52 L861.616,77.52 L861.616,86 L863.152,86 Z M882.272,76.288 L884.96,74.208 L883.008,74.208 L880.832,76.288 L882.272,76.288 Z M882.352,86.096 C883.056,86.096 883.693333,85.9786667 884.264,85.744 C884.834667,85.5093333 885.312,85.168 885.696,84.72 L885.696,84.72 L884.848,83.728 C884.229333,84.4106667 883.413333,84.752 882.4,84.752 C881.568,84.752 880.872,84.5253333 880.312,84.072 C879.752,83.6186667 879.424,83.0186667 879.328,82.272 L879.328,82.272 L886.208,82.272 C886.229333,82.08 886.24,81.9253333 886.24,81.808 C886.24,80.9546667 886.061333,80.1973333 885.704,79.536 C885.346667,78.8746667 884.850667,78.36 884.216,77.992 C883.581333,77.624 882.858667,77.44 882.048,77.44 C881.237333,77.44 880.509333,77.624 879.864,77.992 C879.218667,78.36 878.712,78.8746667 878.344,79.536 C877.976,80.1973333 877.792,80.9386667 877.792,81.76 C877.792,82.592 877.981333,83.3386667 878.36,84 C878.738667,84.6613333 879.274667,85.176 879.968,85.544 C880.661333,85.912 881.456,86.096 882.352,86.096 Z M884.768,81.168 L879.328,81.168 C879.413333,80.4426667 879.704,79.856 880.2,79.408 C880.696,78.96 881.312,78.736 882.048,78.736 C882.784,78.736 883.4,78.9626667 883.896,79.416 C884.392,79.8693333 884.682667,80.4533333 884.768,81.168 L884.768,81.168 Z M889.904,86 L889.904,81.632 C889.904,80.7253333 890.144,80.0293333 890.624,79.544 C891.104,79.0586667 891.76,78.816 892.592,78.816 C893.328,78.816 893.893333,79.024 894.288,79.44 C894.682667,79.856 894.88,80.4746667 894.88,81.296 L894.88,81.296 L894.88,86 L896.416,86 L896.416,81.12 C896.416,79.9146667 896.098667,79 895.464,78.376 C894.829333,77.752 893.973333,77.44 892.896,77.44 C892.224,77.44 891.624,77.5573333 891.096,77.792 C890.568,78.0266667 890.149333,78.3626667 889.84,78.8 L889.84,78.8 L889.84,77.52 L888.368,77.52 L888.368,86 L889.904,86 Z M899.472,89.2 C900.154667,89.2 900.738667,89.024 901.224,88.672 C901.709333,88.32 902.133333,87.712 902.496,86.848 L902.496,86.848 L906.608,77.52 L905.104,77.52 L902.176,84.304 L899.216,77.52 L897.616,77.52 L901.36,85.984 L901.088,86.576 C900.885333,87.056 900.658667,87.3946667 900.408,87.592 C900.157333,87.7893333 899.845333,87.888 899.472,87.888 C898.896,87.888 898.389333,87.68 897.952,87.264 L897.952,87.264 L897.296,88.416 C897.552,88.672 897.874667,88.8666667 898.264,89 C898.653333,89.1333333 899.056,89.2 899.472,89.2 Z" id="Szövegesvélemény" fill-opacity="0.7" fill="#323C50" fill-rule="nonzero"></path>
                <path d="M48.9375,23.875 C49.0234375,23.875 49.109375,23.8570964 49.1953125,23.8212891 C49.28125,23.7854818 49.360026,23.7389323 49.4316406,23.6816406 L59.0566406,14.0566406 C59.1855469,13.9134115 59.25,13.7486979 59.25,13.5625 C59.25,13.3763021 59.1855469,13.2115885 59.0566406,13.0683594 C58.9134115,12.9394531 58.7486979,12.875 58.5625,12.875 C58.3763021,12.875 58.2115885,12.9394531 58.0683594,13.0683594 L48.9375,22.2207031 L45.3066406,18.5683594 C45.1634115,18.4394531 44.9986979,18.375 44.8125,18.375 C44.6263021,18.375 44.4615885,18.4394531 44.3183594,18.5683594 C44.1894531,18.7115885 44.125,18.8763021 44.125,19.0625 C44.125,19.2486979 44.1894531,19.4134115 44.3183594,19.5566406 L48.4433594,23.6816406 C48.514974,23.7389323 48.59375,23.7854818 48.6796875,23.8212891 C48.765625,23.8570964 48.8515625,23.875 48.9375,23.875 Z" id="" fill="#FFFFFF" fill-rule="nonzero"></path>
                <g id="Group-3" transform="translate(305.000000, 0.000000)">
                    <circle id="Oval" stroke="#4A589F" stroke-width="1.5" cx="18" cy="18" r="17.25"></circle>
                    <circle id="Oval-Copy" fill="#4A589F" cx="18" cy="18" r="8"></circle>
                </g>
                <line x1="357" y1="17.5" x2="561" y2="17.5" id="Line-Copy-4" stroke="#979797" stroke-width="1.5" stroke-linecap="square" stroke-dasharray="4"></line>
                <line x1="85" y1="18" x2="289" y2="18" id="Line-Copy-3" stroke="#4A589F" stroke-width="1.5" stroke-linecap="square"></line>
                <line x1="629" y1="18" x2="833" y2="18" id="Line-Copy-5" stroke="#979797" stroke-width="1.5" stroke-linecap="square" stroke-dasharray="4"></line>
            </g>
        </g>
    </g>
</svg>