<?xml version="1.0" encoding="UTF-8"?>
<svg width="24px" height="24px" viewBox="0 0 24 24" version="1.1" xmlns="http://www.w3.org/2000/svg" xmlns:xlink="http://www.w3.org/1999/xlink">
    <!-- Generator: Sketch 62 (91390) - https://sketch.com -->
    <title>question-circle copy</title>
    <desc>Created with Sketch.</desc>
    <g id="Profession-vélemények---UI-Desktop---960px" stroke="none" stroke-width="1" fill="none" fill-rule="evenodd" fill-opacity="0.5">
        <g id="Lépés-2---Értékelő-form---Desktop" transform="translate(-579.000000, -398.000000)" fill="#848A96" fill-rule="nonzero">
            <g id="Group-2" transform="translate(170.000000, 372.000000)">
                <g id="question-circle-copy" transform="translate(409.000000, 26.000000)">
                    <path d="M12,0 C5.373,0 0,5.373 0,12 C0,18.627 5.373,24 12,24 C18.627,24 24,18.627 24,12 L24,12 C23.9925,5.376 18.624,0.0075 12,0 L12,0 Z M12,19.5 C11.2755,19.5 10.6875,18.912 10.6875,18.1875 C10.6875,17.463 11.2755,16.875 12,16.875 C12.7245,16.875 13.3125,17.463 13.3125,18.1875 L13.3125,18.1875 C13.3125,18.912 12.7245,19.5 12,19.5 L12,19.5 Z M14.175,13.275 C13.413,13.8465 13.125,14.1105 13.125,14.625 C13.125,15.246 12.621,15.75 12,15.75 C11.379,15.75 10.875,15.246 10.875,14.625 L10.875,14.625 C10.944,13.2735 11.7045,12.1125 12.8055,11.4855 L12.825,11.475 C13.587,10.9035 13.875,10.6395 13.875,10.125 C13.875,9.09 13.035,8.25 12,8.25 C10.965,8.25 10.125,9.09 10.125,10.125 L10.125,10.125 C10.125,10.746 9.621,11.25 9,11.25 C8.379,11.25 7.875,10.746 7.875,10.125 L7.875,10.125 C7.875,7.8465 9.7215,6 12,6 C14.2785,6 16.125,7.8465 16.125,10.125 L16.125,10.125 C16.056,11.4765 15.2955,12.6375 14.1945,13.2645 L14.175,13.275 L14.175,13.275 Z" id="Shape"></path>
                </g>
            </g>
        </g>
    </g>
</svg>